<?xml version="1.0" encoding="UTF-8" standalone="no"?>
<!-- Created with Inkscape (http://www.inkscape.org/) -->

<svg
   xmlns:dc="http://purl.org/dc/elements/1.1/"
   xmlns:cc="http://creativecommons.org/ns#"
   xmlns:rdf="http://www.w3.org/1999/02/22-rdf-syntax-ns#"
   xmlns:svg="http://www.w3.org/2000/svg"
   xmlns="http://www.w3.org/2000/svg"
   xmlns:sodipodi="http://sodipodi.sourceforge.net/DTD/sodipodi-0.dtd"
   xmlns:inkscape="http://www.inkscape.org/namespaces/inkscape"
   width="210mm"
   height="297mm"
   viewBox="0 0 210 297"
   version="1.1"
   id="svg1006"
   inkscape:version="0.92.4 (5da689c313, 2019-01-14)"
   sodipodi:docname="006.svg">
  <defs
     id="defs1000" />
  <sodipodi:namedview
     id="base"
     pagecolor="#ffffff"
     bordercolor="#666666"
     borderopacity="1.0"
     inkscape:pageopacity="0.0"
     inkscape:pageshadow="2"
     inkscape:zoom="0.98994949"
     inkscape:cx="402.39347"
     inkscape:cy="414.39776"
     inkscape:document-units="mm"
     inkscape:current-layer="layer1"
     showgrid="false"
     inkscape:window-width="1920"
     inkscape:window-height="1018"
     inkscape:window-x="-8"
     inkscape:window-y="-8"
     inkscape:window-maximized="1" />
  <metadata
     id="metadata1003">
    <rdf:RDF>
      <cc:Work
         rdf:about="">
        <dc:format>image/svg+xml</dc:format>
        <dc:type
           rdf:resource="http://purl.org/dc/dcmitype/StillImage" />
        <dc:title></dc:title>
      </cc:Work>
    </rdf:RDF>
  </metadata>
  <g
     inkscape:label="Layer 1"
     inkscape:groupmode="layer"
     id="layer1">
    <rect
       style="opacity:1;fill:#e6e6e6;fill-opacity:1;fill-rule:nonzero;stroke:none;stroke-width:0;stroke-miterlimit:4;stroke-dasharray:none;stroke-opacity:1"
       id="rect1551"
       width="214.35016"
       height="160.36172"
       x="-1.6036172"
       y="-1.8073317" />
    <rect
       style="opacity:1;fill:#ffffff;fill-opacity:1;fill-rule:nonzero;stroke:none;stroke-width:0;stroke-miterlimit:4;stroke-dasharray:none;stroke-opacity:1"
       id="rect1553"
       width="219.69556"
       height="166.77618"
       x="-2.1381562"
       y="132.8965" />
    <ellipse
       style="opacity:1;fill:#e6e6e6;fill-opacity:1;fill-rule:nonzero;stroke:#000000;stroke-width:0.7;stroke-miterlimit:4;stroke-dasharray:none;stroke-opacity:1"
       id="path1555"
       cx="66.149208"
       cy="166.43884"
       rx="50.113033"
       ry="44.500378" />
    <rect
       style="opacity:1;fill:#f9f9f9;fill-opacity:1;fill-rule:nonzero;stroke:none;stroke-width:0.69999999;stroke-miterlimit:4;stroke-dasharray:none;stroke-opacity:1"
       id="rect1557"
       width="152.07635"
       height="56.66114"
       x="-12.294398"
       y="166.57246" />
    <path
       style="fill:none;stroke:#000000;stroke-width:0.26458332px;stroke-linecap:butt;stroke-linejoin:miter;stroke-opacity:1"
       d="m 15.768902,165.77066 c 4.992087,1.62615 10.408525,0.18938 15.408866,1.78639 12.324331,0.86078 24.684093,0.0418 37.023351,0.35034 15.054014,-2.8e-4 30.108031,0.009 45.162041,-0.006 0.95966,-0.13243 1.30551,-1.56092 2.36454,-1.3294"
       id="path1559"
       inkscape:connector-curvature="0" />
    <path
       style="fill:none;stroke:#000000;stroke-width:0.26458332px;stroke-linecap:butt;stroke-linejoin:miter;stroke-opacity:1"
       d="m 20.312484,150.26903 c 8.476913,-0.0678 16.948506,0.68942 25.240034,2.45219 9.108101,0.97335 18.283195,0.31324 27.42511,0.48777 8.50373,0 17.007461,0 25.511191,0 4.376091,-1.41139 8.923061,-2.1729 13.363481,-3.34087"
       id="path1563"
       inkscape:connector-curvature="0" />
    <path
       style="fill:none;stroke:#000000;stroke-width:0.26458332px;stroke-linecap:butt;stroke-linejoin:miter;stroke-opacity:1"
       d="m 29.266012,136.63828 c 6.15135,0.45977 12.235121,2.12847 18.441567,1.46413 12.629075,-0.11516 25.293018,0.26916 37.900021,-0.20295 4.658471,-1.00284 9.480411,-1.26026 13.950297,-2.99847"
       id="path1565"
       inkscape:connector-curvature="0" />
    <path
       style="fill:none;stroke:#000000;stroke-width:0.26458332px;stroke-linecap:butt;stroke-linejoin:miter;stroke-opacity:1"
       d="m 44.233107,127.01658 c 13.497111,0 26.994222,0 40.491333,0 1.383532,-0.48148 2.69275,-1.19286 4.142676,-1.46998"
       id="path1567"
       inkscape:connector-curvature="0" />
    <path
       style="fill:none;stroke:#000000;stroke-width:0.26458332px;stroke-linecap:butt;stroke-linejoin:miter;stroke-opacity:1"
       d="m 67.218287,122.74027 c 1.979931,0.3057 3.016141,2.36396 3.340867,4.14267"
       id="path1569"
       inkscape:connector-curvature="0" />
    <path
       style="fill:none;stroke:#000000;stroke-width:0.26458332px;stroke-linecap:butt;stroke-linejoin:miter;stroke-opacity:1"
       d="m 56.527503,126.21477 c -2.821483,3.17403 -5.966851,6.82541 -5.746294,11.35895"
       id="path1571"
       inkscape:connector-curvature="0" />
    <path
       style="fill:none;stroke:#000000;stroke-width:0.26458332px;stroke-linecap:butt;stroke-linejoin:miter;stroke-opacity:1"
       d="m 66.683746,126.88294 c -0.07285,3.55672 -0.01508,7.25251 1.469983,10.55715"
       id="path1573"
       inkscape:connector-curvature="0" />
    <path
       style="fill:none;stroke:#000000;stroke-width:0.26458332px;stroke-linecap:butt;stroke-linejoin:miter;stroke-opacity:1"
       d="m 80.849032,126.48204 c 0.877806,4.54886 7.155475,7.03999 5.758561,12.21339 l -0.0078,0.22049 -0.0045,0.12779"
       id="path1575"
       inkscape:connector-curvature="0" />
    <path
       style="fill:none;stroke:#000000;stroke-width:0.26458332px;stroke-linecap:butt;stroke-linejoin:miter;stroke-opacity:1"
       d="m 94.479776,135.43557 c 3.882693,4.57213 7.379154,9.87101 7.904994,16.00568 0.19657,1.00496 0.41277,2.01209 0.78127,2.97045"
       id="path1577"
       inkscape:connector-curvature="0" />
    <path
       style="fill:none;stroke:#000000;stroke-width:0.26458332px;stroke-linecap:butt;stroke-linejoin:miter;stroke-opacity:1"
       d="m 79.111778,137.97463 c 1.319804,4.66044 4.065525,9.30644 2.870327,14.29832 0.02321,0.17838 0.04643,0.35676 0.06964,0.53514"
       id="path1579"
       inkscape:connector-curvature="0" />
    <path
       style="fill:none;stroke:#000000;stroke-width:0.26458332px;stroke-linecap:butt;stroke-linejoin:miter;stroke-opacity:1"
       d="m 59.066564,137.03919 c 1.149716,5.40034 1.028991,10.98579 1.844893,16.40796 0.09775,0.23243 0.195509,0.46486 0.293263,0.69729"
       id="path1581"
       inkscape:connector-curvature="0" />
    <path
       style="fill:none;stroke:#000000;stroke-width:0.26458332px;stroke-linecap:butt;stroke-linejoin:miter;stroke-opacity:1"
       d="m 39.288619,138.37553 c -2.609614,3.7278 -0.860746,9.10207 -3.875406,12.56183"
       id="path1583"
       inkscape:connector-curvature="0" />
    <path
       style="fill:none;stroke:#000000;stroke-width:0.26458332px;stroke-linecap:butt;stroke-linejoin:miter;stroke-opacity:1"
       d="m 26.860587,150.66993 c -1.360576,5.03412 -3.259291,10.21303 -2.27179,15.50163"
       id="path1585"
       inkscape:connector-curvature="0" />
    <path
       style="fill:none;stroke:#000000;stroke-width:0.26458332px;stroke-linecap:butt;stroke-linejoin:miter;stroke-opacity:1"
       d="m 48.643053,153.74353 c -0.20339,4.77534 1.970186,9.37328 1.316025,14.16097 0.06654,0.5324 0.481669,1.13907 1.089402,1.0734"
       id="path1587"
       inkscape:connector-curvature="0" />
    <path
       style="fill:none;stroke:#000000;stroke-width:0.26458332px;stroke-linecap:butt;stroke-linejoin:miter;stroke-opacity:1"
       d="m 73.098215,153.34263 c -0.520677,5.13541 1.032092,10.1574 1.322289,15.2542 0.345324,0.25071 0.684682,-0.28204 0.682234,-0.55438"
       id="path1589"
       inkscape:connector-curvature="0" />
    <path
       style="fill:none;stroke:#000000;stroke-width:0.26458332px;stroke-linecap:butt;stroke-linejoin:miter;stroke-opacity:1"
       d="m 88.466212,152.40718 c 2.697498,4.26848 2.891763,9.42083 4.000161,14.18963 0.09318,0.64038 0.832123,0.63816 0.944325,-0.0243"
       id="path1591"
       inkscape:connector-curvature="0" />
    <path
       style="fill:none;stroke:#000000;stroke-width:0.26458332px;stroke-linecap:butt;stroke-linejoin:miter;stroke-opacity:1"
       d="m 105.57146,151.20447 c 4.2281,2.97668 2.82285,8.66766 3.48699,13.06437 0.013,1.16877 0.002,2.33764 -0.0121,3.50634"
       id="path1593"
       inkscape:connector-curvature="0" />
    <ellipse
       ry="12.227581"
       rx="18.040693"
       cy="171.71741"
       cx="166.37527"
       id="ellipse1684"
       style="opacity:1;fill:#e3dedb;fill-opacity:1;fill-rule:nonzero;stroke:none;stroke-width:0.96390653;stroke-miterlimit:4;stroke-dasharray:none;stroke-opacity:1" />
    <path
       style="fill:#917c6f;stroke:none;stroke-width:0.26458332px;stroke-linecap:butt;stroke-linejoin:miter;stroke-opacity:1"
       d="m 157.15448,176.59507 c -8.15172,10.28988 -10.42351,32.20598 -10.42351,32.20598 l 41.02587,1.06908 c 0,0 -1.87088,-25.79151 -14.43255,-33.14142 -12.56167,-7.34991 -16.16981,-0.13364 -16.16981,-0.13364 z"
       id="path1702"
       inkscape:connector-curvature="0" />
    <ellipse
       style="opacity:1;fill:#ac9d93;fill-opacity:1;fill-rule:nonzero;stroke:none;stroke-width:0.69999999;stroke-miterlimit:4;stroke-dasharray:none;stroke-opacity:1"
       id="path1680"
       cx="166.37527"
       cy="171.71741"
       rx="13.49711"
       ry="8.619442" />
    <ellipse
       style="opacity:1;fill:#e3dbdb;fill-opacity:1;fill-rule:nonzero;stroke:none;stroke-width:0.82745641;stroke-miterlimit:4;stroke-dasharray:none;stroke-opacity:1"
       id="path1686"
       cx="166.50891"
       cy="172.85332"
       rx="9.2207985"
       ry="6.1471992" />
    <ellipse
       style="opacity:1;fill:#917c6f;fill-opacity:1;fill-rule:nonzero;stroke:none;stroke-width:0.69999999;stroke-miterlimit:4;stroke-dasharray:none;stroke-opacity:1"
       id="path1688"
       cx="148.66867"
       cy="187.55313"
       rx="10.757599"
       ry="3.4745038" />
    <ellipse
       ry="3.4745038"
       rx="10.757599"
       cy="49.735409"
       cx="259.90561"
       id="ellipse1690"
       style="opacity:1;fill:#917c6f;fill-opacity:1;fill-rule:nonzero;stroke:none;stroke-width:0.69999999;stroke-miterlimit:4;stroke-dasharray:none;stroke-opacity:1"
       transform="rotate(35.168956)" />
    <ellipse
       style="opacity:1;fill:#917c6f;fill-opacity:1;fill-rule:nonzero;stroke:none;stroke-width:0.69999999;stroke-miterlimit:4;stroke-dasharray:none;stroke-opacity:1"
       id="path1694"
       cx="176.39789"
       cy="214.41371"
       rx="5.6126599"
       ry="8.5526247" />
    <ellipse
       style="opacity:1;fill:#917c6f;fill-opacity:1;fill-rule:nonzero;stroke:none;stroke-width:0.69999999;stroke-miterlimit:4;stroke-dasharray:none;stroke-opacity:1"
       id="path1696"
       cx="158.35719"
       cy="213.41145"
       rx="5.0781207"
       ry="9.4212503" />
    <ellipse
       style="opacity:1;fill:#917c6f;fill-opacity:1;fill-rule:nonzero;stroke:none;stroke-width:0.69999999;stroke-miterlimit:4;stroke-dasharray:none;stroke-opacity:1"
       id="path1698"
       cx="155.81813"
       cy="220.5609"
       rx="6.8153729"
       ry="2.9399648" />
    <ellipse
       style="opacity:1;fill:#917c6f;fill-opacity:1;fill-rule:nonzero;stroke:none;stroke-width:0.69999999;stroke-miterlimit:4;stroke-dasharray:none;stroke-opacity:1"
       id="path1700"
       cx="179.67195"
       cy="221.29591"
       rx="7.0158248"
       ry="2.4722431" />
    <path
       style="fill:none;stroke:#000000;stroke-width:0.26458332px;stroke-linecap:butt;stroke-linejoin:miter;stroke-opacity:1"
       d="m 139.9156,161.36071 1.33634,57.19568"
       id="path1704"
       inkscape:connector-curvature="0" />
    <path
       style="fill:none;stroke:#000000;stroke-width:0.26458332px;stroke-linecap:butt;stroke-linejoin:miter;stroke-opacity:1"
       d="m 168.17935,172.18513 5.07812,-1.00226"
       id="path1708"
       inkscape:connector-curvature="0" />
    <path
       style="fill:none;stroke:#000000;stroke-width:0.26458332px;stroke-linecap:butt;stroke-linejoin:miter;stroke-opacity:1"
       d="m 163.83622,171.98468 -4.74404,-1.73726"
       id="path1710"
       inkscape:connector-curvature="0" />
    <path
       style="fill:none;stroke:#000000;stroke-width:0.26458332px;stroke-linecap:butt;stroke-linejoin:miter;stroke-opacity:1"
       d="m 162.96759,176.06054 c 0.29061,-0.33488 0.81376,-0.0999 1.13029,-0.38784 0.71411,-0.36976 1.53993,-0.40543 2.32546,-0.34227 0.8955,0.003 1.81455,-0.0729 2.68725,0.16452 0.35738,0.18401 0.79616,0.17123 1.13099,0.39506 0.3104,0.33391 0.7551,0.48053 1.1826,0.59423 0.16536,0.0667 0.32466,0.16453 0.42998,0.31169"
       id="path1712"
       inkscape:connector-curvature="0" />
    <rect
       style="opacity:1;fill:#6c5d53;fill-opacity:1;fill-rule:nonzero;stroke:none;stroke-width:0.69999999;stroke-miterlimit:4;stroke-dasharray:none;stroke-opacity:1"
       id="rect1728"
       width="10.016369"
       height="28.064732"
       x="160.4509"
       y="180.39435" />
    <rect
       style="opacity:1;fill:#6c5d53;fill-opacity:1;fill-rule:nonzero;stroke:none;stroke-width:0.69999999;stroke-miterlimit:4;stroke-dasharray:none;stroke-opacity:1"
       id="rect1730"
       width="41.312187"
       height="4.5717177"
       x="146.73096"
       y="208.80104" />
    <ellipse
       style="opacity:1;fill:#cccccc;fill-opacity:1;fill-rule:nonzero;stroke:none;stroke-width:0.69999999;stroke-miterlimit:4;stroke-dasharray:none;stroke-opacity:1"
       id="path1732"
       cx="50.24667"
       cy="228.04446"
       rx="19.510675"
       ry="4.8108511" />
    <ellipse
       style="opacity:1;fill:#cccccc;fill-opacity:1;fill-rule:nonzero;stroke:none;stroke-width:0.69999999;stroke-miterlimit:4;stroke-dasharray:none;stroke-opacity:1"
       id="path1734"
       cx="17.836609"
       cy="231.15889"
       rx="12.294398"
       ry="2.0045214"
       transform="rotate(-3.2391944)" />
    <ellipse
       transform="rotate(-11.821194)"
       ry="2.0045214"
       rx="12.294398"
       cy="236.50084"
       cx="-13.864489"
       id="ellipse1736"
       style="opacity:1;fill:#cccccc;fill-opacity:1;fill-rule:nonzero;stroke:none;stroke-width:0.69999999;stroke-miterlimit:4;stroke-dasharray:none;stroke-opacity:1" />
    <ellipse
       transform="rotate(32.745743)"
       ry="2.0045214"
       rx="12.294398"
       cy="162.64609"
       cx="182.77174"
       id="ellipse1738"
       style="opacity:1;fill:#cccccc;fill-opacity:1;fill-rule:nonzero;stroke:none;stroke-width:0.69999999;stroke-miterlimit:4;stroke-dasharray:none;stroke-opacity:1" />
    <ellipse
       style="opacity:1;fill:#cccccc;fill-opacity:1;fill-rule:nonzero;stroke:none;stroke-width:0.69999999;stroke-miterlimit:4;stroke-dasharray:none;stroke-opacity:1"
       id="ellipse1740"
       cx="-160.76314"
       cy="-182.30484"
       rx="12.294398"
       ry="2.0045214"
       transform="rotate(-155.79782)" />
    <ellipse
       style="opacity:1;fill:#cccccc;fill-opacity:1;fill-rule:nonzero;stroke:none;stroke-width:0.95674157;stroke-miterlimit:4;stroke-dasharray:none;stroke-opacity:1"
       id="ellipse1742"
       cx="2.1303306"
       cy="236.50497"
       rx="16.22477"
       ry="2.8374791"
       transform="matrix(0.92082259,-0.38998173,0.33072956,0.94372557,0,0)" />
    <g
       id="g223"
       transform="matrix(0.13248416,-0.28483305,0.3290264,0.12198826,-16.875533,209.29696)">
      <path
         inkscape:connector-curvature="0"
         id="path204"
         d="m 20.713388,135.03466 c 4.276313,-2.80633 4.276313,-5.87992 4.276313,-5.87992 l 2.939964,8.28535 c 0,0 -1.069078,2.40543 -7.750816,0.80181 -6.681738,-1.60362 0.133635,0 0.133635,0 z"
         style="fill:#d35f5f;stroke:#000000;stroke-width:0.26458332px;stroke-linecap:butt;stroke-linejoin:miter;stroke-opacity:1" />
      <path
         style="fill:#d35f5f;stroke:#000000;stroke-width:0.26458332px;stroke-linecap:butt;stroke-linejoin:miter;stroke-opacity:1"
         d="m 14.298919,153.84852 c 4.276313,2.80633 4.276313,5.87992 4.276313,5.87992 l 2.939964,-8.28535 c 0,0 -1.069078,-2.40543 -7.750816,-0.80181 -6.6817376,1.60362 0.133635,0 0.133635,0 z"
         id="path206"
         inkscape:connector-curvature="0" />
      <path
         inkscape:connector-curvature="0"
         id="path208"
         d="m 7.6858388,141.62417 c -6.6501194,3.88221 -9.7236575,10.18658 -9.7236575,10.18658 l 5.6425682,-18.28277 c 0,0 3.3663516,-4.46539 7.7687555,1.75193 4.402404,6.21733 -0.12012,-0.0586 -0.12012,-0.0586 z"
         style="fill:#d35f5f;stroke:#000000;stroke-width:0.39967999px;stroke-linecap:butt;stroke-linejoin:miter;stroke-opacity:1" />
      <path
         inkscape:connector-curvature="0"
         id="path202"
         d="M 17.764881,122.75298 C 1.1339286,134.47024 7.5595238,155.25893 9.0714284,160.55059 10.583333,165.84226 3.7797618,177.55952 3.7797618,177.55952 L 15.875,177.18154 9.4494047,162.0625 c 0,0 17.7648803,-21.16667 8.3154763,-39.30952 z"
         style="fill:#93aca7;stroke:#000000;stroke-width:0.26458332px;stroke-linecap:butt;stroke-linejoin:miter;stroke-opacity:1" />
      <ellipse
         ry="2.4722431"
         rx="2.6058779"
         cy="130.82516"
         cx="15.969354"
         id="path210"
         style="fill:#0000ff;stroke-width:0.26458332" />
      <ellipse
         ry="1.0523738"
         rx="1.2862346"
         cy="130.5746"
         cx="16.487188"
         id="path212"
         style="fill:#0b1728;stroke-width:0.26458332" />
      <ellipse
         transform="rotate(-40.241932)"
         ry="0.41760862"
         rx="1.0690781"
         cy="110.20085"
         cx="-73.307335"
         id="path214"
         style="fill:#d7d7f4;stroke-width:0.26458332" />
    </g>
    <path
       style="fill:#ffffff;stroke:none;stroke-width:0.40483627;stroke-linecap:butt;stroke-linejoin:miter;stroke-miterlimit:4;stroke-dasharray:none;stroke-opacity:1"
       d="m 31.807862,222.90681 c 1.5e-5,0.14481 -2.1e-5,0.2896 0,0.4344 0.05837,0.074 -0.0089,0.17446 0.05215,0.24767 -0.03161,0.0837 0.02098,0.19178 0.120979,0.21289 0.08274,0.0422 0.121593,0.13898 0.09326,0.21954 0.02569,0.12092 0.06349,0.23959 0.106408,0.35648 0.07946,0.0602 0.170554,-0.0397 0.170659,-0.11095 0.01897,-0.0936 0.0087,-0.19947 0.07896,-0.27824 0.0521,-0.0965 -0.0031,-0.219 0.0804,-0.3056 0.05439,-0.0727 0.06853,-0.16093 0.0631,-0.24641 0.0014,-0.0657 0.0086,-0.13855 0.06168,-0.18882 0.04053,-0.0653 -0.05018,-0.11775 -0.116262,-0.11067 -0.05911,0.0162 -0.121625,0.0147 -0.181082,-0.003 -0.08605,-0.0205 -0.154338,-0.0741 -0.209512,-0.13436 -0.06528,-0.0685 -0.165038,-0.11023 -0.266315,-0.0995 -0.09667,0.006 -0.180743,-0.0543 -0.243357,-0.11384"
       id="path2470"
       inkscape:connector-curvature="0" />
    <path
       inkscape:connector-curvature="0"
       id="path2490"
       d="m 34.719624,223.83522 c 1.5e-5,0.14481 -2.1e-5,0.2896 0,0.4344 0.05837,0.074 -0.0089,0.17446 0.05215,0.24767 -0.03161,0.0836 0.02098,0.19178 0.120979,0.21289 0.08274,0.0422 0.121593,0.13898 0.09326,0.21954 0.02569,0.12092 0.06349,0.23959 0.106408,0.35648 0.07946,0.0602 0.170554,-0.0397 0.170659,-0.11095 0.01897,-0.0936 0.0087,-0.19948 0.07896,-0.27824 0.0521,-0.0965 -0.0031,-0.21901 0.0804,-0.3056 0.05439,-0.0727 0.06853,-0.16093 0.0631,-0.24641 0.0014,-0.0657 0.0086,-0.13855 0.06168,-0.18883 0.04053,-0.0653 -0.05018,-0.11774 -0.116262,-0.11066 -0.05911,0.0162 -0.121625,0.0147 -0.181082,-0.003 -0.08605,-0.0205 -0.154338,-0.0741 -0.209512,-0.13436 -0.06528,-0.0685 -0.165038,-0.11023 -0.266315,-0.0995 -0.09667,0.006 -0.180743,-0.0543 -0.243357,-0.11384"
       style="fill:#ffffff;stroke:none;stroke-width:0.40483627;stroke-linecap:butt;stroke-linejoin:miter;stroke-miterlimit:4;stroke-dasharray:none;stroke-opacity:1" />
    <ellipse
       style="opacity:1;fill:#cccccc;fill-opacity:1;fill-rule:nonzero;stroke:none;stroke-width:0.69999999;stroke-miterlimit:4;stroke-dasharray:none;stroke-opacity:1"
       id="path1744"
       cx="37.350918"
       cy="220.5609"
       rx="6.0803819"
       ry="4.0090427" />
    <ellipse
       style="opacity:1;fill:#cccccc;fill-opacity:1;fill-rule:nonzero;stroke:none;stroke-width:0.69999999;stroke-miterlimit:4;stroke-dasharray:none;stroke-opacity:1"
       id="path1748"
       cx="35.342461"
       cy="221.90201"
       rx="4.2094951"
       ry="1.9377041" />
    <path
       style="fill:#cccccc;stroke:none;stroke-width:0.065;stroke-linecap:butt;stroke-linejoin:miter;stroke-miterlimit:4;stroke-dasharray:none;stroke-opacity:1"
       d="m 39.555889,217.48731 c 0.149169,-0.55552 0.76412,-0.79057 0.983434,-1.30485 0.29977,-0.38794 0.850658,-0.52967 1.050626,-1.00442 0.126662,-0.18446 0.504716,-0.21823 0.562775,0.0401 0.03207,0.35603 0.02826,0.73385 0.214821,1.05225 0.220446,0.47757 0.459674,0.97188 0.449774,1.51082 0.06488,0.7613 0.09103,1.52581 0.08123,2.28978 -0.08884,-0.27359 -0.41144,-0.41151 -0.447323,-0.70976 -0.193171,-0.57114 -0.701746,-0.94485 -0.98749,-1.46214 -0.199661,-0.3467 -0.621462,-0.42309 -0.972828,-0.5312 -0.183515,-0.0547 -0.37095,-0.11127 -0.533937,-0.21438"
       id="path1750"
       inkscape:connector-curvature="0" />
    <path
       inkscape:connector-curvature="0"
       id="path1779"
       d="m 38.223329,217.28686 c -0.149169,-0.55552 -0.76412,-0.79057 -0.983434,-1.30485 -0.29977,-0.38794 -0.850658,-0.52967 -1.050626,-1.00442 -0.126662,-0.18446 -0.504716,-0.21823 -0.562775,0.0401 -0.03207,0.35603 -0.02826,0.73385 -0.214821,1.05225 -0.220446,0.47757 -0.459674,0.97188 -0.449774,1.51082 -0.06488,0.7613 -0.09103,1.52581 -0.08123,2.28978 0.08884,-0.27359 0.41144,-0.41151 0.447323,-0.70976 0.193171,-0.57114 0.701746,-0.94485 0.98749,-1.46214 0.199661,-0.3467 0.621462,-0.42309 0.972828,-0.5312 0.183515,-0.0547 0.37095,-0.11127 0.533937,-0.21438"
       style="fill:#cccccc;stroke:none;stroke-width:0.065;stroke-linecap:butt;stroke-linejoin:miter;stroke-miterlimit:4;stroke-dasharray:none;stroke-opacity:1" />
    <ellipse
       style="opacity:1;fill:#f2f2f2;fill-opacity:1;fill-rule:nonzero;stroke:none;stroke-width:0.07502988;stroke-miterlimit:4;stroke-dasharray:none;stroke-opacity:1"
       id="path1781"
       cx="37.818638"
       cy="219.95956"
       rx="1.4365737"
       ry="1.1358955" />
    <ellipse
       style="opacity:1;fill:#000000;fill-opacity:1;fill-rule:nonzero;stroke:none;stroke-width:0.065;stroke-miterlimit:4;stroke-dasharray:none;stroke-opacity:1"
       id="path1783"
       cx="38.703968"
       cy="220.00966"
       rx="0.58465207"
       ry="0.61806077" />
    <ellipse
       ry="1.1358955"
       rx="1.4365737"
       cy="218.85707"
       cx="33.609142"
       id="ellipse1785"
       style="opacity:1;fill:#f2f2f2;fill-opacity:1;fill-rule:nonzero;stroke:none;stroke-width:0.07502988;stroke-miterlimit:4;stroke-dasharray:none;stroke-opacity:1" />
    <ellipse
       ry="0.61806077"
       rx="0.58465207"
       cy="218.90717"
       cx="34.494473"
       id="ellipse1787"
       style="opacity:1;fill:#000000;fill-opacity:1;fill-rule:nonzero;stroke:none;stroke-width:0.065;stroke-miterlimit:4;stroke-dasharray:none;stroke-opacity:1" />
    <path
       style="fill:#000000;stroke:#000000;stroke-width:0.26458332px;stroke-linecap:butt;stroke-linejoin:miter;stroke-opacity:1"
       d="m 33.358576,221.54647 c 0,0.039 -0.007,0.0786 0,0.11693 0.0044,0.0245 0.02416,0.0437 0.03341,0.0668 0.0021,0.005 -0.0013,0.0113 0,0.0167 0.0043,0.0171 0.01381,0.0327 0.01669,0.0501 0.0028,0.0165 0,0.0334 0,0.0501 0,0.006 -0.0021,0.0116 0,0.0167 0.01471,0.0343 0.0354,0.0659 0.05011,0.10023 0.0052,0.012 -0.0054,0.056 0,0.0668 0.01114,0.0167 0.02228,0.0334 0.03341,0.0501 0,0.0111 -0.0041,0.0231 0,0.0334 0.0075,0.0187 0.02442,0.0322 0.03341,0.0501 0.0024,0.005 0,0.0111 0,0.0167 0,0.0111 -0.0035,0.0228 0,0.0334 0.0024,0.007 0.02228,0.0111 0.0167,0.0167 -0.0056,0.006 -0.02458,-0.0167 -0.0167,-0.0167 0.01159,0 0.03295,0.0253 0.05011,0.0167 0.07672,-0.0384 0.04946,-0.0448 0.100227,-0.13364 0.0039,-0.007 0.01233,-0.0102 0.01669,-0.0167 0.0069,-0.0104 0.0079,-0.0246 0.0167,-0.0334 0.0088,-0.009 0.02305,-0.01 0.03341,-0.0167 0.0071,-0.005 0.04666,-0.0432 0.05011,-0.0501 0.06912,-0.13825 -0.05417,0.0569 0.05011,-0.11693 0.004,-0.007 0.01421,-0.009 0.0167,-0.0167 0.0035,-0.0105 -0.0035,-0.0228 0,-0.0334 5.29e-4,-0.001 0.0308,-0.0299 0.03341,-0.0334 0.01114,-0.0167 0.02228,-0.0334 0.03341,-0.0501 0,-0.006 -0.0024,-0.0117 0,-0.0167 0.0035,-0.007 0.01318,-0.01 0.0167,-0.0167 0.0024,-0.005 -0.0039,-0.0128 0,-0.0167 0.07802,-0.078 -0.01995,0.0884 0.08352,-0.0668 0.0031,-0.005 -0.01114,0 -0.01669,0 -0.03341,0 -0.06682,0 -0.100227,0 -0.01114,0 -0.02307,0.004 -0.03341,0 -0.15698,-0.0628 0.0667,-6e-5 -0.100227,-0.0835 -0.01495,-0.007 -0.03373,0.003 -0.05011,0 -0.0122,-0.002 -0.02228,-0.0111 -0.03341,-0.0167 -0.02784,-0.006 -0.05542,-0.0127 -0.08352,-0.0167 -0.01103,-0.002 -0.02228,0 -0.03341,0 -0.02784,0 -0.05568,0 -0.08352,0 -0.0167,0 -0.03341,0 -0.05011,0 -0.0056,0 -0.01193,-0.003 -0.0167,0 -0.02387,0.0143 -0.04454,0.0334 -0.06682,0.0501 z"
       id="path2468"
       inkscape:connector-curvature="0" />
  </g>
</svg>
