<?xml version="1.0" encoding="UTF-8" standalone="no"?>
<!-- Created with Inkscape (http://www.inkscape.org/) -->

<svg
   xmlns:dc="http://purl.org/dc/elements/1.1/"
   xmlns:cc="http://creativecommons.org/ns#"
   xmlns:rdf="http://www.w3.org/1999/02/22-rdf-syntax-ns#"
   xmlns:svg="http://www.w3.org/2000/svg"
   xmlns="http://www.w3.org/2000/svg"
   xmlns:sodipodi="http://sodipodi.sourceforge.net/DTD/sodipodi-0.dtd"
   xmlns:inkscape="http://www.inkscape.org/namespaces/inkscape"
   width="210mm"
   height="297mm"
   viewBox="0 0 210 297"
   version="1.1"
   id="svg2500"
   inkscape:version="0.92.4 (5da689c313, 2019-01-14)"
   sodipodi:docname="007.svg">
  <defs
     id="defs2494" />
  <sodipodi:namedview
     id="base"
     pagecolor="#ffffff"
     bordercolor="#666666"
     borderopacity="1.0"
     inkscape:pageopacity="0.0"
     inkscape:pageshadow="2"
     inkscape:zoom="0.98994949"
     inkscape:cx="331.09121"
     inkscape:cy="422.41637"
     inkscape:document-units="mm"
     inkscape:current-layer="layer1"
     showgrid="false"
     inkscape:window-width="1920"
     inkscape:window-height="1018"
     inkscape:window-x="-8"
     inkscape:window-y="-8"
     inkscape:window-maximized="1" />
  <metadata
     id="metadata2497">
    <rdf:RDF>
      <cc:Work
         rdf:about="">
        <dc:format>image/svg+xml</dc:format>
        <dc:type
           rdf:resource="http://purl.org/dc/dcmitype/StillImage" />
        <dc:title></dc:title>
      </cc:Work>
    </rdf:RDF>
  </metadata>
  <g
     inkscape:label="Layer 1"
     inkscape:groupmode="layer"
     id="layer1">
    <rect
       style="opacity:1;fill:#afdde9;fill-opacity:1;fill-rule:nonzero;stroke:none;stroke-width:0.26499999;stroke-miterlimit:4;stroke-dasharray:none;stroke-opacity:1"
       id="rect3045"
       width="210.91072"
       height="292.93155"
       x="-1.1339285"
       y="-1.2232144" />
    <path
       style="fill:#b3b3b3;stroke:#000000;stroke-width:0.26458332px;stroke-linecap:butt;stroke-linejoin:miter;stroke-opacity:1"
       d="M -10.205357,116.70535 25.324405,30.14881 43.845239,72.860119 72.193451,39.220237 125.48809,119.35119 163.66369,36.95238 176.51488,51.693452 220.36012,-1.6011906 252.48809,160.17262 v 139.09523 l -273.654756,-0.37798 z"
       id="path3047"
       inkscape:connector-curvature="0" />
    <path
       style="fill:#aade87;stroke:#000000;stroke-width:0.26458332px;stroke-linecap:butt;stroke-linejoin:miter;stroke-opacity:1"
       d="m -30.994048,169.99998 c 1.007938,-0.75595 2.015874,-1.51191 3.023811,-2.26786 0.125992,0 0.269939,0.0648 0.377976,0 1.168602,-0.70116 2.156432,-1.71437 3.401786,-2.26785 1.061474,-0.47177 2.284889,-0.43685 3.401785,-0.75596 0.652383,-0.18639 1.224569,-0.62289 1.889881,-0.75595 6.211093,-1.24222 1.514294,0.91061 8.315476,-1.88988 0.6793184,-0.27972 1.2430399,-0.78563 1.8898813,-1.13393 0.9922092,-0.53427 1.9903564,-1.06258 3.0238094,-1.51191 1.8666631,-0.81159 3.7797619,-1.5119 5.66964270000004,-2.26785 C 2.1436923,156.29131 7.65786,153.95691 10.205358,153.36903 c 1.736167,-0.40066 3.527777,-0.50397 5.291666,-0.75596 1.763889,-0.25198 3.514398,-0.629 5.291667,-0.75595 1.759406,-0.12567 3.532261,0.12567 5.291666,0 1.77727,-0.12695 3.527777,-0.50397 5.291667,-0.75595 3.527777,-0.50397 7.055556,-1.00794 10.583333,-1.5119 1.76389,-0.25199 3.514397,-0.62901 5.291667,-0.75596 1.759405,-0.12567 3.527777,0 5.291666,0 1.637898,0 3.275793,0 4.913691,0 9.071427,0 18.142857,0 27.214285,0 6.299604,0 12.599205,0 18.898804,0 1.00794,0 2.01588,0 3.02381,0 1.13393,0 2.2748,-0.12522 3.40179,0 1.15448,0.12828 2.256,0.56499 3.40179,0.75596 0.37283,0.0621 0.84356,-0.24198 1.13392,0 0.56438,0.47031 0.69314,1.30215 1.13393,1.88987 0.32073,0.42764 0.81321,0.7063 1.13393,1.13393 0.0756,0.1008 0,0.25199 0,0.37798 0,0.25198 0,0.50397 0,0.75595 0,1.00794 0,2.01588 0,3.02381 0,0.37798 -0.0917,0.76724 0,1.13393 0.0864,0.34572 0.59659,0.43721 0.75595,0.75595 0.0626,0.12511 0,2.60808 0,3.02381 0,2.14187 0,4.28373 0,6.4256 0,1.25992 0,2.51984 0,3.77976 0,0.67642 -0.0881,1.80178 0.37798,2.26786 0.54134,0.54134 2.63343,0.90342 3.40179,1.13392 0.76323,0.22898 1.48386,0.61341 2.26785,0.75596 0.86772,0.15776 1.76389,0 2.64584,0 3.0238,0 6.04761,0 9.07142,0 8.56747,0 17.13493,0 25.70238,0 14.23711,0 28.47421,0 42.71131,0 4.53572,0 9.07143,0 13.60715,0 1.38591,0 2.77182,0 4.15773,0 1.76389,0 3.53226,-0.12567 5.29167,0 1.77727,0.12695 3.5144,0.629 5.29167,0.75595 1.7594,0.12567 3.53226,-0.12567 5.29166,0 1.77727,0.12695 3.52778,0.50397 5.29167,0.75595 3.52778,0.50397 7.05556,1.00794 10.58333,1.51191 3.52778,0.50397 7.05317,1.02498 10.58333,1.5119 1.31127,0.18087 8.04545,0.97732 9.82739,1.51191 1.18854,0.35656 2.23742,1.08292 3.40178,1.5119 2.13145,1.08986 4.59155,1.08551 6.80357,1.88988 1.96085,0.71304 0.54652,0.49034 1.51191,1.13393 0.23442,0.15627 0.55674,0.17876 0.75594,0.37798 0.0891,0.0891 0,0.25198 0,0.37797 0,0.62996 0,1.25992 0,1.88988 0,1.97466 -0.0209,1.28105 -0.37796,3.77977 -0.033,0.23092 0.0859,0.96213 0,1.13392 -0.0797,0.15937 -0.25199,0.25199 -0.37798,0.37798 -0.37798,0.37798 -0.75594,0.75595 -1.13393,1.13393 -0.12599,0.12599 -0.32903,0.20665 -0.37798,0.37797 -0.21053,0.7369 0.003,1.60246 -0.37798,2.26786 -0.19767,0.34593 -0.77756,0.1998 -1.13393,0.37798 -1.13064,0.56533 0.0913,0.13031 -0.37795,0.75595 -0.32073,0.42763 -0.85892,0.67557 -1.13396,1.13393 -0.49366,0.82279 -0.74422,1.76901 -1.13392,2.64583 -0.38447,0.86509 -1.07281,1.94328 -1.51191,2.64584 -1.00163,1.60261 -2.42943,2.91515 -3.40177,4.53571 -0.40998,0.68329 -0.37439,1.56831 -0.75594,2.26786 -0.38632,0.70823 -1.01664,1.25307 -1.51191,1.88988 -0.38677,0.49726 -0.79574,0.98043 -1.13393,1.5119 -0.54536,0.85698 -0.9294,1.81368 -1.51191,2.64584 -0.30654,0.43791 -0.85891,0.67556 -1.13392,1.13392 -0.12965,0.21608 0.0611,0.5115 0,0.75596 -0.0683,0.27331 -0.2889,0.48868 -0.37798,0.75595 -0.0399,0.11953 0.0398,0.25845 0,0.37798 -0.0891,0.26726 -0.2889,0.48868 -0.37799,0.75595 -0.11951,0.35858 0.0917,0.76724 0,1.13393 -0.0683,0.27331 -0.28887,0.48868 -0.37798,0.75595 -0.0398,0.11952 0.0398,0.25845 0,0.37798 -0.0891,0.26726 -0.32271,0.47969 -0.37796,0.75595 -0.0741,0.37063 0.11951,0.77535 0,1.13393 -0.87069,2.61206 -0.70551,-0.30269 -1.13392,2.26785 -0.56698,3.40179 1.13392,-2.26785 0,3.40179 -0.11052,0.55251 -0.60116,0.97013 -0.75597,1.5119 -0.10382,0.36344 0,0.75596 0,1.13393 0,0.50397 0.0557,1.01102 0,1.51191 -0.0709,0.6385 -0.28713,1.2539 -0.37799,1.88988 -0.0356,0.24945 0,0.50397 0,0.75595 0,0.88195 0,1.76389 0,2.64583 0,2.01588 0,4.03175 0,6.04762 0,1.88988 0,3.77976 0,5.66965 0,0.62996 0,1.25991 0,1.88988 0,0.12599 -0.0563,0.26528 0,0.37797 0.20318,0.40632 0.55282,0.72762 0.75597,1.13393 0.0563,0.11269 -0.0398,0.25845 0,0.37798 0.0891,0.26727 0.28887,0.48868 0.37799,0.75595 0.0398,0.11953 -0.0246,0.25443 0,0.37798 0.10186,0.50939 0.29257,0.99949 0.37795,1.5119 0.0414,0.24856 -0.0611,0.51149 0,0.75595 0.0683,0.27332 0.2889,0.48869 0.37799,0.75596 0.0398,0.11952 0,0.25198 0,0.37797 0,0.37798 0,0.75595 0,1.13393 0,0.50397 -0.13846,1.02733 0,1.5119 0.1248,0.4368 0.6123,0.70297 0.75594,1.13393 0.11954,0.35858 -0.0417,0.75827 0,1.13393 0.0846,0.7617 0.26961,1.50919 0.37798,2.26785 0.0177,0.12473 -0.0563,0.2653 0,0.37799 0.20315,0.40632 0.63116,0.69712 0.75597,1.13392 0.13843,0.48458 -0.0502,1.01044 0,1.51191 0.0763,0.76258 0.30858,1.50463 0.37796,2.26785 0.057,0.62738 0,1.25992 0,1.88989 0,0.25199 -0.0692,0.51366 0,0.75594 0.61261,2.14418 0.84886,1.40626 1.13392,3.4018 0.0535,0.37418 -0.11951,0.77534 0,1.13393 0.14367,0.43095 0.63116,0.69712 0.75597,1.13392 0.13845,0.48459 0,1.00793 0,1.51191 0,0.37798 -0.16904,0.79584 0,1.13393 0.23905,0.4781 0.8132,0.7063 1.13392,1.13392 0.0756,0.10081 0,0.25199 0,0.37798 0,1.13393 0,2.26785 0,3.40178 0,1.6379 0,3.2758 0,4.91371 0,0.50395 0,1.00793 0,1.51188 0,0.25199 0.0611,0.51149 0,0.75597 -0.15256,0.61021 -0.37174,0.74969 -0.75594,1.13392 -0.12599,0.126 -0.28958,0.22328 -0.37798,0.37799 -0.41934,0.73382 -0.66511,1.56461 -1.13393,2.26784 -1.05291,1.57936 -1.21496,0.6885 -2.26787,2.26785 -0.22098,0.33153 -0.21614,0.76986 -0.37796,1.13393 -0.34327,0.77234 -0.66511,1.56464 -1.13392,2.26788 -1.19836,1.7975 -2.53283,1.41327 -4.53573,2.64583 -2.23281,1.37403 -4.16848,3.20196 -6.42559,4.5357 -0.55309,0.32684 -1.28042,0.17483 -1.88989,0.37798 -0.53454,0.17817 -0.98875,0.54668 -1.5119,0.75594 -0.11698,0.0468 -0.25199,0 -0.37798,0 -0.88194,0 -1.76388,0 -2.64583,0 -0.62996,0 -1.26178,-0.0483 -1.88988,0 -1.01279,0.0779 -2.01102,0.30009 -3.02381,0.37799 -0.62811,0.0483 -1.26545,-0.0833 -1.88988,0 -1.2736,0.16981 -2.51237,0.54472 -3.77976,0.75596 -3.51511,0.58584 -7.05556,1.00793 -10.58334,1.51189 -1.76388,0.25198 -3.51554,0.61388 -5.29166,0.75596 -1.3815,0.11052 -2.77871,-0.1379 -4.15774,0 -1.15583,0.11557 -2.2473,0.62767 -3.40179,0.75594 -1.37603,0.15291 -3.67723,0 -5.29166,0 -3.65377,0 -7.30754,0 -10.96131,0 -2.77183,0 -5.54365,0 -8.31548,0 -2.70061,0 -4.78944,0.0837 -7.55952,-0.37795 -0.786,-0.13102 -1.49481,-0.56269 -2.26786,-0.75597 -0.7435,-0.18587 -1.5211,-0.20563 -2.26786,-0.37798 -0.89374,-0.20625 -1.74339,-0.59188 -2.64583,-0.75595 -0.49584,-0.0901 -1.00794,0 -1.5119,0 -0.75596,0 -1.51191,0 -2.26786,0 -1.76389,0 -3.52778,0 -5.29167,0 -5.79563,0 -11.59127,0 -17.3869,0 -2.89782,0 -5.79564,0 -8.69346,0 -1.00793,0 -2.01761,0.0592 -3.02381,0 -1.13893,-0.067 -2.26284,-0.31099 -3.40178,-0.37798 -1.0062,-0.0592 -2.01587,0 -3.02381,0 -0.75595,0 -1.51854,0.0999 -2.26786,0 -1.1514,-0.15351 -2.27941,-0.45664 -3.40178,-0.75594 -0.76994,-0.20532 -1.47801,-0.65064 -2.26786,-0.75597 -1.12398,-0.14986 -2.26786,0 -3.40179,0 -1.00793,0 -2.01587,0 -3.02381,0 -3.1498,0 -6.2996,0 -9.4494,0 -1.5119,0 -3.02949,0.131 -4.53571,0 -1.40334,-0.12202 -2.754889,-0.62841 -4.157739,-0.75594 -1.380223,-0.12546 -2.771828,0 -4.15774,0 -1.511905,-0.25199 -3.015829,-0.55771 -4.535714,-0.75594 -2.731993,-0.83542 -5.560553,-0.0474 -8.315476,-0.37798 -1.791084,-0.21492 -3.498001,-0.94176 -5.291667,-1.13393 -1.753851,-0.18793 -3.527777,0 -5.291666,0 -1.76389,0 -3.527777,0 -5.291667,0 -9.977474,0 3.294224,0.0554 -13.607142,-0.37798 -1.763311,-0.0452 -3.52778,0 -5.291667,0 -1.385914,0 -2.777037,0.12007 -4.157739,0 -2.476995,-0.2154 -5.138849,-0.86638 -7.559524,-1.51191 -0.886264,-0.23633 -1.750439,-0.55697 -2.645833,-0.75594 -0.245984,-0.0547 -0.5065,0.0356 -0.755952,0 -0.635979,-0.0909 -1.249336,-0.32872 -1.889882,-0.37799 -1.004967,-0.0773 -2.015871,0 -3.023809,0 -2.897817,0 -5.795634,0 -8.693452,0 -1.007936,0 -2.015873,0 -3.023809,0 -0.755953,0 -1.524099,0.13523 -2.267857,0 -2.024904,-0.36816 -2.092352,-1.32659 -4.157738,-1.88989 -0.607763,-0.16573 -1.259921,0 -1.8898813,0 -1.0079365,0 -2.0208753,0.10031 -3.0238096,0 -0.2803287,-0.028 -0.5096788,-0.24114 -0.7559524,-0.37795 C 1.757882,306.33405 0.9708622,305.61417 3.9999998e-7,305.31546 -0.7225229,305.09313 -1.5145155,305.37826 -2.2678566,305.31546 c -4.7088488,-0.39241 0.3076678,-0.33065 -4.9136905,-1.13393 -0.7471619,-0.11496 -1.5344756,0.18333 -2.267857,0 -0.8199459,-0.205 -1.4443209,-0.9439 -2.2678569,-1.13392 -0.859359,-0.19833 -1.809148,0.27887 -2.645834,0 -0.430959,-0.14367 -0.361534,-0.90856 -0.755952,-1.13395 -0.557791,-0.31872 -1.315269,-0.0906 -1.889881,-0.37796 -0.251984,-0.126 -0.136397,-0.611 -0.377976,-0.75597 -0.445449,-0.26725 -1.060871,-0.12023 -1.511905,-0.37796 -0.46411,-0.26521 -0.689165,-0.83743 -1.133928,-1.13395 -0.331507,-0.221 -0.755953,-0.25196 -1.133929,-0.37795 -0.881944,-0.62998 -1.835773,-1.16983 -2.645833,-1.8899 -0.339526,-0.30181 -0.456813,-0.79205 -0.755952,-1.13392 -1.646109,-1.88127 -1.755336,-1.86701 -3.779763,-3.02382 -3.70613,-2.11778 -2.962932,-1.72151 -6.80357,-3.40177 -0.879079,-0.3846 -1.834566,-0.62156 -2.645834,-1.13393 -1.597874,-1.0092 -2.894838,-2.46414 -4.535715,-3.4018 -1.03778,-0.59301 -2.306732,-0.65484 -3.401785,-1.13392 -1.844601,-0.80701 -2.30597,-1.17203 -3.401785,-2.26785 -0.125991,-0.126 -0.271068,-0.23543 -0.377978,-0.37799 -0.27256,-0.3634 -0.58724,-0.71215 -0.755952,-1.13392 -0.09358,-0.23397 0,-0.50398 0,-0.75594 -0.125992,-0.37799 -0.199797,-0.77759 -0.377975,-1.13395 -0.203155,-0.4063 -0.612299,-0.70298 -0.755952,-1.13393 -0.24235,-0.72705 -0.116073,-1.5476 -0.377976,-2.26785 -0.314208,-0.86407 -1.656418,-2.39011 -1.889882,-3.40177 -0.256545,-1.1117 -0.290472,-2.26425 -0.377975,-3.4018 -0.03865,-0.50248 0.21119,-1.05432 0,-1.5119 -0.571098,-1.23738 -1.761723,-2.13645 -2.267858,-3.40179 -0.280754,-0.70189 0.05028,-1.51358 0,-2.26786 -0.07589,-1.13838 -0.302085,-2.2634 -0.377976,-3.40178 -0.05029,-0.75428 0.09376,-1.51775 0,-2.26786 -2.629487,-13.14743 0.259112,2.58044 -0.755954,-6.04762 -0.164587,-1.39898 -0.62842,-2.75489 -0.755951,-4.15774 -0.125474,-1.38022 0,-2.77182 0,-4.15774 0,-1.88988 0,-3.77976 0,-5.66964 0,-4.91369 0,-9.82738 0,-14.74107 0,-1.6379 0,-3.27579 0,-4.91369 0,-0.75595 -0.05386,-1.51382 0,-2.26786 0.07237,-1.0132 0.318328,-2.00978 0.377975,-3.02381 0.06659,-1.13197 -0.08697,-2.27119 0,-3.40178 0.121989,-1.58585 1.49737,-3.73616 1.889882,-4.91369 0.24235,-0.72705 0.227677,-1.51636 0.377976,-2.26786 0.227806,-1.13903 0.43684,-2.28489 0.755951,-3.40179 0.186397,-0.65238 0.541396,-1.24621 0.755955,-1.88988 1.399423,-4.19827 -1.056675,1.91581 1.133927,-3.77976 0.344451,-0.89557 0.847725,-1.72998 1.13393,-2.64583 0.346472,-1.10871 0.528146,-2.26275 0.755952,-3.40179 0.150299,-0.75149 0.102862,-1.55256 0.377976,-2.26785 0.364643,-0.94808 1.16477,-1.69121 1.511905,-2.64584 0.172226,-0.47362 -0.159369,-1.0338 0,-1.5119 0.232318,-0.69695 0.844535,-1.21463 1.133928,-1.88988 0.470839,-1.09863 0.819433,-2.24864 1.133927,-3.40179 0.0663,-0.2431 -0.120663,-0.53474 0,-0.75595 0.652587,-1.19641 1.65839,-2.18285 2.267858,-3.40179 0.287306,-0.57461 0.174821,-1.28041 0.377976,-1.88988 0.178181,-0.53454 0.594045,-0.97221 0.755954,-1.5119 0.220218,-0.73406 0.135625,-1.54081 0.377976,-2.26786 0.594201,-1.7826 0.536945,-0.61643 1.133927,-1.5119 0.156274,-0.23441 0.178766,-0.55675 0.377976,-0.75596 0.178181,-0.17818 0.626308,0.21608 0.755954,0 0.0096,-0.016 0.489577,-1.94568 1.133928,-2.26785 0.683008,-0.34151 1.349396,1.07952 1.889881,1.5119 2.667429,2.13394 0.783463,0.055 1.889882,2.26786 0.07968,0.15937 0.251984,0.25198 0.377976,0.37797 0.251984,0.25199 0.503968,0.50397 0.755951,0.75596 0.377976,0.37797 0.83742,0.68916 1.133928,1.13393 1.152472,0.26757 0.145658,1.04726 0.377978,1.5119 0.07968,0.15937 0.286303,0.22519 0.377976,0.37798 0.289893,0.48315 0.466058,1.02874 0.755952,1.5119 0.09167,0.15279 0.27914,0.22972 0.377976,0.37798 0.370771,0.55615 0.55106,1.2752 0.755951,1.88988 z"
       id="path3049"
       inkscape:connector-curvature="0" />
    <ellipse
       style="opacity:1;fill:#ffffff;fill-opacity:1;fill-rule:nonzero;stroke:none;stroke-width:0.26499999;stroke-miterlimit:4;stroke-dasharray:none;stroke-opacity:1"
       id="path3051"
       cx="49.979401"
       cy="195.1703"
       rx="23.786989"
       ry="9.8889723" />
    <ellipse
       style="opacity:1;fill:#ffffff;fill-opacity:1;fill-rule:nonzero;stroke:none;stroke-width:0.26499999;stroke-miterlimit:4;stroke-dasharray:none;stroke-opacity:1"
       id="path3059"
       cx="69.623711"
       cy="175.59282"
       rx="6.6817379"
       ry="17.84024" />
    <ellipse
       style="opacity:1;fill:#ffffff;fill-opacity:1;fill-rule:nonzero;stroke:none;stroke-width:0.26499999;stroke-miterlimit:4;stroke-dasharray:none;stroke-opacity:1"
       id="path3061"
       cx="73.499123"
       cy="154.61215"
       rx="8.6862593"
       ry="5.278573" />
    <g
       id="g3072">
      <ellipse
         ry="8.5526247"
         rx="3.4745038"
         cy="208.26651"
         cx="65.881943"
         id="path3063"
         style="opacity:1;fill:#ffffff;fill-opacity:1;fill-rule:nonzero;stroke:none;stroke-width:0.26499999;stroke-miterlimit:4;stroke-dasharray:none;stroke-opacity:1" />
      <ellipse
         ry="7.1815472"
         rx="3.4962797"
         cy="222.91667"
         cx="65.86235"
         id="path3065"
         style="opacity:1;fill:#ffffff;fill-opacity:1;fill-rule:nonzero;stroke:none;stroke-width:0.26499999;stroke-miterlimit:4;stroke-dasharray:none;stroke-opacity:1" />
      <ellipse
         ry="2.4568453"
         rx="3.4962797"
         cy="232.17709"
         cx="67.563248"
         id="path3067"
         style="opacity:1;fill:#ffffff;fill-opacity:1;fill-rule:nonzero;stroke:none;stroke-width:0.26499999;stroke-miterlimit:4;stroke-dasharray:none;stroke-opacity:1" />
    </g>
    <g
       id="g3080"
       transform="translate(-6.4255952,-10.016369)">
      <ellipse
         style="opacity:1;fill:#ffffff;fill-opacity:1;fill-rule:nonzero;stroke:none;stroke-width:0.26499999;stroke-miterlimit:4;stroke-dasharray:none;stroke-opacity:1"
         id="ellipse3074"
         cx="65.881943"
         cy="208.26651"
         rx="3.4745038"
         ry="8.5526247" />
      <ellipse
         style="opacity:1;fill:#ffffff;fill-opacity:1;fill-rule:nonzero;stroke:none;stroke-width:0.26499999;stroke-miterlimit:4;stroke-dasharray:none;stroke-opacity:1"
         id="ellipse3076"
         cx="65.86235"
         cy="222.91667"
         rx="3.4962797"
         ry="7.1815472" />
      <ellipse
         style="opacity:1;fill:#ffffff;fill-opacity:1;fill-rule:nonzero;stroke:none;stroke-width:0.26499999;stroke-miterlimit:4;stroke-dasharray:none;stroke-opacity:1"
         id="ellipse3078"
         cx="67.563248"
         cy="232.17709"
         rx="3.4962797"
         ry="2.4568453" />
    </g>
    <g
       transform="translate(-24.190476,0.18898815)"
       id="g3088">
      <ellipse
         ry="8.5526247"
         rx="3.4745038"
         cy="208.26651"
         cx="65.881943"
         id="ellipse3082"
         style="opacity:1;fill:#ffffff;fill-opacity:1;fill-rule:nonzero;stroke:none;stroke-width:0.26499999;stroke-miterlimit:4;stroke-dasharray:none;stroke-opacity:1" />
      <ellipse
         ry="7.1815472"
         rx="3.4962797"
         cy="222.91667"
         cx="65.86235"
         id="ellipse3084"
         style="opacity:1;fill:#ffffff;fill-opacity:1;fill-rule:nonzero;stroke:none;stroke-width:0.26499999;stroke-miterlimit:4;stroke-dasharray:none;stroke-opacity:1" />
      <ellipse
         ry="2.4568453"
         rx="3.4962797"
         cy="232.17709"
         cx="67.563248"
         id="ellipse3086"
         style="opacity:1;fill:#ffffff;fill-opacity:1;fill-rule:nonzero;stroke:none;stroke-width:0.26499999;stroke-miterlimit:4;stroke-dasharray:none;stroke-opacity:1" />
    </g>
    <g
       id="g3096"
       transform="translate(-33.639881,-8.8824404)">
      <ellipse
         style="opacity:1;fill:#ffffff;fill-opacity:1;fill-rule:nonzero;stroke:none;stroke-width:0.26499999;stroke-miterlimit:4;stroke-dasharray:none;stroke-opacity:1"
         id="ellipse3090"
         cx="65.881943"
         cy="208.26651"
         rx="3.4745038"
         ry="8.5526247" />
      <ellipse
         style="opacity:1;fill:#ffffff;fill-opacity:1;fill-rule:nonzero;stroke:none;stroke-width:0.26499999;stroke-miterlimit:4;stroke-dasharray:none;stroke-opacity:1"
         id="ellipse3092"
         cx="65.86235"
         cy="222.91667"
         rx="3.4962797"
         ry="7.1815472" />
      <ellipse
         style="opacity:1;fill:#ffffff;fill-opacity:1;fill-rule:nonzero;stroke:none;stroke-width:0.26499999;stroke-miterlimit:4;stroke-dasharray:none;stroke-opacity:1"
         id="ellipse3094"
         cx="67.563248"
         cy="232.17709"
         rx="3.4962797"
         ry="2.4568453" />
    </g>
    <path
       style="fill:#ffffff;stroke:none;stroke-width:0.26458332px;stroke-linecap:butt;stroke-linejoin:miter;stroke-opacity:1"
       d="m 68.020093,152.54082 c -0.133633,-0.0891 -0.280032,-0.16151 -0.400904,-0.26727 -0.06043,-0.0529 -0.09232,-0.13159 -0.133634,-0.20045 -0.09239,-0.15398 -0.170169,-0.31668 -0.267268,-0.46773 -0.111363,-0.1559 -0.222727,-0.31181 -0.33409,-0.46772 -0.02228,-0.0668 -0.03187,-0.1393 -0.06682,-0.20045 -0.05525,-0.0967 -0.135726,-0.17665 -0.200454,-0.26727 -0.04668,-0.0653 -0.07685,-0.14367 -0.133633,-0.20045 -0.05679,-0.0568 -0.13876,-0.0822 -0.200453,-0.13363 -0.07259,-0.0605 -0.126664,-0.14143 -0.200451,-0.20046 -0.03889,-0.0311 -0.102524,-0.0279 -0.133636,-0.0668 -0.503968,-0.62996 0.137456,0.0392 -0.200451,-0.46772 -0.05242,-0.0786 -0.158194,-0.11593 -0.200454,-0.20045 -0.02988,-0.0598 0,-0.13363 0,-0.20045 0,-0.0891 0.03509,-0.18538 0,-0.26727 0.0092,-0.15989 -0.210923,-0.15458 -0.267268,-0.26727 -0.0099,-0.0199 0.007,-0.0457 0,-0.0668 -0.01574,-0.0472 -0.05107,-0.0864 -0.06682,-0.13363 -0.007,-0.0211 0.01236,-0.0483 0,-0.0668 -0.03494,-0.0524 -0.08909,-0.0891 -0.133633,-0.13363 -0.02228,-0.0223 -0.05273,-0.0386 -0.06682,-0.0668 -0.203732,-0.0473 -0.02574,-0.18513 -0.06682,-0.26727 -0.01408,-0.0282 -0.05918,-0.0363 -0.06682,-0.0668 -0.01622,-0.0648 0,-0.13363 0,-0.20045 0,-0.0446 0.01654,-0.0923 0,-0.13364 -0.131929,-0.32982 -0.144002,-0.0622 -0.200451,-0.4009 -0.01466,-0.0879 0.01746,-0.17991 0,-0.26727 -0.01802,-0.0901 -0.05172,-0.17669 -0.06682,-0.26727 -0.0067,-0.0405 0.0076,-0.25706 0,-0.26727 -0.04818,-0.0642 -0.143669,-0.0768 -0.200454,-0.13363 -0.01574,-0.0157 0,-0.0446 0,-0.0668 0,-0.20045 0,-0.40091 0,-0.60136 0,-0.22272 0,-0.44545 0,-0.66817 0,-0.0223 0,-0.0445 0,-0.0668 0,-0.0223 0.0099,-0.0469 0,-0.0668 -0.01407,-0.0282 -0.05273,-0.095 -0.06681,-0.0668 -0.05418,0.10835 0.03598,0.30838 0.06681,0.4009 0.04455,0.13364 0.08909,0.26727 0.133636,0.40091 0.02228,0.0668 0.03532,0.13745 0.06682,0.20045 0.03591,0.0718 0.108241,0.12427 0.133633,0.20045 0.04284,0.12853 0.02397,0.27238 0.06682,0.4009 0.105042,0.31513 0.09492,0.10898 0.200454,0.26727 0.02763,0.0414 0.04454,0.0891 0.06682,0.13364 0.02228,0.0445 0.05705,0.0848 0.06682,0.13363 0.0131,0.0655 -0.02482,0.13842 0,0.20046 0.02339,0.0585 0.08909,0.0891 0.133636,0.13363 0.02228,0.0223 0.05686,0.0369 0.06682,0.0668 0.152898,0.45869 -0.255841,-0.31123 0.06682,0.33408 0.03591,0.0718 0.09772,0.12863 0.133633,0.20046 0.07667,0.15333 -0.288779,0.0259 0.133636,0.26727 0.0986,0.0563 0.226346,0.0309 0.334087,0.0668 0.02988,0.01 0.04454,0.0445 0.06682,0.0668 0.02228,0.0223 0.04935,0.0406 0.06682,0.0668 0.05525,0.0829 0.07141,0.18949 0.133633,0.26727 0.05903,0.0738 0.126664,0.14142 0.200453,0.20045 0.411419,0.32914 -0.30463,-0.43826 0.400902,0.26727 0.02653,0.0265 0.250696,0.38985 0.267272,0.4009 0.07641,0.0509 0.187536,0.0212 0.267269,0.0668 0.456258,0.45626 -0.04152,0.053 0.400904,0.20045 0.315122,0.10504 0.108971,0.0949 0.267269,0.20046 0.04144,0.0276 0.0874,0.0483 0.133636,0.0668 0.06539,0.0262 0.132122,0.0497 0.200451,0.0668 0.04454,0.0111 0.178181,-0.0223 0.200453,0 0.0498,0.0498 0.0064,0.16421 0.06682,0.20045 0.0764,0.0458 0.179075,-0.0126 0.267271,0 0.699556,0.0999 -0.150558,-0.008 0.267269,0.20046 0.05976,0.0299 0.134932,-0.0131 0.200451,0 0.04884,0.01 0.0848,0.0571 0.133636,0.0668 0.06552,0.0131 0.133635,0 0.200451,0 0.02228,0 0.0469,-0.01 0.06682,0 0.02817,0.0141 0.03693,0.0569 0.06682,0.0668 0.04226,0.0141 0.08909,0 0.133636,0 0.02228,0 0.0469,-0.01 0.06682,0 0.02817,0.0141 0.03864,0.0527 0.06681,0.0668 0.01992,0.01 0.0469,-0.01 0.06682,0 0.07183,0.0359 0.123238,0.11157 0.200454,0.13363 0.08566,0.0245 0.179909,-0.0175 0.267269,0 0.03088,0.006 0.03626,0.0592 0.06682,0.0668 0.06482,0.0162 0.140686,-0.0299 0.20045,0 0.04455,0.0223 0.0316,0.0984 0.06682,0.13363 0.0315,0.0315 0.09657,-0.0247 0.133636,0 0.05241,0.0349 0.08122,0.0987 0.133633,0.13364 0.01852,0.0124 0.04569,-0.007 0.06682,0 0.04725,0.0157 0.08639,0.0511 0.133636,0.0668 0.02114,0.007 0.04569,-0.007 0.06682,0 0.260218,0.0867 0.0062,0.0668 0.267272,0.0668 0.02228,0 -0.04455,0 -0.06682,0 -0.08909,0 -0.178181,0 -0.267269,0 -0.178181,0 -0.35636,0 -0.534541,0 -0.111363,0 -0.224239,-0.0183 -0.334086,0 -0.06948,0.0116 -0.131387,0.053 -0.200451,0.0668 -0.108678,0.0218 -0.462701,-0.0287 -0.534541,0 -0.05849,0.0234 -0.08122,0.0987 -0.133635,0.13364 -0.01852,0.0123 -0.049,-0.0134 -0.06682,0 -0.0756,0.0567 -0.133635,0.13363 -0.200453,0.20045 -0.06682,0.0668 -0.133633,0.13363 -0.200451,0.20045 -0.04454,0.0445 -0.07962,0.10122 -0.133636,0.13363 -0.06039,0.0362 -0.133633,0.0446 -0.200451,0.0668 -0.06682,0.0668 -0.124857,0.14376 -0.200453,0.20045 -0.0066,0.005 -0.32893,0 -0.334087,0 -0.156697,0 0.0315,-0.0157 -0.133633,0.0668 -0.01992,0.01 -0.06682,0.0223 -0.06682,0 0,-0.0223 0.04454,0 0.06682,0"
       id="path3098"
       inkscape:connector-curvature="0" />
    <path
       inkscape:connector-curvature="0"
       id="path3100"
       d="m 64.612407,153.47626 c -0.133633,-0.0891 -0.280032,-0.16151 -0.400904,-0.26727 -0.06043,-0.0529 -0.09232,-0.13159 -0.133634,-0.20045 -0.09239,-0.15398 -0.170169,-0.31668 -0.267268,-0.46773 -0.111363,-0.1559 -0.222727,-0.31181 -0.33409,-0.46772 -0.02228,-0.0668 -0.03187,-0.1393 -0.06682,-0.20045 -0.05525,-0.0967 -0.135726,-0.17665 -0.200454,-0.26727 -0.04668,-0.0653 -0.07685,-0.14367 -0.133633,-0.20045 -0.05679,-0.0568 -0.13876,-0.0822 -0.200453,-0.13363 -0.07259,-0.0605 -0.126664,-0.14143 -0.200451,-0.20046 -0.03889,-0.0311 -0.102524,-0.0279 -0.133636,-0.0668 -0.503968,-0.62996 0.137456,0.0392 -0.200451,-0.46772 -0.05242,-0.0786 -0.158194,-0.11593 -0.200454,-0.20045 -0.02988,-0.0598 0,-0.13363 0,-0.20045 0,-0.0891 0.03509,-0.18538 0,-0.26727 0.0092,-0.15989 -0.210923,-0.15458 -0.267268,-0.26727 -0.0099,-0.0199 0.007,-0.0457 0,-0.0668 -0.01574,-0.0472 -0.05107,-0.0864 -0.06682,-0.13363 -0.007,-0.0211 0.01236,-0.0483 0,-0.0668 -0.03494,-0.0524 -0.08909,-0.0891 -0.133633,-0.13363 -0.02228,-0.0223 -0.05273,-0.0386 -0.06682,-0.0668 -0.203732,-0.0473 -0.02574,-0.18513 -0.06682,-0.26727 -0.01408,-0.0282 -0.05918,-0.0363 -0.06682,-0.0668 -0.01622,-0.0648 0,-0.13363 0,-0.20045 0,-0.0446 0.01654,-0.0923 0,-0.13364 -0.131929,-0.32982 -0.144002,-0.0622 -0.200451,-0.4009 -0.01466,-0.0879 0.01746,-0.17991 0,-0.26727 -0.01802,-0.0901 -0.05172,-0.17669 -0.06682,-0.26727 -0.0067,-0.0405 0.0076,-0.25706 0,-0.26727 -0.04818,-0.0642 -0.143669,-0.0768 -0.200454,-0.13363 -0.01574,-0.0157 0,-0.0446 0,-0.0668 0,-0.20045 0,-0.40091 0,-0.60136 0,-0.22272 0,-0.44545 0,-0.66817 0,-0.0223 0,-0.0445 0,-0.0668 0,-0.0223 0.0099,-0.0469 0,-0.0668 -0.01407,-0.0282 -0.05273,-0.095 -0.06681,-0.0668 -0.05418,0.10835 0.03598,0.30838 0.06681,0.4009 0.04455,0.13364 0.08909,0.26727 0.133636,0.40091 0.02228,0.0668 0.03532,0.13745 0.06682,0.20045 0.03591,0.0718 0.108241,0.12427 0.133633,0.20045 0.04284,0.12853 0.02397,0.27238 0.06682,0.4009 0.105042,0.31513 0.09492,0.10898 0.200454,0.26727 0.02763,0.0414 0.04454,0.0891 0.06682,0.13364 0.02228,0.0445 0.05705,0.0848 0.06682,0.13363 0.0131,0.0655 -0.02482,0.13842 0,0.20046 0.02339,0.0585 0.08909,0.0891 0.133636,0.13363 0.02228,0.0223 0.05686,0.0369 0.06682,0.0668 0.152898,0.45869 -0.255841,-0.31123 0.06682,0.33408 0.03591,0.0718 0.09772,0.12863 0.133633,0.20046 0.07667,0.15333 -0.288779,0.0259 0.133636,0.26727 0.0986,0.0563 0.226346,0.0309 0.334087,0.0668 0.02988,0.01 0.04454,0.0445 0.06682,0.0668 0.02228,0.0223 0.04935,0.0406 0.06682,0.0668 0.05525,0.0829 0.07141,0.18949 0.133633,0.26727 0.05903,0.0738 0.126664,0.14142 0.200453,0.20045 0.411419,0.32914 -0.30463,-0.43826 0.400902,0.26727 0.02653,0.0265 0.250696,0.38985 0.267272,0.4009 0.07641,0.0509 0.187536,0.0212 0.267269,0.0668 0.456258,0.45626 -0.04152,0.053 0.400904,0.20045 0.315122,0.10504 0.108971,0.0949 0.267269,0.20046 0.04144,0.0276 0.0874,0.0483 0.133636,0.0668 0.06539,0.0262 0.132122,0.0497 0.200451,0.0668 0.04454,0.0111 0.178181,-0.0223 0.200453,0 0.0498,0.0498 0.0064,0.16421 0.06682,0.20045 0.0764,0.0458 0.179075,-0.0126 0.267271,0 0.699556,0.0999 -0.150558,-0.008 0.267269,0.20046 0.05976,0.0299 0.134932,-0.0131 0.200451,0 0.04884,0.01 0.0848,0.0571 0.133636,0.0668 0.06552,0.0131 0.133635,0 0.200451,0 0.02228,0 0.0469,-0.01 0.06682,0 0.02817,0.0141 0.03693,0.0569 0.06682,0.0668 0.04226,0.0141 0.08909,0 0.133636,0 0.02228,0 0.0469,-0.01 0.06682,0 0.02817,0.0141 0.03864,0.0527 0.06681,0.0668 0.01992,0.01 0.0469,-0.01 0.06682,0 0.07183,0.0359 0.123238,0.11157 0.200454,0.13363 0.08566,0.0245 0.179909,-0.0175 0.267269,0 0.03088,0.006 0.03626,0.0592 0.06682,0.0668 0.06482,0.0162 0.140686,-0.0299 0.20045,0 0.04455,0.0223 0.0316,0.0984 0.06682,0.13363 0.0315,0.0315 0.09657,-0.0247 0.133636,0 0.05241,0.0349 0.08122,0.0987 0.133633,0.13364 0.01852,0.0124 0.04569,-0.007 0.06682,0 0.04725,0.0157 0.08639,0.0511 0.133636,0.0668 0.02114,0.007 0.04569,-0.007 0.06682,0 0.260218,0.0867 0.0062,0.0668 0.267272,0.0668 0.02228,0 -0.04455,0 -0.06682,0 -0.08909,0 -0.178181,0 -0.267269,0 -0.178181,0 -0.35636,0 -0.534541,0 -0.111363,0 -0.224239,-0.0183 -0.334086,0 -0.06948,0.0116 -0.131387,0.053 -0.200451,0.0668 -0.108678,0.0218 -0.462701,-0.0287 -0.534541,0 -0.05849,0.0234 -0.08122,0.0987 -0.133635,0.13364 -0.01852,0.0123 -0.049,-0.0134 -0.06682,0 -0.0756,0.0567 -0.133635,0.13363 -0.200453,0.20045 -0.06682,0.0668 -0.133633,0.13363 -0.200451,0.20045 -0.04454,0.0445 -0.07962,0.10122 -0.133636,0.13363 -0.06039,0.0362 -0.133633,0.0446 -0.200451,0.0668 -0.06682,0.0668 -0.124857,0.14376 -0.200453,0.20045 -0.0066,0.005 -0.32893,0 -0.334087,0 -0.156697,0 0.0315,-0.0157 -0.133633,0.0668 -0.01992,0.01 -0.06682,0.0223 -0.06682,0 0,-0.0223 0.04454,0 0.06682,0"
       style="fill:#ffffff;stroke:none;stroke-width:0.26458332px;stroke-linecap:butt;stroke-linejoin:miter;stroke-opacity:1" />
    <g
       transform="translate(-96.529496,-19.823741)"
       id="g4472">
      <ellipse
         ry="3.4076865"
         rx="3.9088168"
         cy="173.43364"
         cx="169.22681"
         id="path986-9"
         style="opacity:1;fill:#e580ff;fill-opacity:1;fill-rule:nonzero;stroke:#999999;stroke-width:0;stroke-miterlimit:4;stroke-dasharray:none;stroke-opacity:1" />
      <ellipse
         ry="1.353052"
         rx="1.5535041"
         cy="173.11626"
         cx="170.91396"
         id="path988"
         style="opacity:1;fill:#221c24;fill-opacity:1;fill-rule:nonzero;stroke:#999999;stroke-width:0;stroke-miterlimit:4;stroke-dasharray:none;stroke-opacity:1" />
      <ellipse
         transform="rotate(27.37585)"
         ry="0.83521724"
         rx="1.9544084"
         cy="74.860565"
         cx="228.82486"
         id="path990"
         style="opacity:1;fill:#ffffff;fill-opacity:1;fill-rule:nonzero;stroke:#999999;stroke-width:0;stroke-miterlimit:4;stroke-dasharray:none;stroke-opacity:1" />
    </g>
    <ellipse
       style="opacity:1;fill:#71c837;fill-opacity:1;fill-rule:nonzero;stroke:none;stroke-width:0.26499999;stroke-miterlimit:4;stroke-dasharray:none;stroke-opacity:1"
       id="path4498"
       cx="175.99698"
       cy="244.88243"
       rx="39.422253"
       ry="39.555889" />
    <g
       id="g4540"
       transform="matrix(1.1323319,0.58246417,-0.56054475,1.1766103,251.10027,-126.05083)">
      <ellipse
         style="opacity:1;fill:#ffffff;fill-opacity:1;fill-rule:nonzero;stroke:#999999;stroke-width:0.26499999;stroke-miterlimit:4;stroke-dasharray:none;stroke-opacity:1"
         id="ellipse4530"
         cx="81.312126"
         cy="260.24182"
         rx="3.2600446"
         ry="1.7008928" />
      <ellipse
         style="opacity:1;fill:#ffffff;fill-opacity:1;fill-rule:nonzero;stroke:#999999;stroke-width:0.26499999;stroke-miterlimit:4;stroke-dasharray:none;stroke-opacity:1"
         id="ellipse4518"
         cx="78.288315"
         cy="261.28125"
         rx="3.2600446"
         ry="1.7008928" />
      <ellipse
         ry="1.7008928"
         rx="3.2600446"
         cy="261.09225"
         cx="85.469864"
         id="ellipse4528"
         style="opacity:1;fill:#ffffff;fill-opacity:1;fill-rule:nonzero;stroke:#999999;stroke-width:0.26499999;stroke-miterlimit:4;stroke-dasharray:none;stroke-opacity:1" />
      <ellipse
         ry="2.1733632"
         rx="3.96875"
         cy="263.45459"
         cx="83.060265"
         id="path4514"
         style="opacity:1;fill:#ffff00;fill-opacity:1;fill-rule:nonzero;stroke:none;stroke-width:0.26499999;stroke-miterlimit:4;stroke-dasharray:none;stroke-opacity:1" />
      <ellipse
         ry="1.7008928"
         rx="3.2600446"
         cy="263.83258"
         cx="76.965401"
         id="ellipse4520"
         style="opacity:1;fill:#ffffff;fill-opacity:1;fill-rule:nonzero;stroke:#999999;stroke-width:0.26499999;stroke-miterlimit:4;stroke-dasharray:none;stroke-opacity:1" />
      <ellipse
         style="opacity:1;fill:#ffffff;fill-opacity:1;fill-rule:nonzero;stroke:#999999;stroke-width:0.26499999;stroke-miterlimit:4;stroke-dasharray:none;stroke-opacity:1"
         id="ellipse4522"
         cx="80.367188"
         cy="264.87201"
         rx="3.2600446"
         ry="1.7008928" />
      <ellipse
         style="opacity:1;fill:#ffffff;fill-opacity:1;fill-rule:nonzero;stroke:#999999;stroke-width:0.26499999;stroke-miterlimit:4;stroke-dasharray:none;stroke-opacity:1"
         id="ellipse4526"
         cx="87.454239"
         cy="262.69864"
         rx="3.2600446"
         ry="1.7008928" />
      <ellipse
         ry="1.7008928"
         rx="3.2600446"
         cy="265.15549"
         cx="85.469864"
         id="ellipse4524"
         style="opacity:1;fill:#ffffff;fill-opacity:1;fill-rule:nonzero;stroke:#999999;stroke-width:0.26499999;stroke-miterlimit:4;stroke-dasharray:none;stroke-opacity:1" />
    </g>
    <g
       id="g4558"
       transform="translate(97.553379,-47.039436)">
      <ellipse
         ry="1.7008928"
         rx="3.2600446"
         cy="260.24182"
         cx="81.312126"
         id="ellipse4542"
         style="opacity:1;fill:#ffffff;fill-opacity:1;fill-rule:nonzero;stroke:#999999;stroke-width:0.26499999;stroke-miterlimit:4;stroke-dasharray:none;stroke-opacity:1" />
      <ellipse
         ry="1.7008928"
         rx="3.2600446"
         cy="261.28125"
         cx="78.288315"
         id="ellipse4544"
         style="opacity:1;fill:#ffffff;fill-opacity:1;fill-rule:nonzero;stroke:#999999;stroke-width:0.26499999;stroke-miterlimit:4;stroke-dasharray:none;stroke-opacity:1" />
      <ellipse
         style="opacity:1;fill:#ffffff;fill-opacity:1;fill-rule:nonzero;stroke:#999999;stroke-width:0.26499999;stroke-miterlimit:4;stroke-dasharray:none;stroke-opacity:1"
         id="ellipse4546"
         cx="85.469864"
         cy="261.09225"
         rx="3.2600446"
         ry="1.7008928" />
      <ellipse
         style="opacity:1;fill:#ffff00;fill-opacity:1;fill-rule:nonzero;stroke:none;stroke-width:0.26499999;stroke-miterlimit:4;stroke-dasharray:none;stroke-opacity:1"
         id="ellipse4548"
         cx="83.060265"
         cy="263.45459"
         rx="3.96875"
         ry="2.1733632" />
      <ellipse
         style="opacity:1;fill:#ffffff;fill-opacity:1;fill-rule:nonzero;stroke:#999999;stroke-width:0.26499999;stroke-miterlimit:4;stroke-dasharray:none;stroke-opacity:1"
         id="ellipse4550"
         cx="76.965401"
         cy="263.83258"
         rx="3.2600446"
         ry="1.7008928" />
      <ellipse
         ry="1.7008928"
         rx="3.2600446"
         cy="264.87201"
         cx="80.367188"
         id="ellipse4552"
         style="opacity:1;fill:#ffffff;fill-opacity:1;fill-rule:nonzero;stroke:#999999;stroke-width:0.26499999;stroke-miterlimit:4;stroke-dasharray:none;stroke-opacity:1" />
      <ellipse
         ry="1.7008928"
         rx="3.2600446"
         cy="262.69864"
         cx="87.454239"
         id="ellipse4554"
         style="opacity:1;fill:#ffffff;fill-opacity:1;fill-rule:nonzero;stroke:#999999;stroke-width:0.26499999;stroke-miterlimit:4;stroke-dasharray:none;stroke-opacity:1" />
      <ellipse
         style="opacity:1;fill:#ffffff;fill-opacity:1;fill-rule:nonzero;stroke:#999999;stroke-width:0.26499999;stroke-miterlimit:4;stroke-dasharray:none;stroke-opacity:1"
         id="ellipse4556"
         cx="85.469864"
         cy="265.15549"
         rx="3.2600446"
         ry="1.7008928" />
    </g>
    <g
       transform="matrix(0.67832065,-0.48667247,0.68315307,0.48322989,-78.979469,135.2646)"
       id="g4576"
       inkscape:transform-center-x="-1.5438227"
       inkscape:transform-center-y="0.91650343">
      <ellipse
         style="opacity:1;fill:#ffffff;fill-opacity:1;fill-rule:nonzero;stroke:#999999;stroke-width:0.26499999;stroke-miterlimit:4;stroke-dasharray:none;stroke-opacity:1"
         id="ellipse4560"
         cx="81.312126"
         cy="260.24182"
         rx="3.2600446"
         ry="1.7008928" />
      <ellipse
         style="opacity:1;fill:#ffffff;fill-opacity:1;fill-rule:nonzero;stroke:#999999;stroke-width:0.26499999;stroke-miterlimit:4;stroke-dasharray:none;stroke-opacity:1"
         id="ellipse4562"
         cx="78.288315"
         cy="261.28125"
         rx="3.2600446"
         ry="1.7008928" />
      <ellipse
         ry="1.7008928"
         rx="3.2600446"
         cy="261.09225"
         cx="85.469864"
         id="ellipse4564"
         style="opacity:1;fill:#ffffff;fill-opacity:1;fill-rule:nonzero;stroke:#999999;stroke-width:0.26499999;stroke-miterlimit:4;stroke-dasharray:none;stroke-opacity:1" />
      <ellipse
         ry="2.1733632"
         rx="3.96875"
         cy="263.45459"
         cx="83.060265"
         id="ellipse4566"
         style="opacity:1;fill:#ffff00;fill-opacity:1;fill-rule:nonzero;stroke:none;stroke-width:0.26499999;stroke-miterlimit:4;stroke-dasharray:none;stroke-opacity:1" />
      <ellipse
         ry="1.7008928"
         rx="3.2600446"
         cy="263.83258"
         cx="76.965401"
         id="ellipse4568"
         style="opacity:1;fill:#ffffff;fill-opacity:1;fill-rule:nonzero;stroke:#999999;stroke-width:0.26499999;stroke-miterlimit:4;stroke-dasharray:none;stroke-opacity:1" />
      <ellipse
         style="opacity:1;fill:#ffffff;fill-opacity:1;fill-rule:nonzero;stroke:#999999;stroke-width:0.26499999;stroke-miterlimit:4;stroke-dasharray:none;stroke-opacity:1"
         id="ellipse4570"
         cx="80.367188"
         cy="264.87201"
         rx="3.2600446"
         ry="1.7008928" />
      <ellipse
         style="opacity:1;fill:#ffffff;fill-opacity:1;fill-rule:nonzero;stroke:#999999;stroke-width:0.26499999;stroke-miterlimit:4;stroke-dasharray:none;stroke-opacity:1"
         id="ellipse4572"
         cx="87.454239"
         cy="262.69864"
         rx="3.2600446"
         ry="1.7008928" />
      <ellipse
         ry="1.7008928"
         rx="3.2600446"
         cy="265.15549"
         cx="85.469864"
         id="ellipse4574"
         style="opacity:1;fill:#ffffff;fill-opacity:1;fill-rule:nonzero;stroke:#999999;stroke-width:0.26499999;stroke-miterlimit:4;stroke-dasharray:none;stroke-opacity:1" />
    </g>
    <g
       id="g4594"
       transform="rotate(58.101354,152.2093,365.48127)">
      <ellipse
         ry="1.7008928"
         rx="3.2600446"
         cy="260.24182"
         cx="81.312126"
         id="ellipse4578"
         style="opacity:1;fill:#ffffff;fill-opacity:1;fill-rule:nonzero;stroke:#999999;stroke-width:0.26499999;stroke-miterlimit:4;stroke-dasharray:none;stroke-opacity:1" />
      <ellipse
         ry="1.7008928"
         rx="3.2600446"
         cy="261.28125"
         cx="78.288315"
         id="ellipse4580"
         style="opacity:1;fill:#ffffff;fill-opacity:1;fill-rule:nonzero;stroke:#999999;stroke-width:0.26499999;stroke-miterlimit:4;stroke-dasharray:none;stroke-opacity:1" />
      <ellipse
         style="opacity:1;fill:#ffffff;fill-opacity:1;fill-rule:nonzero;stroke:#999999;stroke-width:0.26499999;stroke-miterlimit:4;stroke-dasharray:none;stroke-opacity:1"
         id="ellipse4582"
         cx="85.469864"
         cy="261.09225"
         rx="3.2600446"
         ry="1.7008928" />
      <ellipse
         style="opacity:1;fill:#ffff00;fill-opacity:1;fill-rule:nonzero;stroke:none;stroke-width:0.26499999;stroke-miterlimit:4;stroke-dasharray:none;stroke-opacity:1"
         id="ellipse4584"
         cx="83.060265"
         cy="263.45459"
         rx="3.96875"
         ry="2.1733632" />
      <ellipse
         style="opacity:1;fill:#ffffff;fill-opacity:1;fill-rule:nonzero;stroke:#999999;stroke-width:0.26499999;stroke-miterlimit:4;stroke-dasharray:none;stroke-opacity:1"
         id="ellipse4586"
         cx="76.965401"
         cy="263.83258"
         rx="3.2600446"
         ry="1.7008928" />
      <ellipse
         ry="1.7008928"
         rx="3.2600446"
         cy="264.87201"
         cx="80.367188"
         id="ellipse4588"
         style="opacity:1;fill:#ffffff;fill-opacity:1;fill-rule:nonzero;stroke:#999999;stroke-width:0.26499999;stroke-miterlimit:4;stroke-dasharray:none;stroke-opacity:1" />
      <ellipse
         ry="1.7008928"
         rx="3.2600446"
         cy="262.69864"
         cx="87.454239"
         id="ellipse4590"
         style="opacity:1;fill:#ffffff;fill-opacity:1;fill-rule:nonzero;stroke:#999999;stroke-width:0.26499999;stroke-miterlimit:4;stroke-dasharray:none;stroke-opacity:1" />
      <ellipse
         style="opacity:1;fill:#ffffff;fill-opacity:1;fill-rule:nonzero;stroke:#999999;stroke-width:0.26499999;stroke-miterlimit:4;stroke-dasharray:none;stroke-opacity:1"
         id="ellipse4592"
         cx="85.469864"
         cy="265.15549"
         rx="3.2600446"
         ry="1.7008928" />
    </g>
    <g
       transform="rotate(-13.547623,16.27655,-85.133416)"
       id="g4612">
      <ellipse
         style="opacity:1;fill:#ffffff;fill-opacity:1;fill-rule:nonzero;stroke:#999999;stroke-width:0.26499999;stroke-miterlimit:4;stroke-dasharray:none;stroke-opacity:1"
         id="ellipse4596"
         cx="81.312126"
         cy="260.24182"
         rx="3.2600446"
         ry="1.7008928" />
      <ellipse
         style="opacity:1;fill:#ffffff;fill-opacity:1;fill-rule:nonzero;stroke:#999999;stroke-width:0.26499999;stroke-miterlimit:4;stroke-dasharray:none;stroke-opacity:1"
         id="ellipse4598"
         cx="78.288315"
         cy="261.28125"
         rx="3.2600446"
         ry="1.7008928" />
      <ellipse
         ry="1.7008928"
         rx="3.2600446"
         cy="261.09225"
         cx="85.469864"
         id="ellipse4600"
         style="opacity:1;fill:#ffffff;fill-opacity:1;fill-rule:nonzero;stroke:#999999;stroke-width:0.26499999;stroke-miterlimit:4;stroke-dasharray:none;stroke-opacity:1" />
      <ellipse
         ry="2.1733632"
         rx="3.96875"
         cy="263.45459"
         cx="83.060265"
         id="ellipse4602"
         style="opacity:1;fill:#ffff00;fill-opacity:1;fill-rule:nonzero;stroke:none;stroke-width:0.26499999;stroke-miterlimit:4;stroke-dasharray:none;stroke-opacity:1" />
      <ellipse
         ry="1.7008928"
         rx="3.2600446"
         cy="263.83258"
         cx="76.965401"
         id="ellipse4604"
         style="opacity:1;fill:#ffffff;fill-opacity:1;fill-rule:nonzero;stroke:#999999;stroke-width:0.26499999;stroke-miterlimit:4;stroke-dasharray:none;stroke-opacity:1" />
      <ellipse
         style="opacity:1;fill:#ffffff;fill-opacity:1;fill-rule:nonzero;stroke:#999999;stroke-width:0.26499999;stroke-miterlimit:4;stroke-dasharray:none;stroke-opacity:1"
         id="ellipse4606"
         cx="80.367188"
         cy="264.87201"
         rx="3.2600446"
         ry="1.7008928" />
      <ellipse
         style="opacity:1;fill:#ffffff;fill-opacity:1;fill-rule:nonzero;stroke:#999999;stroke-width:0.26499999;stroke-miterlimit:4;stroke-dasharray:none;stroke-opacity:1"
         id="ellipse4608"
         cx="87.454239"
         cy="262.69864"
         rx="3.2600446"
         ry="1.7008928" />
      <ellipse
         ry="1.7008928"
         rx="3.2600446"
         cy="265.15549"
         cx="85.469864"
         id="ellipse4610"
         style="opacity:1;fill:#ffffff;fill-opacity:1;fill-rule:nonzero;stroke:#999999;stroke-width:0.26499999;stroke-miterlimit:4;stroke-dasharray:none;stroke-opacity:1" />
    </g>
    <g
       id="g4630"
       transform="matrix(1.2550082,0.34521301,-0.40224859,1.0770582,180.78707,-57.67683)">
      <ellipse
         ry="1.7008928"
         rx="3.2600446"
         cy="260.24182"
         cx="81.312126"
         id="ellipse4614"
         style="opacity:1;fill:#ffffff;fill-opacity:1;fill-rule:nonzero;stroke:#999999;stroke-width:0.26499999;stroke-miterlimit:4;stroke-dasharray:none;stroke-opacity:1" />
      <ellipse
         ry="1.7008928"
         rx="3.2600446"
         cy="261.28125"
         cx="78.288315"
         id="ellipse4616"
         style="opacity:1;fill:#ffffff;fill-opacity:1;fill-rule:nonzero;stroke:#999999;stroke-width:0.26499999;stroke-miterlimit:4;stroke-dasharray:none;stroke-opacity:1" />
      <ellipse
         style="opacity:1;fill:#ffffff;fill-opacity:1;fill-rule:nonzero;stroke:#999999;stroke-width:0.26499999;stroke-miterlimit:4;stroke-dasharray:none;stroke-opacity:1"
         id="ellipse4618"
         cx="85.469864"
         cy="261.09225"
         rx="3.2600446"
         ry="1.7008928" />
      <ellipse
         style="opacity:1;fill:#ffff00;fill-opacity:1;fill-rule:nonzero;stroke:none;stroke-width:0.26499999;stroke-miterlimit:4;stroke-dasharray:none;stroke-opacity:1"
         id="ellipse4620"
         cx="83.060265"
         cy="263.45459"
         rx="3.96875"
         ry="2.1733632" />
      <ellipse
         style="opacity:1;fill:#ffffff;fill-opacity:1;fill-rule:nonzero;stroke:#999999;stroke-width:0.26499999;stroke-miterlimit:4;stroke-dasharray:none;stroke-opacity:1"
         id="ellipse4622"
         cx="76.965401"
         cy="263.83258"
         rx="3.2600446"
         ry="1.7008928" />
      <ellipse
         ry="1.7008928"
         rx="3.2600446"
         cy="264.87201"
         cx="80.367188"
         id="ellipse4624"
         style="opacity:1;fill:#ffffff;fill-opacity:1;fill-rule:nonzero;stroke:#999999;stroke-width:0.26499999;stroke-miterlimit:4;stroke-dasharray:none;stroke-opacity:1" />
      <ellipse
         ry="1.7008928"
         rx="3.2600446"
         cy="262.69864"
         cx="87.454239"
         id="ellipse4626"
         style="opacity:1;fill:#ffffff;fill-opacity:1;fill-rule:nonzero;stroke:#999999;stroke-width:0.26499999;stroke-miterlimit:4;stroke-dasharray:none;stroke-opacity:1" />
      <ellipse
         style="opacity:1;fill:#ffffff;fill-opacity:1;fill-rule:nonzero;stroke:#999999;stroke-width:0.26499999;stroke-miterlimit:4;stroke-dasharray:none;stroke-opacity:1"
         id="ellipse4628"
         cx="85.469864"
         cy="265.15549"
         rx="3.2600446"
         ry="1.7008928" />
    </g>
  </g>
</svg>
