<?xml version="1.0" encoding="UTF-8" standalone="no"?>
<!-- Created with Inkscape (http://www.inkscape.org/) -->

<svg
   xmlns:dc="http://purl.org/dc/elements/1.1/"
   xmlns:cc="http://creativecommons.org/ns#"
   xmlns:rdf="http://www.w3.org/1999/02/22-rdf-syntax-ns#"
   xmlns:svg="http://www.w3.org/2000/svg"
   xmlns="http://www.w3.org/2000/svg"
   xmlns:sodipodi="http://sodipodi.sourceforge.net/DTD/sodipodi-0.dtd"
   xmlns:inkscape="http://www.inkscape.org/namespaces/inkscape"
   width="210mm"
   height="297mm"
   viewBox="0 0 210 297"
   version="1.1"
   id="svg6213"
   inkscape:version="0.92.4 (5da689c313, 2019-01-14)"
   sodipodi:docname="010.svg">
  <defs
     id="defs6207" />
  <sodipodi:namedview
     id="base"
     pagecolor="#ffffff"
     bordercolor="#666666"
     borderopacity="1.0"
     inkscape:pageopacity="0.0"
     inkscape:pageshadow="2"
     inkscape:zoom="0.98994949"
     inkscape:cx="587.3182"
     inkscape:cy="384.42607"
     inkscape:document-units="mm"
     inkscape:current-layer="layer1"
     showgrid="false"
     inkscape:window-width="1920"
     inkscape:window-height="1018"
     inkscape:window-x="-8"
     inkscape:window-y="-8"
     inkscape:window-maximized="1" />
  <metadata
     id="metadata6210">
    <rdf:RDF>
      <cc:Work
         rdf:about="">
        <dc:format>image/svg+xml</dc:format>
        <dc:type
           rdf:resource="http://purl.org/dc/dcmitype/StillImage" />
        <dc:title></dc:title>
      </cc:Work>
    </rdf:RDF>
  </metadata>
  <g
     inkscape:label="Layer 1"
     inkscape:groupmode="layer"
     id="layer1">
    <rect
       style="opacity:1;fill:#ff9955;fill-opacity:1;fill-rule:nonzero;stroke:none;stroke-width:0.40199998;stroke-miterlimit:4;stroke-dasharray:none;stroke-opacity:1"
       id="rect6758"
       width="210.91072"
       height="145.52083"
       x="-0.75595242"
       y="0.66666651" />
    <rect
       style="opacity:1;fill:#de87aa;fill-opacity:1;fill-rule:nonzero;stroke:none;stroke-width:0.40199998;stroke-miterlimit:4;stroke-dasharray:none;stroke-opacity:1"
       id="rect6760"
       width="235.85715"
       height="116.0387"
       x="-13.229167"
       y="-2.3571432" />
    <rect
       style="opacity:1;fill:#cd87de;fill-opacity:1;fill-rule:nonzero;stroke:none;stroke-width:0.40199998;stroke-miterlimit:4;stroke-dasharray:none;stroke-opacity:1"
       id="rect6764"
       width="228.67558"
       height="88.824409"
       x="-10.205358"
       y="-14.074404" />
    <rect
       style="opacity:1;fill:#8d5fd3;fill-opacity:1;fill-rule:nonzero;stroke:none;stroke-width:0.40199998;stroke-miterlimit:4;stroke-dasharray:none;stroke-opacity:1"
       id="rect6766"
       width="234.72322"
       height="72.193451"
       x="-15.119048"
       y="-25.035713" />
    <rect
       style="opacity:1;fill:#212178;fill-opacity:1;fill-rule:nonzero;stroke:none;stroke-width:0.40199998;stroke-miterlimit:4;stroke-dasharray:none;stroke-opacity:1"
       id="rect6768"
       width="221.11607"
       height="69.925591"
       x="-10.961309"
       y="-39.020836" />
    <rect
       style="opacity:1;fill:#006680;fill-opacity:1;fill-rule:nonzero;stroke:none;stroke-width:0.40199998;stroke-miterlimit:4;stroke-dasharray:none;stroke-opacity:1"
       id="rect6770"
       width="212.29292"
       height="154.01973"
       x="-2.1381562"
       y="146.1875" />
    <g
       id="g6794"
       transform="matrix(0.59764657,-0.1661126,0.18091288,0.54875376,-12.914099,-79.76626)">
      <path
         inkscape:connector-curvature="0"
         id="path6774"
         d="M 7.2162772,186.61768 C 18.612438,175.72704 41.605102,170.15278 51.850287,185.5486"
         style="fill:none;stroke:#ffffff;stroke-width:1.56500006;stroke-linecap:butt;stroke-linejoin:miter;stroke-miterlimit:4;stroke-dasharray:none;stroke-opacity:1" />
      <path
         style="fill:none;stroke:#ffffff;stroke-width:1.56500006;stroke-linecap:butt;stroke-linejoin:miter;stroke-miterlimit:4;stroke-dasharray:none;stroke-opacity:1"
         d="M 96.484298,186.61768 C 85.088141,175.72704 62.095477,170.15278 51.850287,185.5486"
         id="path6790"
         inkscape:connector-curvature="0" />
    </g>
    <g
       transform="matrix(0.62010647,-0.01558142,0.04184193,0.57628935,90.936541,-49.634063)"
       id="g6800">
      <path
         style="fill:none;stroke:#ffffff;stroke-width:1.56500006;stroke-linecap:butt;stroke-linejoin:miter;stroke-miterlimit:4;stroke-dasharray:none;stroke-opacity:1"
         d="M 7.2162772,186.61768 C 18.612438,175.72704 41.605102,170.15278 51.850287,185.5486"
         id="path6796"
         inkscape:connector-curvature="0" />
      <path
         inkscape:connector-curvature="0"
         id="path6798"
         d="M 96.484298,186.61768 C 85.088141,175.72704 62.095477,170.15278 51.850287,185.5486"
         style="fill:none;stroke:#ffffff;stroke-width:1.56500006;stroke-linecap:butt;stroke-linejoin:miter;stroke-miterlimit:4;stroke-dasharray:none;stroke-opacity:1" />
    </g>
    <g
       id="g6806"
       transform="matrix(0.60235974,0.14811332,-0.11124997,0.56699524,50.491075,-11.12628)">
      <path
         inkscape:connector-curvature="0"
         id="path6802"
         d="M 7.2162772,186.61768 C 18.612438,175.72704 41.605102,170.15278 51.850287,185.5486"
         style="fill:none;stroke:#ffffff;stroke-width:1.56500006;stroke-linecap:butt;stroke-linejoin:miter;stroke-miterlimit:4;stroke-dasharray:none;stroke-opacity:1" />
      <path
         style="fill:none;stroke:#ffffff;stroke-width:1.56500006;stroke-linecap:butt;stroke-linejoin:miter;stroke-miterlimit:4;stroke-dasharray:none;stroke-opacity:1"
         d="M 96.484298,186.61768 C 85.088141,175.72704 62.095477,170.15278 51.850287,185.5486"
         id="path6804"
         inkscape:connector-curvature="0" />
    </g>
    <g
       id="g223"
       transform="rotate(80.063518,3.975437,282.09449)"
       style="opacity:0.48300003">
      <path
         inkscape:connector-curvature="0"
         id="path204"
         d="m 20.713388,135.03466 c 4.276313,-2.80633 4.276313,-5.87992 4.276313,-5.87992 l 2.939964,8.28535 c 0,0 -1.069078,2.40543 -7.750816,0.80181 -6.681738,-1.60362 0.133635,0 0.133635,0 z"
         style="fill:#d35f5f;stroke:#000000;stroke-width:0.26458332px;stroke-linecap:butt;stroke-linejoin:miter;stroke-opacity:1" />
      <path
         style="fill:#d35f5f;stroke:#000000;stroke-width:0.26458332px;stroke-linecap:butt;stroke-linejoin:miter;stroke-opacity:1"
         d="m 14.298919,153.84852 c 4.276313,2.80633 4.276313,5.87992 4.276313,5.87992 l 2.939964,-8.28535 c 0,0 -1.069078,-2.40543 -7.750816,-0.80181 -6.6817376,1.60362 0.133635,0 0.133635,0 z"
         id="path206"
         inkscape:connector-curvature="0" />
      <path
         inkscape:connector-curvature="0"
         id="path208"
         d="m 7.6858388,141.62417 c -6.6501194,3.88221 -9.7236575,10.18658 -9.7236575,10.18658 l 5.6425682,-18.28277 c 0,0 3.3663516,-4.46539 7.7687555,1.75193 4.402404,6.21733 -0.12012,-0.0586 -0.12012,-0.0586 z"
         style="fill:#d35f5f;stroke:#000000;stroke-width:0.39967999px;stroke-linecap:butt;stroke-linejoin:miter;stroke-opacity:1" />
      <path
         inkscape:connector-curvature="0"
         id="path202"
         d="M 17.764881,122.75298 C 1.1339286,134.47024 7.5595238,155.25893 9.0714284,160.55059 10.583333,165.84226 3.7797618,177.55952 3.7797618,177.55952 L 15.875,177.18154 9.4494047,162.0625 c 0,0 17.7648803,-21.16667 8.3154763,-39.30952 z"
         style="fill:#93aca7;stroke:#000000;stroke-width:0.26458332px;stroke-linecap:butt;stroke-linejoin:miter;stroke-opacity:1" />
      <ellipse
         ry="2.4722431"
         rx="2.6058779"
         cy="130.82516"
         cx="15.969354"
         id="path210"
         style="fill:#0000ff;stroke-width:0.26458332" />
      <ellipse
         ry="1.0523738"
         rx="1.2862346"
         cy="130.5746"
         cx="16.487188"
         id="path212"
         style="fill:#0b1728;stroke-width:0.26458332" />
      <ellipse
         transform="rotate(-40.241932)"
         ry="0.41760862"
         rx="1.0690781"
         cy="110.20085"
         cx="-73.307335"
         id="path214"
         style="fill:#d7d7f4;stroke-width:0.26458332" />
    </g>
    <path
       inkscape:connector-curvature="0"
       id="path7495"
       d="m 99.028626,201.83441 c -0.27833,-10.04803 -2.454026,-20.30187 -7.789061,-28.9311 -9.108615,-5.15832 -20.090674,-3.50966 -29.744501,-6.95341 -10.194105,-2.88106 -20.450301,-7.23299 -27.682079,-15.25362 -1.142532,-1.73815 -4.284626,-2.70269 -2.748086,0.41281 2.181882,5.64293 5.236865,10.93909 8.494357,16.01035 6.259608,7.66193 18.119117,6.19047 24.49376,13.70111 2.262602,2.73635 2.87212,6.44085 5.201863,9.16877 5.368926,7.35742 13.577986,11.7144 20.814951,16.94085 2.320941,3.16351 4.800714,6.67106 8.46803,8.32751 3.1786,-1.52633 -0.417046,-6.52383 0.306009,-9.48161 -0.192403,-2.27431 -0.385972,-4.5487 -0.621312,-6.81905"
       style="fill:#ffffff;stroke:#000000;stroke-width:0.26458332px;stroke-linecap:butt;stroke-linejoin:miter;stroke-opacity:1" />
    <path
       style="fill:#ffffff;stroke:#000000;stroke-width:0.26458332px;stroke-linecap:butt;stroke-linejoin:miter;stroke-opacity:1"
       d="m 69.356443,221.36272 c -0.178181,-0.13363 -0.328949,-0.31524 -0.534541,-0.4009 -0.79702,-0.33209 -1.088363,-0.26727 -1.870887,-0.26727 -0.846352,0 -1.692706,0 -2.539061,0 -0.222723,0 -0.448037,0.0339 -0.668173,0 -0.363056,-0.0559 -0.712719,-0.17818 -1.069078,-0.26727 -0.623628,0 -1.248841,0.0444 -1.870887,0 -4.023837,-0.28742 0.0612,-0.19433 -3.340868,-0.53454 -0.398914,-0.0399 -0.802425,0.0222 -1.202713,0 -0.402752,-0.0224 -0.800997,-0.0971 -1.202714,-0.13364 -0.08872,-0.008 -0.190876,0.0458 -0.267269,0 -0.162055,-0.0972 -0.249714,-0.28751 -0.400905,-0.4009 -0.07127,-0.0534 -0.195998,0.0534 -0.267268,0 -0.151191,-0.11339 -0.240644,-0.30074 -0.400905,-0.40091 -0.412231,-0.25764 -0.761976,-0.26868 -1.202711,-0.4009 -0.269846,-0.081 -0.532908,-0.18324 -0.801809,-0.26727 -0.443895,-0.13871 -0.899959,-0.24013 -1.33635,-0.4009 -0.411665,-0.15167 -0.782497,-0.40848 -1.202711,-0.53454 -0.477025,-0.14311 -0.980485,-0.17549 -1.469983,-0.26727 -0.223245,-0.0419 -0.461396,-0.0396 -0.668173,-0.13364 -0.292426,-0.13292 -0.509384,-0.40161 -0.801809,-0.53454 -0.206778,-0.094 -0.486466,0.003 -0.668174,-0.13363 -0.20779,-0.15584 -0.201366,-0.50189 -0.400904,-0.66818 -0.102661,-0.0856 -0.274127,0.0423 -0.400905,0 -0.593021,-0.19767 -0.724599,-0.32369 -1.069078,-0.66817 -0.08909,-0.0891 -0.217638,-0.15146 -0.267269,-0.26727 -0.08947,-0.20877 -0.111035,-0.44216 -0.133636,-0.66817 -0.08777,-0.87767 0.135332,-0.94901 0.267269,-2.00452 0.03315,-0.26521 -0.06886,-0.54357 0,-0.80181 0.113043,-0.42391 0.395806,-0.78651 0.534541,-1.20271 0.946668,-2.84001 -0.850067,1.51527 0.400904,-1.73726 0.125899,-0.32734 0.596813,-1.07749 0.668174,-1.46998 0.04781,-0.26296 -0.0378,-0.53722 0,-0.80181 0.0089,-0.0624 0.08909,-0.0891 0.133635,-0.13363 0.133633,-0.13364 0.296072,-0.24366 0.400905,-0.40091 0.244245,-0.36636 0.08413,-0.80665 0.133633,-1.20271 0.01236,-0.0988 0.0944,-0.17572 0.133636,-0.26727 0.09449,-0.22048 0.191413,-0.4406 0.267269,-0.66817 0.510029,-1.53009 -0.404069,0.6745 0.53454,-1.20272 0.01992,-0.0398 -0.01225,-0.0908 0,-0.13363 0.0774,-0.27089 0.168346,-0.53802 0.267269,-0.80181 0.03497,-0.0933 0.114099,-0.1696 0.133633,-0.26727 0.02622,-0.13104 -0.04692,-0.27578 0,-0.4009 0.0912,-0.2432 0.29859,-0.42944 0.400905,-0.66818 0.03509,-0.0819 0,-0.17818 0,-0.26727 0.222726,-0.22272 0.466529,-0.42619 0.668173,-0.66817 0.02852,-0.0342 0,-0.0891 0,-0.13364 0,-0.17817 -0.01969,-0.35744 0,-0.53453 0.02508,-0.22575 0.02334,-0.46963 0.133636,-0.66818 0.122375,-0.22027 0.409519,-0.31575 0.53454,-0.53454 0.0663,-0.11602 -0.05264,-0.27807 0,-0.4009 0.08773,-0.20472 0.277357,-0.34922 0.400902,-0.53454 0.05525,-0.0829 0.08422,-0.18079 0.133636,-0.26727 0.128868,-0.22552 0.256828,-0.45206 0.400904,-0.66817 0.03494,-0.0524 0.08909,-0.0891 0.133636,-0.13364 0.133633,-0.26727 0.283194,-0.52715 0.400902,-0.80181 0.01754,-0.0409 -0.01654,-0.0923 0,-0.13363 0.07399,-0.18496 0.212542,-0.34299 0.267272,-0.53454 0.03671,-0.12849 -0.03241,-0.27126 0,-0.4009 0.05818,-0.23272 0.172775,-0.44769 0.267268,-0.66818 0.03924,-0.0916 0.07141,-0.18949 0.133636,-0.26727 0.11806,-0.14757 0.279916,-0.25572 0.400905,-0.4009 0.102817,-0.12338 0.175164,-0.26933 0.267269,-0.40091 0.219744,-0.31392 0.482078,-0.60047 0.668173,-0.93544 0.04326,-0.0779 -0.02162,-0.18084 0,-0.26727 0.268721,-1.07489 -0.0044,0.27831 0.267269,-0.4009 0.06821,-0.17053 0.06542,-0.36402 0.133636,-0.53454 0.02339,-0.0585 0.10546,-0.0773 0.133633,-0.13364 0.01992,-0.0398 0,-0.0891 0,-0.13363 0.08909,-0.13364 0.170905,-0.27242 0.267271,-0.40091 0.138888,-0.18518 0.208516,-0.10714 0.267269,-0.4009 0.02622,-0.13104 0,-0.26727 0,-0.4009 0,-0.0446 -0.01992,-0.0938 0,-0.13364 0.02817,-0.0563 0.08909,-0.0891 0.133636,-0.13363 0.04454,-0.0446 0.08909,-0.0891 0.133633,-0.13364 0.08909,-0.0891 0.178181,-0.17818 0.267269,-0.26727 0.04455,-0.0445 0.08122,-0.0987 0.133636,-0.13363 0.06615,-0.0441 0.418822,-0.24935 0.53454,-0.13364 0.06515,0.0651 0.264493,0.9292 0.267269,0.93545 0.105489,0.23735 0.263242,0.44791 0.400904,0.66817 0.08512,0.1362 0.207622,0.25178 0.267269,0.4009 0.03309,0.0827 -0.02817,0.18275 0,0.26727 0.205613,0.61684 0.540872,1.15015 0.801809,1.73725 0.13778,0.31001 0.24919,0.63202 0.400905,0.93545 0.116157,0.23232 0.272037,0.44265 0.400902,0.66817 0.227539,0.39819 0.427815,0.81213 0.668176,1.20272 0.116729,0.18968 0.267269,0.35636 0.400905,0.53453 0.08909,0.22273 0.15077,0.45848 0.267268,0.66818 0.108165,0.19469 0.261769,0.36062 0.400905,0.53454 0.03935,0.0492 0.110239,0.0751 0.133633,0.13363 0.06821,0.17053 0.04251,0.37508 0.133636,0.53454 0.09376,0.16409 0.267269,0.26727 0.400905,0.40091 0.222723,0.4009 0.484351,0.78254 0.668173,1.20271 0.39252,0.89719 0.07892,0.78655 0.534538,1.46998 0.158215,0.23732 0.351943,0.44906 0.53454,0.66817 0.158382,0.19006 0.415753,0.32073 0.534538,0.53454 1.447196,2.60495 -0.683369,-0.48671 0.668176,1.20272 0.06222,0.0778 0.09318,0.17624 0.133633,0.26727 0.137782,0.31 0.281789,0.6178 0.400905,0.93544 0.01564,0.0417 0,0.0891 0,0.13363 0,0.13364 -0.04963,0.27683 0,0.40091 0.04679,0.11698 0.217638,0.15146 0.267268,0.26727 0.08948,0.20877 0.03206,0.46502 0.133636,0.66817 0.08452,0.16904 0.277913,0.25741 0.400905,0.40091 0.133633,0.17818 0.267269,0.35635 0.400904,0.53454 0,0.0891 -0.04942,0.19314 0,0.26726 0.139774,0.20967 0.377124,0.33778 0.534538,0.53454 0.02783,0.0348 -0.01408,0.0914 0,0.13364 0.0315,0.0945 0.08239,0.18186 0.133636,0.26727 0.08263,0.13772 0.170905,0.27241 0.267269,0.4009 0.0378,0.0504 0.110238,0.0752 0.133635,0.13364 0.06821,0.17052 0.103439,0.35337 0.133633,0.53454 0.01466,0.0879 -0.05345,0.19599 0,0.26726 0.09637,0.12849 0.287338,0.15371 0.400905,0.26728 0.0315,0.0315 -0.01408,0.0914 0,0.13363 0.0315,0.0945 0.07839,0.18439 0.133636,0.26727 0.03494,0.0524 0.09869,0.0812 0.133636,0.13363 0.144076,0.21612 0.245059,0.46039 0.400902,0.66818 0.113395,0.15119 0.296074,0.24365 0.400904,0.4009 0.07814,0.11721 0.04912,0.28821 0.133636,0.40091 0.05976,0.0797 0.187584,0.0739 0.267269,0.13363 0.100793,0.0756 0.178181,0.17818 0.267269,0.26727 0.08909,0.0891 0.191674,0.16648 0.267271,0.26727 0.05976,0.0797 0.07838,0.18439 0.133633,0.26727 0.04351,0.0653 0.469278,0.49103 0.534541,0.53454 0.08288,0.0553 0.196836,0.0632 0.267268,0.13363 0.177769,0.17777 0.149866,0.54266 0.400905,0.66818 0.03984,0.0199 0.09138,-0.0141 0.133636,0 0.284969,0.095 0.316989,0.18335 0.534537,0.4009"
       id="path7524"
       inkscape:connector-curvature="0" />
    <path
       style="fill:#ffffff;stroke:#000000;stroke-width:0.26458332px;stroke-linecap:butt;stroke-linejoin:miter;stroke-opacity:1"
       d="m 91.406177,209.60286 c -2.17599,-9.81353 -6.253992,-19.46987 -13.126535,-26.93273 -9.9206,-3.34019 -20.391777,0.35821 -30.523054,-1.19519 -10.555229,-0.89858 -21.449947,-3.22965 -30.069673,-9.73576 -1.450999,-1.49036 -4.71889,-1.84246 -2.620197,0.92572 3.210951,5.12767 7.213545,9.74952 11.372395,14.11219 7.597222,6.33799 18.963529,2.64743 26.645055,8.81508 2.739823,2.2584 4.039798,5.78046 6.843951,8.01787 6.66499,6.20764 15.550569,8.93133 23.64628,12.69282 2.877994,2.66679 5.977093,5.64131 9.89172,6.57334 2.832073,-2.10061 -1.64485,-6.32682 -1.494963,-9.36801 -0.619586,-2.19673 -1.24033,-4.39331 -1.901326,-6.57802"
       id="path7487"
       inkscape:connector-curvature="0" />
    <ellipse
       style="opacity:1;fill:#ffffff;fill-opacity:1;fill-rule:nonzero;stroke:#ffffff;stroke-width:1.56500006;stroke-miterlimit:4;stroke-dasharray:none;stroke-opacity:1"
       id="path7497"
       cx="93.8116"
       cy="217.62096"
       rx="26.726952"
       ry="12.294398" />
    <g
       id="g7507">
      <ellipse
         transform="rotate(52.917235)"
         ry="5.6126599"
         rx="10.824416"
         cy="71.016624"
         cx="242.22887"
         id="path7499"
         style="opacity:1;fill:#ffffff;fill-opacity:1;fill-rule:nonzero;stroke:#ffffff;stroke-width:1.56500006;stroke-miterlimit:4;stroke-dasharray:none;stroke-opacity:1" />
      <ellipse
         transform="rotate(16.379359)"
         ry="2.80633"
         rx="13.76438"
         cy="208.76283"
         cx="169.02991"
         id="path7503"
         style="opacity:1;fill:#ffffff;fill-opacity:1;fill-rule:nonzero;stroke:#ffffff;stroke-width:1.56500006;stroke-miterlimit:4;stroke-dasharray:none;stroke-opacity:1" />
    </g>
    <g
       id="g7513"
       transform="translate(7.2162772,-6.4144687)">
      <ellipse
         style="opacity:1;fill:#ffffff;fill-opacity:1;fill-rule:nonzero;stroke:#ffffff;stroke-width:1.56500006;stroke-miterlimit:4;stroke-dasharray:none;stroke-opacity:1"
         id="ellipse7509"
         cx="242.22887"
         cy="71.016624"
         rx="10.824416"
         ry="5.6126599"
         transform="rotate(52.917235)" />
      <ellipse
         style="opacity:1;fill:#ffffff;fill-opacity:1;fill-rule:nonzero;stroke:#ffffff;stroke-width:1.56500006;stroke-miterlimit:4;stroke-dasharray:none;stroke-opacity:1"
         id="ellipse7511"
         cx="169.02991"
         cy="208.76283"
         rx="13.76438"
         ry="2.80633"
         transform="rotate(16.379359)" />
    </g>
    <path
       inkscape:connector-curvature="0"
       id="path7522"
       d="m 124.07988,243.34564 c 3.04677,-1.74071 6.45294,-3.1452 10.02824,-2.64073 1.78376,0.13288 4.79216,2.02911 4.35755,3.5711 -2.26909,-2.1479 -5.68745,-1.33216 -8.51103,-0.98054 -2.85078,1.37779 3.11382,-0.0649 4.1964,1.09544 1.78686,0.51706 5.37261,2.63365 5.09669,3.44389 -2.11204,-1.71049 -4.95394,-2.35182 -7.59715,-2.6259 -1.35172,-0.35844 -5.04814,0.18048 -1.74442,0.18892 2.89016,-0.33431 4.94909,1.78866 7.0808,3.34207 0.90233,0.49488 1.76022,2.50747 0.1461,1.04183 -2.77552,-1.45405 -5.85813,-2.19166 -8.71591,-3.46903 -2.22244,-1.27292 -5.45942,-1.20198 -5.40436,2.08281 -0.27938,2.52111 -1.3539,4.85958 -1.29802,7.42909 -0.70118,2.31711 -2.03215,-3.6112 -1.71604,-5.07744 -0.029,-1.17783 -0.096,-2.38844 0.27243,-3.52638"
       style="fill:#ffe680;stroke:#000000;stroke-width:0.26458332px;stroke-linecap:butt;stroke-linejoin:miter;stroke-opacity:1" />
    <path
       style="fill:#ffe680;stroke:#000000;stroke-width:0.26458332px;stroke-linecap:butt;stroke-linejoin:miter;stroke-opacity:1"
       d="m 117.33132,250.896 c 3.04677,-1.74071 6.45294,-3.1452 10.02824,-2.64073 1.78376,0.13288 4.79216,2.02911 4.35755,3.5711 -2.26909,-2.1479 -5.68745,-1.33216 -8.51103,-0.98054 -2.85078,1.37779 3.11382,-0.0649 4.1964,1.09544 1.78686,0.51706 5.37261,2.63365 5.09669,3.44389 -2.11204,-1.71049 -4.95394,-2.35182 -7.59715,-2.6259 -1.35172,-0.35844 -5.04814,0.18048 -1.74442,0.18892 2.89016,-0.33431 4.94909,1.78866 7.0808,3.34207 0.90233,0.49488 1.76022,2.50747 0.1461,1.04183 -2.77552,-1.45405 -5.85813,-2.19166 -8.71591,-3.46903 -2.22244,-1.27292 -5.45942,-1.20198 -5.40436,2.08281 -0.27938,2.52111 -1.3539,4.85958 -1.29802,7.42909 -0.70118,2.31711 -2.03215,-3.6112 -1.71604,-5.07744 -0.029,-1.17783 -0.096,-2.38844 0.27243,-3.52638"
       id="path7515"
       inkscape:connector-curvature="0" />
    <ellipse
       style="opacity:1;fill:#ffffff;fill-opacity:1;fill-rule:nonzero;stroke:#ffffff;stroke-width:1.56500006;stroke-miterlimit:4;stroke-dasharray:none;stroke-opacity:1"
       id="path7528"
       cx="123.94624"
       cy="215.28233"
       rx="13.029389"
       ry="4.8776689" />
    <path
       style="fill:#ffdd55;stroke:#000000;stroke-width:0.26458332px;stroke-linecap:butt;stroke-linejoin:miter;stroke-opacity:1"
       d="m 144.05828,208.53379 c 2.28065,-0.75185 4.75692,-0.20184 7.08588,-0.63952 1.91828,-0.38957 3.76869,-1.02087 5.75101,-0.84483 3.11998,-0.57464 6.33192,-1.00845 9.50156,-0.63431 1.50752,0.83559 3.70763,3.2366 3.76837,4.27919 -2.4678,-1.3143 -5.3779,-0.64794 -8.07494,-0.83946 -3.20152,-0.0199 -6.40959,0.4368 -9.51192,1.19714 -2.50095,1.12668 -5.33965,0.7604 -7.96859,1.36849 2.1347,-0.0684 4.20631,-0.91188 6.36332,-0.52325 0.50337,0.0159 1.07891,-0.0994 1.37068,-0.55712"
       id="path7532"
       inkscape:connector-curvature="0" />
    <path
       inkscape:connector-curvature="0"
       id="path7538"
       d="m 144.05828,211.17593 c 2.28065,0.75185 4.75692,0.20184 7.08588,0.63952 1.91828,0.38957 3.76869,1.02087 5.75101,0.84483 3.11998,0.57464 6.33192,1.00845 9.50156,0.63431 1.50752,-0.83559 3.70763,-3.2366 3.76837,-4.27919 -2.4678,1.3143 -5.3779,0.64794 -8.07494,0.83946 -3.20152,0.0199 -6.40959,-0.4368 -9.51192,-1.19714 -2.50095,-1.12668 -5.33965,-0.7604 -7.96859,-1.36849 2.1347,0.0684 4.20631,0.91188 6.36332,0.52325 0.50337,-0.0159 1.07891,0.0994 1.37068,0.55712"
       style="fill:#ffdd55;stroke:#000000;stroke-width:0.26458332px;stroke-linecap:butt;stroke-linejoin:miter;stroke-opacity:1" />
    <ellipse
       style="opacity:1;fill:#ffffff;fill-opacity:1;fill-rule:nonzero;stroke:#ffffff;stroke-width:1.56500006;stroke-miterlimit:4;stroke-dasharray:none;stroke-opacity:1"
       id="path7530"
       cx="141.0515"
       cy="209.46922"
       rx="9.2876167"
       ry="5.4790254" />
    <ellipse
       style="opacity:1;fill:#000000;fill-opacity:1;fill-rule:nonzero;stroke:#ffffff;stroke-width:1.56500006;stroke-miterlimit:4;stroke-dasharray:none;stroke-opacity:1"
       id="path7540"
       cx="144.74126"
       cy="208.15198"
       rx="2.669457"
       ry="2.1969867" />
  </g>
</svg>
