<?xml version="1.0" encoding="UTF-8" standalone="no"?>
<!-- Created with Inkscape (http://www.inkscape.org/) -->

<svg
   xmlns:dc="http://purl.org/dc/elements/1.1/"
   xmlns:cc="http://creativecommons.org/ns#"
   xmlns:rdf="http://www.w3.org/1999/02/22-rdf-syntax-ns#"
   xmlns:svg="http://www.w3.org/2000/svg"
   xmlns="http://www.w3.org/2000/svg"
   xmlns:sodipodi="http://sodipodi.sourceforge.net/DTD/sodipodi-0.dtd"
   xmlns:inkscape="http://www.inkscape.org/namespaces/inkscape"
   width="210mm"
   height="297mm"
   viewBox="0 0 210 297"
   version="1.1"
   id="svg8"
   inkscape:version="0.92.4 (5da689c313, 2019-01-14)"
   sodipodi:docname="000.svg">
  <defs
     id="defs2" />
  <sodipodi:namedview
     id="base"
     pagecolor="#ffffff"
     bordercolor="#666666"
     borderopacity="1.0"
     inkscape:pageopacity="0.0"
     inkscape:pageshadow="2"
     inkscape:zoom="0.7"
     inkscape:cx="652.00888"
     inkscape:cy="547.24622"
     inkscape:document-units="mm"
     inkscape:current-layer="layer1"
     showgrid="false"
     inkscape:window-width="1920"
     inkscape:window-height="1018"
     inkscape:window-x="-8"
     inkscape:window-y="-8"
     inkscape:window-maximized="1" />
  <metadata
     id="metadata5">
    <rdf:RDF>
      <cc:Work
         rdf:about="">
        <dc:format>image/svg+xml</dc:format>
        <dc:type
           rdf:resource="http://purl.org/dc/dcmitype/StillImage" />
        <dc:title></dc:title>
      </cc:Work>
    </rdf:RDF>
  </metadata>
  <g
     inkscape:label="Layer 1"
     inkscape:groupmode="layer"
     id="layer1">
    <rect
       id="rect12"
       width="213.81561"
       height="178.80331"
       x="-1.0690781"
       y="-1.2727928"
       style="stroke-width:0.26458332;fill:#000000" />
    <rect
       style="fill:#550000;stroke-width:0.26458332"
       id="rect14"
       width="217.02286"
       height="153.4127"
       x="-2.6726952"
       y="145.1909" />
    <g
       id="g136"
       transform="matrix(0.86842703,0,0,0.86842703,24.039249,17.379551)">
      <ellipse
         ry="50.380306"
         rx="48.242149"
         cy="70.221802"
         cx="146.86459"
         id="path125"
         style="fill:#aa8800;stroke-width:0.26458332" />
      <path
         sodipodi:nodetypes="ccc"
         inkscape:connector-curvature="0"
         id="path129"
         d="M 109.04597,37.481287 C 45.435818,7.814371 220.23009,139.31098 189.49409,95.746045 351.19216,229.38081 -68.420994,-67.555639 109.04597,37.481287 Z"
         style="fill:#806600;stroke:#000000;stroke-width:0.26458332px;stroke-linecap:butt;stroke-linejoin:miter;stroke-opacity:1" />
      <path
         style="fill:#782121;stroke:#000000;stroke-width:0.42811868px;stroke-linecap:butt;stroke-linejoin:miter;stroke-opacity:1"
         d="M 88.628226,19.154076 C -14.2985,-28.849559 268.53375,183.92333 218.80024,113.43149 480.4417,329.6641 -198.52865,-150.80475 88.628226,19.154076 Z"
         id="path131"
         inkscape:connector-curvature="0"
         sodipodi:nodetypes="ccc" />
    </g>
    <g
       id="g123"
       transform="translate(2.1125635,-35.546849)">
      <g
         id="g103">
        <rect
           style="fill:#cccccc;stroke-width:0.26458332"
           id="rect16"
           width="11.22532"
           height="55.59206"
           x="33.675961"
           y="70.355446" />
        <path
           style="fill:#cccccc;stroke:#000000;stroke-width:0.26458332px;stroke-linecap:butt;stroke-linejoin:miter;stroke-opacity:1"
           d="m 33.67596,125.94751 -5.280499,8.42823 h 21.544643 l -5.038826,-8.42823 H 33.67596"
           id="path37"
           inkscape:connector-curvature="0" />
        <path
           style="fill:#cccccc;stroke:#000000;stroke-width:0.26458332px;stroke-linecap:butt;stroke-linejoin:miter;stroke-opacity:1"
           d="M 33.67596,70.355446 H 44.901278 L 39.21503,61.662574 Z"
           id="path39"
           inkscape:connector-curvature="0" />
        <circle
           style="fill:#4d4d4d;stroke-width:0.26458332"
           id="path41"
           cx="39.215031"
           cy="78.435257"
           r="4.0632439" />
        <circle
           r="4.0632439"
           cy="91.286446"
           cx="39.215031"
           id="circle45"
           style="fill:#4d4d4d;stroke-width:0.26458332" />
        <circle
           style="fill:#4d4d4d;stroke-width:0.26458332"
           id="circle47"
           cx="39.215031"
           cy="104.13763"
           r="4.0632439" />
        <ellipse
           style="fill:#999999;stroke-width:0.34468654"
           id="path49"
           cx="39.167782"
           cy="78.408829"
           rx="3.3545384"
           ry="3.1391096" />
        <ellipse
           ry="3.1391096"
           rx="3.3545384"
           cy="91.237762"
           cx="39.167782"
           id="ellipse53"
           style="fill:#999999;stroke-width:0.34468654" />
        <ellipse
           style="fill:#999999;stroke-width:0.34468654"
           id="ellipse55"
           cx="39.167782"
           cy="104.0667"
           rx="3.3545384"
           ry="3.1391096" />
      </g>
      <g
         id="g84">
        <path
           style="fill:#ffcc00;stroke:#000000;stroke-width:0.26458332px;stroke-linecap:butt;stroke-linejoin:miter;stroke-opacity:1"
           d="m 49.940104,134.37574 c 0,0 8.057382,125.74106 -8.246057,164.49516 -16.303442,38.75407 54.522983,-0.26729 54.522983,-0.26729 0,0 -44.178069,-120.52006 -46.276926,-164.22787"
           id="path71"
           inkscape:connector-curvature="0" />
        <path
           inkscape:connector-curvature="0"
           id="path77"
           d="m 55.820034,179.00975 c 0,0 8.057382,125.74106 -8.246057,164.49516 -16.303442,38.75407 54.522983,-0.26729 54.522983,-0.26729 0,0 -44.178069,-120.52006 -46.276926,-164.22787"
           style="fill:#ff6600;stroke:#000000;stroke-width:0.26458332px;stroke-linecap:butt;stroke-linejoin:miter;stroke-opacity:1" />
        <path
           style="fill:#ff0000;stroke:#000000;stroke-width:0.26458332px;stroke-linecap:butt;stroke-linejoin:miter;stroke-opacity:1"
           d="m 64.639928,254.11249 c 0,0 8.057382,125.74106 -8.246057,164.49516 -16.303442,38.75407 54.522979,-0.26729 54.522979,-0.26729 0,0 -44.178065,-120.52006 -46.276922,-164.22787"
           id="path79"
           inkscape:connector-curvature="0" />
      </g>
      <g
         transform="matrix(-1,0,0,1,78.335565,0)"
         id="g92">
        <path
           inkscape:connector-curvature="0"
           id="path86"
           d="m 49.940104,134.37574 c 0,0 8.057382,125.74106 -8.246057,164.49516 -16.303442,38.75407 54.522983,-0.26729 54.522983,-0.26729 0,0 -44.178069,-120.52006 -46.276926,-164.22787"
           style="fill:#ffcc00;stroke:#000000;stroke-width:0.26458332px;stroke-linecap:butt;stroke-linejoin:miter;stroke-opacity:1" />
        <path
           style="fill:#ff6600;stroke:#000000;stroke-width:0.26458332px;stroke-linecap:butt;stroke-linejoin:miter;stroke-opacity:1"
           d="m 55.820034,179.00975 c 0,0 8.057382,125.74106 -8.246057,164.49516 -16.303442,38.75407 54.522983,-0.26729 54.522983,-0.26729 0,0 -44.178069,-120.52006 -46.276926,-164.22787"
           id="path88"
           inkscape:connector-curvature="0" />
        <path
           inkscape:connector-curvature="0"
           id="path90"
           d="m 64.639928,254.11249 c 0,0 8.057382,125.74106 -8.246057,164.49516 -16.303442,38.75407 54.522979,-0.26729 54.522979,-0.26729 0,0 -44.178065,-120.52006 -46.276922,-164.22787"
           style="fill:#ff0000;stroke:#000000;stroke-width:0.26458332px;stroke-linecap:butt;stroke-linejoin:miter;stroke-opacity:1" />
      </g>
    </g>
    <ellipse
       style="fill:#aa8800;stroke-width:0.26458332"
       id="path127"
       cx="153.67998"
       cy="73.295403"
       rx="4.2763124"
       ry="6.6817379" />
    <ellipse
       style="fill:#999999;stroke-width:0.26458332"
       id="path138"
       cx="157.0491"
       cy="198.25372"
       rx="5.8586307"
       ry="5.5751486" />
    <ellipse
       style="fill:#999999;stroke-width:0.26458332"
       id="path140"
       cx="156.86011"
       cy="212.7113"
       rx="6.8035712"
       ry="11.150297" />
    <g
       id="g151"
       transform="translate(2.4568452,-2.4568452)">
      <ellipse
         ry="3.4962797"
         rx="3.5907736"
         cy="208.0811"
         cx="147.78868"
         id="path142"
         style="fill:#999999;stroke-width:0.26458332" />
      <circle
         r="2.5513394"
         cy="209.782"
         cx="143.15848"
         id="path144"
         style="fill:#999999;stroke-width:0.26458332" />
      <circle
         r="2.4568453"
         cy="212.33334"
         cx="140.60715"
         id="path146"
         style="fill:#999999;stroke-width:0.26458332" />
    </g>
    <g
       id="g159"
       transform="matrix(-1,0,0,1,310.50743,-2.8348214)">
      <ellipse
         style="fill:#999999;stroke-width:0.26458332"
         id="ellipse153"
         cx="147.78868"
         cy="208.0811"
         rx="3.5907736"
         ry="3.4962797" />
      <circle
         style="fill:#999999;stroke-width:0.26458332"
         id="circle155"
         cx="143.15848"
         cy="209.782"
         r="2.5513394" />
      <circle
         style="fill:#999999;stroke-width:0.26458332"
         id="circle157"
         cx="140.60715"
         cy="212.33334"
         r="2.4568453" />
    </g>
    <g
       id="g172">
      <ellipse
         ry="8.6934528"
         rx="3.5907736"
         cy="226.69644"
         cx="152.70239"
         id="path161"
         style="fill:#999999;stroke-width:0.26458332" />
      <ellipse
         ry="5.6696429"
         rx="3.6852679"
         cy="237.46875"
         cx="152.98586"
         id="path165"
         style="fill:#999999;stroke-width:0.26458332" />
      <ellipse
         ry="2.3623512"
         rx="4.7247024"
         cy="241.532"
         cx="150.24553"
         id="path167"
         style="fill:#999999;stroke-width:0.26458332" />
    </g>
    <g
       id="g180"
       transform="matrix(-1,0,0,1,314.0982,0)">
      <ellipse
         style="fill:#999999;stroke-width:0.26458332"
         id="ellipse174"
         cx="152.70239"
         cy="226.69644"
         rx="3.5907736"
         ry="8.6934528" />
      <ellipse
         style="fill:#999999;stroke-width:0.26458332"
         id="ellipse176"
         cx="152.98586"
         cy="237.46875"
         rx="3.6852679"
         ry="5.6696429" />
      <ellipse
         style="fill:#999999;stroke-width:0.26458332"
         id="ellipse178"
         cx="150.24553"
         cy="241.532"
         rx="4.7247024"
         ry="2.3623512" />
    </g>
    <ellipse
       style="fill:#1a1a1a;stroke-width:0.26458332"
       id="path182"
       cx="157.52158"
       cy="197.49776"
       rx="4.8191962"
       ry="3.8742559" />
  </g>
</svg>
