<?xml version="1.0" encoding="UTF-8" standalone="no"?>
<!-- Created with Inkscape (http://www.inkscape.org/) -->

<svg
   xmlns:dc="http://purl.org/dc/elements/1.1/"
   xmlns:cc="http://creativecommons.org/ns#"
   xmlns:rdf="http://www.w3.org/1999/02/22-rdf-syntax-ns#"
   xmlns:svg="http://www.w3.org/2000/svg"
   xmlns="http://www.w3.org/2000/svg"
   xmlns:sodipodi="http://sodipodi.sourceforge.net/DTD/sodipodi-0.dtd"
   xmlns:inkscape="http://www.inkscape.org/namespaces/inkscape"
   width="210mm"
   height="297mm"
   viewBox="0 0 210 297"
   version="1.1"
   id="svg8"
   inkscape:version="0.92.4 (5da689c313, 2019-01-14)"
   sodipodi:docname="000_3.svg">
  <defs
     id="defs2" />
  <sodipodi:namedview
     id="base"
     pagecolor="#ffffff"
     bordercolor="#666666"
     borderopacity="1.0"
     inkscape:pageopacity="0.0"
     inkscape:pageshadow="2"
     inkscape:zoom="0.98994949"
     inkscape:cx="586.7648"
     inkscape:cy="446.28692"
     inkscape:document-units="mm"
     inkscape:current-layer="layer1"
     showgrid="false"
     inkscape:window-width="1920"
     inkscape:window-height="1018"
     inkscape:window-x="-8"
     inkscape:window-y="-8"
     inkscape:window-maximized="1" />
  <metadata
     id="metadata5">
    <rdf:RDF>
      <cc:Work
         rdf:about="">
        <dc:format>image/svg+xml</dc:format>
        <dc:type
           rdf:resource="http://purl.org/dc/dcmitype/StillImage" />
        <dc:title></dc:title>
      </cc:Work>
    </rdf:RDF>
  </metadata>
  <g
     inkscape:label="Layer 1"
     inkscape:groupmode="layer"
     id="layer1">
    <rect
       id="rect12"
       width="213.81561"
       height="178.80331"
       x="-1.0690781"
       y="-1.2727928"
       style="stroke-width:0.26458332;fill:#000000" />
    <g
       id="g3447"
       transform="matrix(0.83726698,-0.32878443,0.32878443,0.83726698,-2.4619783,8.1385752)">
      <ellipse
         ry="50.380306"
         rx="48.242149"
         cy="70.221802"
         cx="146.86459"
         id="ellipse3441"
         style="fill:#aa8800;stroke-width:0.26458332" />
      <path
         sodipodi:nodetypes="ccc"
         inkscape:connector-curvature="0"
         id="path3443"
         d="M 109.04597,37.481287 C 45.435818,7.814371 220.23009,139.31098 189.49409,95.746045 351.19216,229.38081 -68.420994,-67.555639 109.04597,37.481287 Z"
         style="fill:#806600;stroke:#000000;stroke-width:0.26458332px;stroke-linecap:butt;stroke-linejoin:miter;stroke-opacity:1" />
      <path
         style="fill:#782121;stroke:#000000;stroke-width:0.42811868px;stroke-linecap:butt;stroke-linejoin:miter;stroke-opacity:1"
         d="M 88.628226,19.154076 C -14.2985,-28.849559 268.53375,183.92333 218.80024,113.43149 480.4417,329.6641 -198.52865,-150.80475 88.628226,19.154076 Z"
         id="path3445"
         inkscape:connector-curvature="0"
         sodipodi:nodetypes="ccc" />
    </g>
    <g
       transform="matrix(0.13621264,-0.28940946,0.28940946,0.13621264,81.846811,6.2900449)"
       id="g3393">
      <g
         id="g3375">
        <rect
           y="70.355446"
           x="33.675961"
           height="55.59206"
           width="11.22532"
           id="rect3357"
           style="fill:#cccccc;stroke-width:0.26458332" />
        <path
           inkscape:connector-curvature="0"
           id="path3359"
           d="m 33.67596,125.94751 -5.280499,8.42823 h 21.544643 l -5.038826,-8.42823 H 33.67596"
           style="fill:#cccccc;stroke:#000000;stroke-width:0.26458332px;stroke-linecap:butt;stroke-linejoin:miter;stroke-opacity:1" />
        <path
           inkscape:connector-curvature="0"
           id="path3361"
           d="M 33.67596,70.355446 H 44.901278 L 39.21503,61.662574 Z"
           style="fill:#cccccc;stroke:#000000;stroke-width:0.26458332px;stroke-linecap:butt;stroke-linejoin:miter;stroke-opacity:1" />
        <circle
           r="4.0632439"
           cy="78.435257"
           cx="39.215031"
           id="circle3363"
           style="fill:#4d4d4d;stroke-width:0.26458332" />
        <circle
           style="fill:#4d4d4d;stroke-width:0.26458332"
           id="circle3365"
           cx="39.215031"
           cy="91.286446"
           r="4.0632439" />
        <circle
           r="4.0632439"
           cy="104.13763"
           cx="39.215031"
           id="circle3367"
           style="fill:#4d4d4d;stroke-width:0.26458332" />
        <ellipse
           ry="3.1391096"
           rx="3.3545384"
           cy="78.408829"
           cx="39.167782"
           id="ellipse3369"
           style="fill:#999999;stroke-width:0.34468654" />
        <ellipse
           style="fill:#999999;stroke-width:0.34468654"
           id="ellipse3371"
           cx="39.167782"
           cy="91.237762"
           rx="3.3545384"
           ry="3.1391096" />
        <ellipse
           ry="3.1391096"
           rx="3.3545384"
           cy="104.0667"
           cx="39.167782"
           id="ellipse3373"
           style="fill:#999999;stroke-width:0.34468654" />
      </g>
      <g
         id="g3383">
        <path
           inkscape:connector-curvature="0"
           id="path3377"
           d="m 49.940104,134.37574 c 0,0 8.057382,125.74106 -8.246057,164.49516 -16.303442,38.75407 54.522983,-0.26729 54.522983,-0.26729 0,0 -44.178069,-120.52006 -46.276926,-164.22787"
           style="fill:#ffcc00;stroke:#000000;stroke-width:0.26458332px;stroke-linecap:butt;stroke-linejoin:miter;stroke-opacity:1" />
        <path
           style="fill:#ff6600;stroke:#000000;stroke-width:0.26458332px;stroke-linecap:butt;stroke-linejoin:miter;stroke-opacity:1"
           d="m 55.820034,179.00975 c 0,0 8.057382,125.74106 -8.246057,164.49516 -16.303442,38.75407 54.522983,-0.26729 54.522983,-0.26729 0,0 -44.178069,-120.52006 -46.276926,-164.22787"
           id="path3379"
           inkscape:connector-curvature="0" />
        <path
           inkscape:connector-curvature="0"
           id="path3381"
           d="m 64.639928,254.11249 c 0,0 8.057382,125.74106 -8.246057,164.49516 -16.303442,38.75407 54.522979,-0.26729 54.522979,-0.26729 0,0 -44.178065,-120.52006 -46.276922,-164.22787"
           style="fill:#ff0000;stroke:#000000;stroke-width:0.26458332px;stroke-linecap:butt;stroke-linejoin:miter;stroke-opacity:1" />
      </g>
      <g
         id="g3391"
         transform="matrix(-1,0,0,1,78.335565,0)">
        <path
           style="fill:#ffcc00;stroke:#000000;stroke-width:0.26458332px;stroke-linecap:butt;stroke-linejoin:miter;stroke-opacity:1"
           d="m 49.940104,134.37574 c 0,0 8.057382,125.74106 -8.246057,164.49516 -16.303442,38.75407 54.522983,-0.26729 54.522983,-0.26729 0,0 -44.178069,-120.52006 -46.276926,-164.22787"
           id="path3385"
           inkscape:connector-curvature="0" />
        <path
           inkscape:connector-curvature="0"
           id="path3387"
           d="m 55.820034,179.00975 c 0,0 8.057382,125.74106 -8.246057,164.49516 -16.303442,38.75407 54.522983,-0.26729 54.522983,-0.26729 0,0 -44.178069,-120.52006 -46.276926,-164.22787"
           style="fill:#ff6600;stroke:#000000;stroke-width:0.26458332px;stroke-linecap:butt;stroke-linejoin:miter;stroke-opacity:1" />
        <path
           style="fill:#ff0000;stroke:#000000;stroke-width:0.26458332px;stroke-linecap:butt;stroke-linejoin:miter;stroke-opacity:1"
           d="m 64.639928,254.11249 c 0,0 8.057382,125.74106 -8.246057,164.49516 -16.303442,38.75407 54.522979,-0.26729 54.522979,-0.26729 0,0 -44.178065,-120.52006 -46.276922,-164.22787"
           id="path3389"
           inkscape:connector-curvature="0" />
      </g>
    </g>
    <g
       id="g3431"
       transform="matrix(0.31984353,-0.00344021,0.00344021,0.31984353,84.112314,86.2046)">
      <g
         id="g3413">
        <rect
           style="fill:#cccccc;stroke-width:0.26458332"
           id="rect3395"
           width="11.22532"
           height="55.59206"
           x="33.675961"
           y="70.355446" />
        <path
           style="fill:#cccccc;stroke:#000000;stroke-width:0.26458332px;stroke-linecap:butt;stroke-linejoin:miter;stroke-opacity:1"
           d="m 33.67596,125.94751 -5.280499,8.42823 h 21.544643 l -5.038826,-8.42823 H 33.67596"
           id="path3397"
           inkscape:connector-curvature="0" />
        <path
           style="fill:#cccccc;stroke:#000000;stroke-width:0.26458332px;stroke-linecap:butt;stroke-linejoin:miter;stroke-opacity:1"
           d="M 33.67596,70.355446 H 44.901278 L 39.21503,61.662574 Z"
           id="path3399"
           inkscape:connector-curvature="0" />
        <circle
           style="fill:#4d4d4d;stroke-width:0.26458332"
           id="circle3401"
           cx="39.215031"
           cy="78.435257"
           r="4.0632439" />
        <circle
           r="4.0632439"
           cy="91.286446"
           cx="39.215031"
           id="circle3403"
           style="fill:#4d4d4d;stroke-width:0.26458332" />
        <circle
           style="fill:#4d4d4d;stroke-width:0.26458332"
           id="circle3405"
           cx="39.215031"
           cy="104.13763"
           r="4.0632439" />
        <ellipse
           style="fill:#999999;stroke-width:0.34468654"
           id="ellipse3407"
           cx="39.167782"
           cy="78.408829"
           rx="3.3545384"
           ry="3.1391096" />
        <ellipse
           ry="3.1391096"
           rx="3.3545384"
           cy="91.237762"
           cx="39.167782"
           id="ellipse3409"
           style="fill:#999999;stroke-width:0.34468654" />
        <ellipse
           style="fill:#999999;stroke-width:0.34468654"
           id="ellipse3411"
           cx="39.167782"
           cy="104.0667"
           rx="3.3545384"
           ry="3.1391096" />
      </g>
      <g
         id="g3421">
        <path
           style="fill:#ffcc00;stroke:#000000;stroke-width:0.26458332px;stroke-linecap:butt;stroke-linejoin:miter;stroke-opacity:1"
           d="m 49.940104,134.37574 c 0,0 8.057382,125.74106 -8.246057,164.49516 -16.303442,38.75407 54.522983,-0.26729 54.522983,-0.26729 0,0 -44.178069,-120.52006 -46.276926,-164.22787"
           id="path3415"
           inkscape:connector-curvature="0" />
        <path
           inkscape:connector-curvature="0"
           id="path3417"
           d="m 55.820034,179.00975 c 0,0 8.057382,125.74106 -8.246057,164.49516 -16.303442,38.75407 54.522983,-0.26729 54.522983,-0.26729 0,0 -44.178069,-120.52006 -46.276926,-164.22787"
           style="fill:#ff6600;stroke:#000000;stroke-width:0.26458332px;stroke-linecap:butt;stroke-linejoin:miter;stroke-opacity:1" />
        <path
           style="fill:#ff0000;stroke:#000000;stroke-width:0.26458332px;stroke-linecap:butt;stroke-linejoin:miter;stroke-opacity:1"
           d="m 64.639928,254.11249 c 0,0 8.057382,125.74106 -8.246057,164.49516 -16.303442,38.75407 54.522979,-0.26729 54.522979,-0.26729 0,0 -44.178065,-120.52006 -46.276922,-164.22787"
           id="path3419"
           inkscape:connector-curvature="0" />
      </g>
      <g
         transform="matrix(-1,0,0,1,78.335565,0)"
         id="g3429">
        <path
           inkscape:connector-curvature="0"
           id="path3423"
           d="m 49.940104,134.37574 c 0,0 8.057382,125.74106 -8.246057,164.49516 -16.303442,38.75407 54.522983,-0.26729 54.522983,-0.26729 0,0 -44.178069,-120.52006 -46.276926,-164.22787"
           style="fill:#ffcc00;stroke:#000000;stroke-width:0.26458332px;stroke-linecap:butt;stroke-linejoin:miter;stroke-opacity:1" />
        <path
           style="fill:#ff6600;stroke:#000000;stroke-width:0.26458332px;stroke-linecap:butt;stroke-linejoin:miter;stroke-opacity:1"
           d="m 55.820034,179.00975 c 0,0 8.057382,125.74106 -8.246057,164.49516 -16.303442,38.75407 54.522983,-0.26729 54.522983,-0.26729 0,0 -44.178069,-120.52006 -46.276926,-164.22787"
           id="path3425"
           inkscape:connector-curvature="0" />
        <path
           inkscape:connector-curvature="0"
           id="path3427"
           d="m 64.639928,254.11249 c 0,0 8.057382,125.74106 -8.246057,164.49516 -16.303442,38.75407 54.522979,-0.26729 54.522979,-0.26729 0,0 -44.178065,-120.52006 -46.276922,-164.22787"
           style="fill:#ff0000;stroke:#000000;stroke-width:0.26458332px;stroke-linecap:butt;stroke-linejoin:miter;stroke-opacity:1" />
      </g>
    </g>
    <rect
       style="fill:#550000;stroke-width:0.26458332"
       id="rect14"
       width="217.02286"
       height="153.4127"
       x="-2.6726952"
       y="145.1909" />
    <g
       id="g136"
       transform="matrix(0.37364293,0,0,0.37364293,100.17714,72.96719)">
      <ellipse
         ry="50.380306"
         rx="48.242149"
         cy="70.221802"
         cx="146.86459"
         id="path125"
         style="fill:#aa8800;stroke-width:0.26458332" />
      <path
         sodipodi:nodetypes="ccc"
         inkscape:connector-curvature="0"
         id="path129"
         d="M 109.04597,37.481287 C 45.435818,7.814371 220.23009,139.31098 189.49409,95.746045 351.19216,229.38081 -68.420994,-67.555639 109.04597,37.481287 Z"
         style="fill:#806600;stroke:#000000;stroke-width:0.26458332px;stroke-linecap:butt;stroke-linejoin:miter;stroke-opacity:1" />
      <path
         style="fill:#782121;stroke:#000000;stroke-width:0.42811868px;stroke-linecap:butt;stroke-linejoin:miter;stroke-opacity:1"
         d="M 88.628226,19.154076 C -14.2985,-28.849559 268.53375,183.92333 218.80024,113.43149 480.4417,329.6641 -198.52865,-150.80475 88.628226,19.154076 Z"
         id="path131"
         inkscape:connector-curvature="0"
         sodipodi:nodetypes="ccc" />
    </g>
    <g
       transform="matrix(0.08743845,-0.17490162,0.17490162,0.08743845,-3.1823812,63.15884)"
       id="g3439">
      <ellipse
         style="fill:#aa8800;stroke-width:0.26458332"
         id="ellipse3433"
         cx="146.86459"
         cy="70.221802"
         rx="48.242149"
         ry="50.380306" />
      <path
         style="fill:#806600;stroke:#000000;stroke-width:0.26458332px;stroke-linecap:butt;stroke-linejoin:miter;stroke-opacity:1"
         d="M 109.04597,37.481287 C 45.435818,7.814371 220.23009,139.31098 189.49409,95.746045 351.19216,229.38081 -68.420994,-67.555639 109.04597,37.481287 Z"
         id="path3435"
         inkscape:connector-curvature="0"
         sodipodi:nodetypes="ccc" />
      <path
         sodipodi:nodetypes="ccc"
         inkscape:connector-curvature="0"
         id="path3437"
         d="M 88.628226,19.154076 C -14.2985,-28.849559 268.53375,183.92333 218.80024,113.43149 480.4417,329.6641 -198.52865,-150.80475 88.628226,19.154076 Z"
         style="fill:#782121;stroke:#000000;stroke-width:0.42811868px;stroke-linecap:butt;stroke-linejoin:miter;stroke-opacity:1" />
    </g>
    <g
       id="g123"
       transform="translate(2.1125635,-35.546849)">
      <g
         id="g103">
        <rect
           style="fill:#cccccc;stroke-width:0.26458332"
           id="rect16"
           width="11.22532"
           height="55.59206"
           x="33.675961"
           y="70.355446" />
        <path
           style="fill:#cccccc;stroke:#000000;stroke-width:0.26458332px;stroke-linecap:butt;stroke-linejoin:miter;stroke-opacity:1"
           d="m 33.67596,125.94751 -5.280499,8.42823 h 21.544643 l -5.038826,-8.42823 H 33.67596"
           id="path37"
           inkscape:connector-curvature="0" />
        <path
           style="fill:#cccccc;stroke:#000000;stroke-width:0.26458332px;stroke-linecap:butt;stroke-linejoin:miter;stroke-opacity:1"
           d="M 33.67596,70.355446 H 44.901278 L 39.21503,61.662574 Z"
           id="path39"
           inkscape:connector-curvature="0" />
        <circle
           style="fill:#4d4d4d;stroke-width:0.26458332"
           id="path41"
           cx="39.215031"
           cy="78.435257"
           r="4.0632439" />
        <circle
           r="4.0632439"
           cy="91.286446"
           cx="39.215031"
           id="circle45"
           style="fill:#4d4d4d;stroke-width:0.26458332" />
        <circle
           style="fill:#4d4d4d;stroke-width:0.26458332"
           id="circle47"
           cx="39.215031"
           cy="104.13763"
           r="4.0632439" />
        <ellipse
           style="fill:#999999;stroke-width:0.34468654"
           id="path49"
           cx="39.167782"
           cy="78.408829"
           rx="3.3545384"
           ry="3.1391096" />
        <ellipse
           ry="3.1391096"
           rx="3.3545384"
           cy="91.237762"
           cx="39.167782"
           id="ellipse53"
           style="fill:#999999;stroke-width:0.34468654" />
        <ellipse
           style="fill:#999999;stroke-width:0.34468654"
           id="ellipse55"
           cx="39.167782"
           cy="104.0667"
           rx="3.3545384"
           ry="3.1391096" />
      </g>
      <g
         id="g84">
        <path
           style="fill:#ffcc00;stroke:#000000;stroke-width:0.26458332px;stroke-linecap:butt;stroke-linejoin:miter;stroke-opacity:1"
           d="m 49.940104,134.37574 c 0,0 8.057382,125.74106 -8.246057,164.49516 -16.303442,38.75407 54.522983,-0.26729 54.522983,-0.26729 0,0 -44.178069,-120.52006 -46.276926,-164.22787"
           id="path71"
           inkscape:connector-curvature="0" />
        <path
           inkscape:connector-curvature="0"
           id="path77"
           d="m 55.820034,179.00975 c 0,0 8.057382,125.74106 -8.246057,164.49516 -16.303442,38.75407 54.522983,-0.26729 54.522983,-0.26729 0,0 -44.178069,-120.52006 -46.276926,-164.22787"
           style="fill:#ff6600;stroke:#000000;stroke-width:0.26458332px;stroke-linecap:butt;stroke-linejoin:miter;stroke-opacity:1" />
        <path
           style="fill:#ff0000;stroke:#000000;stroke-width:0.26458332px;stroke-linecap:butt;stroke-linejoin:miter;stroke-opacity:1"
           d="m 64.639928,254.11249 c 0,0 8.057382,125.74106 -8.246057,164.49516 -16.303442,38.75407 54.522979,-0.26729 54.522979,-0.26729 0,0 -44.178065,-120.52006 -46.276922,-164.22787"
           id="path79"
           inkscape:connector-curvature="0" />
      </g>
      <g
         transform="matrix(-1,0,0,1,78.335565,0)"
         id="g92">
        <path
           inkscape:connector-curvature="0"
           id="path86"
           d="m 49.940104,134.37574 c 0,0 8.057382,125.74106 -8.246057,164.49516 -16.303442,38.75407 54.522983,-0.26729 54.522983,-0.26729 0,0 -44.178069,-120.52006 -46.276926,-164.22787"
           style="fill:#ffcc00;stroke:#000000;stroke-width:0.26458332px;stroke-linecap:butt;stroke-linejoin:miter;stroke-opacity:1" />
        <path
           style="fill:#ff6600;stroke:#000000;stroke-width:0.26458332px;stroke-linecap:butt;stroke-linejoin:miter;stroke-opacity:1"
           d="m 55.820034,179.00975 c 0,0 8.057382,125.74106 -8.246057,164.49516 -16.303442,38.75407 54.522983,-0.26729 54.522983,-0.26729 0,0 -44.178069,-120.52006 -46.276926,-164.22787"
           id="path88"
           inkscape:connector-curvature="0" />
        <path
           inkscape:connector-curvature="0"
           id="path90"
           d="m 64.639928,254.11249 c 0,0 8.057382,125.74106 -8.246057,164.49516 -16.303442,38.75407 54.522979,-0.26729 54.522979,-0.26729 0,0 -44.178065,-120.52006 -46.276922,-164.22787"
           style="fill:#ff0000;stroke:#000000;stroke-width:0.26458332px;stroke-linecap:butt;stroke-linejoin:miter;stroke-opacity:1" />
      </g>
    </g>
    <g
       id="g3235"
       transform="translate(-13.796131,1.889881)">
      <ellipse
         ry="5.5751486"
         rx="5.8586307"
         cy="198.25372"
         cx="157.0491"
         id="path138"
         style="fill:#999999;stroke-width:0.26458332" />
      <ellipse
         ry="11.150297"
         rx="6.8035712"
         cy="212.7113"
         cx="156.86011"
         id="path140"
         style="fill:#999999;stroke-width:0.26458332" />
      <g
         transform="translate(2.4568452,-2.4568452)"
         id="g151">
        <ellipse
           style="fill:#999999;stroke-width:0.26458332"
           id="path142"
           cx="147.78868"
           cy="208.0811"
           rx="3.5907736"
           ry="3.4962797" />
        <circle
           style="fill:#999999;stroke-width:0.26458332"
           id="path144"
           cx="143.15848"
           cy="209.782"
           r="2.5513394" />
        <circle
           style="fill:#999999;stroke-width:0.26458332"
           id="path146"
           cx="140.60715"
           cy="212.33334"
           r="2.4568453" />
      </g>
      <g
         transform="matrix(-1,0,0,1,310.50743,-2.8348214)"
         id="g159">
        <ellipse
           ry="3.4962797"
           rx="3.5907736"
           cy="208.0811"
           cx="147.78868"
           id="ellipse153"
           style="fill:#999999;stroke-width:0.26458332" />
        <circle
           r="2.5513394"
           cy="209.782"
           cx="143.15848"
           id="circle155"
           style="fill:#999999;stroke-width:0.26458332" />
        <circle
           r="2.4568453"
           cy="212.33334"
           cx="140.60715"
           id="circle157"
           style="fill:#999999;stroke-width:0.26458332" />
      </g>
      <g
         id="g172">
        <ellipse
           style="fill:#999999;stroke-width:0.26458332"
           id="path161"
           cx="152.70239"
           cy="226.69644"
           rx="3.5907736"
           ry="8.6934528" />
        <ellipse
           style="fill:#999999;stroke-width:0.26458332"
           id="path165"
           cx="152.98586"
           cy="237.46875"
           rx="3.6852679"
           ry="5.6696429" />
        <ellipse
           style="fill:#999999;stroke-width:0.26458332"
           id="path167"
           cx="150.24553"
           cy="241.532"
           rx="4.7247024"
           ry="2.3623512" />
      </g>
      <g
         transform="matrix(-1,0,0,1,314.0982,0)"
         id="g180">
        <ellipse
           ry="8.6934528"
           rx="3.5907736"
           cy="226.69644"
           cx="152.70239"
           id="ellipse174"
           style="fill:#999999;stroke-width:0.26458332" />
        <ellipse
           ry="5.6696429"
           rx="3.6852679"
           cy="237.46875"
           cx="152.98586"
           id="ellipse176"
           style="fill:#999999;stroke-width:0.26458332" />
        <ellipse
           ry="2.3623512"
           rx="4.7247024"
           cy="241.532"
           cx="150.24553"
           id="ellipse178"
           style="fill:#999999;stroke-width:0.26458332" />
      </g>
      <ellipse
         ry="3.8742559"
         rx="4.8191962"
         cy="197.49776"
         cx="157.52158"
         id="path182"
         style="fill:#1a1a1a;stroke-width:0.26458332" />
    </g>
    <g
       id="g3275"
       transform="matrix(-0.62361624,0,0,0.62361624,288.15733,48.897574)">
      <ellipse
         style="fill:#999999;stroke-width:0.26458332"
         id="ellipse3237"
         cx="157.0491"
         cy="198.25372"
         rx="5.8586307"
         ry="5.5751486" />
      <ellipse
         style="fill:#999999;stroke-width:0.26458332"
         id="ellipse3239"
         cx="156.86011"
         cy="212.7113"
         rx="6.8035712"
         ry="11.150297" />
      <g
         id="g3247"
         transform="translate(2.4568452,-2.4568452)">
        <ellipse
           ry="3.4962797"
           rx="3.5907736"
           cy="208.0811"
           cx="147.78868"
           id="ellipse3241"
           style="fill:#999999;stroke-width:0.26458332" />
        <circle
           r="2.5513394"
           cy="209.782"
           cx="143.15848"
           id="circle3243"
           style="fill:#999999;stroke-width:0.26458332" />
        <circle
           r="2.4568453"
           cy="212.33334"
           cx="140.60715"
           id="circle3245"
           style="fill:#999999;stroke-width:0.26458332" />
      </g>
      <g
         id="g3255"
         transform="matrix(-1,0,0,1,310.50743,-2.8348214)">
        <ellipse
           style="fill:#999999;stroke-width:0.26458332"
           id="ellipse3249"
           cx="147.78868"
           cy="208.0811"
           rx="3.5907736"
           ry="3.4962797" />
        <circle
           style="fill:#999999;stroke-width:0.26458332"
           id="circle3251"
           cx="143.15848"
           cy="209.782"
           r="2.5513394" />
        <circle
           style="fill:#999999;stroke-width:0.26458332"
           id="circle3253"
           cx="140.60715"
           cy="212.33334"
           r="2.4568453" />
      </g>
      <g
         id="g3263">
        <ellipse
           ry="8.6934528"
           rx="3.5907736"
           cy="226.69644"
           cx="152.70239"
           id="ellipse3257"
           style="fill:#999999;stroke-width:0.26458332" />
        <ellipse
           ry="5.6696429"
           rx="3.6852679"
           cy="237.46875"
           cx="152.98586"
           id="ellipse3259"
           style="fill:#999999;stroke-width:0.26458332" />
        <ellipse
           ry="2.3623512"
           rx="4.7247024"
           cy="241.532"
           cx="150.24553"
           id="ellipse3261"
           style="fill:#999999;stroke-width:0.26458332" />
      </g>
      <g
         id="g3271"
         transform="matrix(-1,0,0,1,314.0982,0)">
        <ellipse
           style="fill:#999999;stroke-width:0.26458332"
           id="ellipse3265"
           cx="152.70239"
           cy="226.69644"
           rx="3.5907736"
           ry="8.6934528" />
        <ellipse
           style="fill:#999999;stroke-width:0.26458332"
           id="ellipse3267"
           cx="152.98586"
           cy="237.46875"
           rx="3.6852679"
           ry="5.6696429" />
        <ellipse
           style="fill:#999999;stroke-width:0.26458332"
           id="ellipse3269"
           cx="150.24553"
           cy="241.532"
           rx="4.7247024"
           ry="2.3623512" />
      </g>
      <ellipse
         style="fill:#1a1a1a;stroke-width:0.26458332"
         id="ellipse3273"
         cx="157.52158"
         cy="197.49776"
         rx="4.8191962"
         ry="3.8742559" />
    </g>
    <g
       transform="matrix(0.62361624,0,0,0.62361624,4.1633254,33.967514)"
       id="g3315">
      <ellipse
         ry="5.5751486"
         rx="5.8586307"
         cy="198.25372"
         cx="157.0491"
         id="ellipse3277"
         style="fill:#999999;stroke-width:0.26458332" />
      <ellipse
         ry="11.150297"
         rx="6.8035712"
         cy="212.7113"
         cx="156.86011"
         id="ellipse3279"
         style="fill:#999999;stroke-width:0.26458332" />
      <g
         transform="translate(2.4568452,-2.4568452)"
         id="g3287">
        <ellipse
           style="fill:#999999;stroke-width:0.26458332"
           id="ellipse3281"
           cx="147.78868"
           cy="208.0811"
           rx="3.5907736"
           ry="3.4962797" />
        <circle
           style="fill:#999999;stroke-width:0.26458332"
           id="circle3283"
           cx="143.15848"
           cy="209.782"
           r="2.5513394" />
        <circle
           style="fill:#999999;stroke-width:0.26458332"
           id="circle3285"
           cx="140.60715"
           cy="212.33334"
           r="2.4568453" />
      </g>
      <g
         transform="matrix(-1,0,0,1,310.50743,-2.8348214)"
         id="g3295">
        <ellipse
           ry="3.4962797"
           rx="3.5907736"
           cy="208.0811"
           cx="147.78868"
           id="ellipse3289"
           style="fill:#999999;stroke-width:0.26458332" />
        <circle
           r="2.5513394"
           cy="209.782"
           cx="143.15848"
           id="circle3291"
           style="fill:#999999;stroke-width:0.26458332" />
        <circle
           r="2.4568453"
           cy="212.33334"
           cx="140.60715"
           id="circle3293"
           style="fill:#999999;stroke-width:0.26458332" />
      </g>
      <g
         id="g3303">
        <ellipse
           style="fill:#999999;stroke-width:0.26458332"
           id="ellipse3297"
           cx="152.70239"
           cy="226.69644"
           rx="3.5907736"
           ry="8.6934528" />
        <ellipse
           style="fill:#999999;stroke-width:0.26458332"
           id="ellipse3299"
           cx="152.98586"
           cy="237.46875"
           rx="3.6852679"
           ry="5.6696429" />
        <ellipse
           style="fill:#999999;stroke-width:0.26458332"
           id="ellipse3301"
           cx="150.24553"
           cy="241.532"
           rx="4.7247024"
           ry="2.3623512" />
      </g>
      <g
         transform="matrix(-1,0,0,1,314.0982,0)"
         id="g3311">
        <ellipse
           ry="8.6934528"
           rx="3.5907736"
           cy="226.69644"
           cx="152.70239"
           id="ellipse3305"
           style="fill:#999999;stroke-width:0.26458332" />
        <ellipse
           ry="5.6696429"
           rx="3.6852679"
           cy="237.46875"
           cx="152.98586"
           id="ellipse3307"
           style="fill:#999999;stroke-width:0.26458332" />
        <ellipse
           ry="2.3623512"
           rx="4.7247024"
           cy="241.532"
           cx="150.24553"
           id="ellipse3309"
           style="fill:#999999;stroke-width:0.26458332" />
      </g>
      <ellipse
         ry="3.8742559"
         rx="4.8191962"
         cy="197.49776"
         cx="157.52158"
         id="ellipse3313"
         style="fill:#1a1a1a;stroke-width:0.26458332" />
    </g>
    <g
       transform="matrix(-1.4107145,0,0,1.1439114,404.54255,13.659743)"
       id="g3355">
      <ellipse
         style="fill:#999999;stroke-width:0.26458332"
         id="ellipse3317"
         cx="157.0491"
         cy="198.25372"
         rx="5.8586307"
         ry="5.5751486" />
      <ellipse
         style="fill:#999999;stroke-width:0.26458332"
         id="ellipse3319"
         cx="156.86011"
         cy="212.7113"
         rx="6.8035712"
         ry="11.150297" />
      <g
         id="g3327"
         transform="translate(2.4568452,-2.4568452)">
        <ellipse
           ry="3.4962797"
           rx="3.5907736"
           cy="208.0811"
           cx="147.78868"
           id="ellipse3321"
           style="fill:#999999;stroke-width:0.26458332" />
        <circle
           r="2.5513394"
           cy="209.782"
           cx="143.15848"
           id="circle3323"
           style="fill:#999999;stroke-width:0.26458332" />
        <circle
           r="2.4568453"
           cy="212.33334"
           cx="140.60715"
           id="circle3325"
           style="fill:#999999;stroke-width:0.26458332" />
      </g>
      <g
         id="g3335"
         transform="matrix(-1,0,0,1,310.50743,-2.8348214)">
        <ellipse
           style="fill:#999999;stroke-width:0.26458332"
           id="ellipse3329"
           cx="147.78868"
           cy="208.0811"
           rx="3.5907736"
           ry="3.4962797" />
        <circle
           style="fill:#999999;stroke-width:0.26458332"
           id="circle3331"
           cx="143.15848"
           cy="209.782"
           r="2.5513394" />
        <circle
           style="fill:#999999;stroke-width:0.26458332"
           id="circle3333"
           cx="140.60715"
           cy="212.33334"
           r="2.4568453" />
      </g>
      <g
         id="g3343">
        <ellipse
           ry="8.6934528"
           rx="3.5907736"
           cy="226.69644"
           cx="152.70239"
           id="ellipse3337"
           style="fill:#999999;stroke-width:0.26458332" />
        <ellipse
           ry="5.6696429"
           rx="3.6852679"
           cy="237.46875"
           cx="152.98586"
           id="ellipse3339"
           style="fill:#999999;stroke-width:0.26458332" />
        <ellipse
           ry="2.3623512"
           rx="4.7247024"
           cy="241.532"
           cx="150.24553"
           id="ellipse3341"
           style="fill:#999999;stroke-width:0.26458332" />
      </g>
      <g
         id="g3351"
         transform="matrix(-1,0,0,1,314.0982,0)">
        <ellipse
           style="fill:#999999;stroke-width:0.26458332"
           id="ellipse3345"
           cx="152.70239"
           cy="226.69644"
           rx="3.5907736"
           ry="8.6934528" />
        <ellipse
           style="fill:#999999;stroke-width:0.26458332"
           id="ellipse3347"
           cx="152.98586"
           cy="237.46875"
           rx="3.6852679"
           ry="5.6696429" />
        <ellipse
           style="fill:#999999;stroke-width:0.26458332"
           id="ellipse3349"
           cx="150.24553"
           cy="241.532"
           rx="4.7247024"
           ry="2.3623512" />
      </g>
      <ellipse
         style="fill:#1a1a1a;stroke-width:0.26458332"
         id="ellipse3353"
         cx="157.52158"
         cy="197.49776"
         rx="4.8191962"
         ry="3.8742559" />
    </g>
  </g>
</svg>
