<?xml version="1.0" encoding="UTF-8" standalone="no"?>
<!-- Created with Inkscape (http://www.inkscape.org/) -->

<svg
   xmlns:dc="http://purl.org/dc/elements/1.1/"
   xmlns:cc="http://creativecommons.org/ns#"
   xmlns:rdf="http://www.w3.org/1999/02/22-rdf-syntax-ns#"
   xmlns:svg="http://www.w3.org/2000/svg"
   xmlns="http://www.w3.org/2000/svg"
   xmlns:sodipodi="http://sodipodi.sourceforge.net/DTD/sodipodi-0.dtd"
   xmlns:inkscape="http://www.inkscape.org/namespaces/inkscape"
   width="210mm"
   height="297mm"
   viewBox="0 0 210 297"
   version="1.1"
   id="svg8"
   inkscape:version="0.92.3 (2405546, 2018-03-11)"
   sodipodi:docname="образец 1.svg">
  <defs
     id="defs2" />
  <sodipodi:namedview
     id="base"
     pagecolor="#ffffff"
     bordercolor="#666666"
     borderopacity="1.0"
     inkscape:pageopacity="0.0"
     inkscape:pageshadow="2"
     inkscape:zoom="0.7"
     inkscape:cx="395.85622"
     inkscape:cy="737.16374"
     inkscape:document-units="mm"
     inkscape:current-layer="layer1"
     showgrid="false"
     inkscape:window-width="910"
     inkscape:window-height="651"
     inkscape:window-x="1915"
     inkscape:window-y="11"
     inkscape:window-maximized="0" />
  <metadata
     id="metadata5">
    <rdf:RDF>
      <cc:Work
         rdf:about="">
        <dc:format>image/svg+xml</dc:format>
        <dc:type
           rdf:resource="http://purl.org/dc/dcmitype/StillImage" />
        <dc:title></dc:title>
      </cc:Work>
    </rdf:RDF>
  </metadata>
  <g
     inkscape:label="Layer 1"
     inkscape:groupmode="layer"
     id="layer1">
    <rect
       style="opacity:1;vector-effect:none;fill:#9eeaf5;fill-opacity:0.96744186;stroke:none;stroke-width:0.26458332;stroke-linecap:butt;stroke-linejoin:miter;stroke-miterlimit:4;stroke-dasharray:none;stroke-dashoffset:0;stroke-opacity:1"
       id="rect3713"
       width="164.63803"
       height="54.522984"
       x="21.381561"
       y="20.103397"
       ry="1.3879115e-006" />
    <rect
       style="opacity:1;vector-effect:none;fill:#0e9325;fill-opacity:1;stroke:none;stroke-width:0.26458332;stroke-linecap:butt;stroke-linejoin:miter;stroke-miterlimit:4;stroke-dasharray:none;stroke-dashoffset:0;stroke-opacity:1"
       id="rect3717"
       width="164.63803"
       height="54.522984"
       x="21.381561"
       y="74.078384"
       ry="1.3879115e-006" />
    <path
       style="fill:none;stroke:#000000;stroke-width:4.065;stroke-linecap:butt;stroke-linejoin:miter;stroke-opacity:1;stroke-miterlimit:4;stroke-dasharray:none"
       d="m 142.11905,69.83631 c 0.36255,8.551629 -0.12224,14.59594 -0.0943,18.804312"
       id="path4556"
       inkscape:connector-curvature="0"
       sodipodi:nodetypes="cc" />
    <rect
       style="opacity:1;vector-effect:none;fill:#936b0e;fill-opacity:1;stroke:#000000;stroke-width:0.26458332;stroke-linecap:butt;stroke-linejoin:miter;stroke-miterlimit:4;stroke-dasharray:none;stroke-dashoffset:0;stroke-opacity:1"
       id="rect4524"
       width="41.577381"
       height="27.970238"
       x="46.49107"
       y="65.678566"
       ry="1.3879115e-006" />
    <rect
       style="opacity:1;vector-effect:none;fill:#0e9391;fill-opacity:1;stroke:#fe5015;stroke-width:0.26458332;stroke-linecap:butt;stroke-linejoin:miter;stroke-miterlimit:4;stroke-dasharray:none;stroke-dashoffset:0;stroke-opacity:1"
       id="rect4526"
       width="12.851191"
       height="10.961308"
       x="60.929768"
       y="74.372025"
       ry="1.3879115e-006" />
    <path
       style="fill:#eb2f44;stroke:#000000;stroke-width:0.26458332px;stroke-linecap:butt;stroke-linejoin:miter;stroke-opacity:1;fill-opacity:1"
       d="M 46.491069,65.678565 H 88.068451 L 66.901784,45.267856 Z"
       id="path4528"
       inkscape:connector-curvature="0" />
    <path
       sodipodi:type="star"
       style="opacity:1;vector-effect:none;fill:#f9c2c2;fill-opacity:1;stroke:#000000;stroke-width:0.13955468;stroke-linecap:butt;stroke-linejoin:miter;stroke-miterlimit:4;stroke-dasharray:none;stroke-dashoffset:0;stroke-opacity:1"
       id="path4530"
       sodipodi:sides="20"
       sodipodi:cx="79.147446"
       sodipodi:cy="18.892471"
       sodipodi:r1="8.1373663"
       sodipodi:r2="7.3236299"
       sodipodi:arg1="0.5404195"
       sodipodi:arg2="0.69749913"
       inkscape:flatsided="false"
       inkscape:rounded="0.15"
       inkscape:randomized="0.019"
       d="m 86.013862,23.225502 c -0.10711,0.189159 -0.972956,0.207993 -1.11843,0.373351 -0.145473,0.165357 -0.288335,1.210878 -0.455313,1.354952 -0.166978,0.144073 -1.299628,0.04391 -1.485922,0.157809 -0.186295,0.113901 -0.557258,1.250963 -0.756218,1.339908 -0.198959,0.08894 -0.958765,-0.55011 -1.171179,-0.498551 -0.212415,0.05156 -0.969459,0.951929 -1.187981,0.974087 -0.218521,0.02216 -1.016052,-0.787072 -1.232803,-0.796437 -0.216752,-0.0094 -1.09394,0.632883 -1.306575,0.578847 -0.212636,-0.05404 -0.641931,-0.98448 -0.84547,-1.069308 -0.203539,-0.08483 -1.447875,0.369308 -1.634965,0.252257 -0.187089,-0.117051 -0.259382,-1.127399 -0.423881,-1.268783 -0.164499,-0.141384 -1.223799,-0.170097 -1.371367,-0.332654 -0.147569,-0.162557 0.152864,-1.353595 0.03825,-1.541758 -0.114618,-0.188163 -1.392719,-0.511927 -1.478809,-0.712546 -0.08609,-0.20062 0.368132,-1.013898 0.314875,-1.226169 -0.05326,-0.212271 -0.823993,-0.975946 -0.847979,-1.191819 -0.02399,-0.215872 0.795846,-0.959087 0.814296,-1.177855 0.01845,-0.218768 -0.711475,-1.130681 -0.655987,-1.343029 0.05549,-0.212347 0.942019,-0.765886 1.025209,-0.969641 0.08319,-0.203755 -0.146452,-1.108753 -0.03854,-1.301304 0.10791,-0.192551 1.290935,-0.512941 1.42765,-0.68257 0.136716,-0.169629 0.117817,-1.391094 0.285298,-1.53142 0.16748,-0.140326 1.159776,0.128224 1.347031,0.01113 0.187255,-0.117091 0.55625,-1.277997 0.755899,-1.366622 0.199649,-0.08862 1.098047,0.435898 1.310707,0.383035 0.212661,-0.05286 1.032859,-0.752661 1.250791,-0.775993 0.217932,-0.02333 0.873472,0.584954 1.093276,0.602734 0.219804,0.01778 1.032467,-0.51704 1.243765,-0.467722 0.211298,0.04932 0.646223,0.976644 0.845783,1.061783 0.19956,0.08514 1.446706,-0.328953 1.634969,-0.218019 0.188264,0.110935 0.253131,1.381551 0.423558,1.517052 0.170427,0.1355 1.230858,-0.04677 1.371696,0.118624 0.140837,0.165392 0.150103,1.26436 0.270645,1.446568 0.120543,0.182208 1.090105,0.543729 1.169594,0.746785 0.07949,0.203056 -0.370655,1.22913 -0.319648,1.443913 0.05101,0.214784 0.823184,0.974986 0.847979,1.191819 0.02479,0.216833 -0.797224,0.934611 -0.814614,1.151142 -0.01739,0.216531 0.691272,0.988552 0.639317,1.200305 -0.05196,0.211753 -0.930121,0.873528 -1.008544,1.078127 -0.07842,0.2046 0.150754,1.29881 0.04364,1.487968 z"
       inkscape:transform-center-x="0.59983335"
       inkscape:transform-center-y="0.2465594"
       transform="translate(86.14571,17.854381)" />
    <circle
       style="opacity:1;vector-effect:none;fill:#fef9f9;fill-opacity:1;stroke:#000000;stroke-width:0.26458332;stroke-linecap:butt;stroke-linejoin:miter;stroke-miterlimit:4;stroke-dasharray:none;stroke-dashoffset:0;stroke-opacity:1"
       id="path4532"
       cx="102.43154"
       cy="38.842262"
       r="6.8035712" />
    <circle
       r="6.8035712"
       cy="38.842262"
       cx="109.83988"
       id="circle4534"
       style="opacity:1;vector-effect:none;fill:#fef9f9;fill-opacity:1;stroke:#000000;stroke-width:0.26458332;stroke-linecap:butt;stroke-linejoin:miter;stroke-miterlimit:4;stroke-dasharray:none;stroke-dashoffset:0;stroke-opacity:1" />
    <circle
       style="opacity:1;vector-effect:none;fill:#fef9f9;fill-opacity:1;stroke:#000000;stroke-width:0.26458332;stroke-linecap:butt;stroke-linejoin:miter;stroke-miterlimit:4;stroke-dasharray:none;stroke-dashoffset:0;stroke-opacity:1"
       id="circle4536"
       cx="116.71906"
       cy="38.842262"
       r="6.8035712" />
    <circle
       r="6.8035712"
       cy="38.842262"
       cx="124.12737"
       id="circle4538"
       style="opacity:1;vector-effect:none;fill:#fef9f9;fill-opacity:1;stroke:#000000;stroke-width:0.26458332;stroke-linecap:butt;stroke-linejoin:miter;stroke-miterlimit:4;stroke-dasharray:none;stroke-dashoffset:0;stroke-opacity:1" />
    <circle
       style="opacity:1;vector-effect:none;fill:#fef9f9;fill-opacity:1;stroke:#000000;stroke-width:0.26458332;stroke-linecap:butt;stroke-linejoin:miter;stroke-miterlimit:4;stroke-dasharray:none;stroke-dashoffset:0;stroke-opacity:1"
       id="circle4540"
       cx="117.77738"
       cy="34.079758"
       r="6.8035712" />
    <circle
       r="6.8035712"
       cy="34.079758"
       cx="109.31071"
       id="circle4542"
       style="opacity:1;vector-effect:none;fill:#fef9f9;fill-opacity:1;stroke:#000000;stroke-width:0.26458332;stroke-linecap:butt;stroke-linejoin:miter;stroke-miterlimit:4;stroke-dasharray:none;stroke-dashoffset:0;stroke-opacity:1" />
    <circle
       style="opacity:1;vector-effect:none;fill:#0f530e;fill-opacity:1;stroke:#000000;stroke-width:0.26458332;stroke-linecap:butt;stroke-linejoin:miter;stroke-miterlimit:4;stroke-dasharray:none;stroke-dashoffset:0;stroke-opacity:1"
       id="circle4544"
       cx="142.95059"
       cy="49.576782"
       r="6.8035712" />
    <circle
       r="6.8035712"
       cy="56.380352"
       cx="135.01309"
       id="circle4546"
       style="opacity:1;vector-effect:none;fill:#0f530e;fill-opacity:1;stroke:#000000;stroke-width:0.26458332;stroke-linecap:butt;stroke-linejoin:miter;stroke-miterlimit:4;stroke-dasharray:none;stroke-dashoffset:0;stroke-opacity:1" />
    <circle
       style="opacity:1;vector-effect:none;fill:#0f530e;fill-opacity:1;stroke:#000000;stroke-width:0.26458332;stroke-linecap:butt;stroke-linejoin:miter;stroke-miterlimit:4;stroke-dasharray:none;stroke-dashoffset:0;stroke-opacity:1"
       id="circle4548"
       cx="150.88809"
       cy="55.624401"
       r="6.8035712" />
    <circle
       r="6.8035712"
       cy="61.294044"
       cx="142.57262"
       id="circle4550"
       style="opacity:1;vector-effect:none;fill:#0f530e;fill-opacity:1;stroke:#000000;stroke-width:0.26458332;stroke-linecap:butt;stroke-linejoin:miter;stroke-miterlimit:4;stroke-dasharray:none;stroke-dashoffset:0;stroke-opacity:1" />
    <circle
       style="opacity:1;vector-effect:none;fill:#0f530e;fill-opacity:1;stroke:#000000;stroke-width:0.26458332;stroke-linecap:butt;stroke-linejoin:miter;stroke-miterlimit:4;stroke-dasharray:none;stroke-dashoffset:0;stroke-opacity:1"
       id="circle4552"
       cx="136.14702"
       cy="65.451782"
       r="6.8035712" />
    <circle
       r="6.8035712"
       cy="66.585709"
       cx="148.62024"
       id="circle4554"
       style="opacity:1;vector-effect:none;fill:#0f530e;fill-opacity:1;stroke:#000000;stroke-width:0.26458332;stroke-linecap:butt;stroke-linejoin:miter;stroke-miterlimit:4;stroke-dasharray:none;stroke-dashoffset:0;stroke-opacity:1" />
  </g>
</svg>
