<?xml version="1.0" encoding="UTF-8" standalone="no"?>
<!-- Created with Inkscape (http://www.inkscape.org/) -->

<svg
   xmlns:dc="http://purl.org/dc/elements/1.1/"
   xmlns:cc="http://creativecommons.org/ns#"
   xmlns:rdf="http://www.w3.org/1999/02/22-rdf-syntax-ns#"
   xmlns:svg="http://www.w3.org/2000/svg"
   xmlns="http://www.w3.org/2000/svg"
   xmlns:sodipodi="http://sodipodi.sourceforge.net/DTD/sodipodi-0.dtd"
   xmlns:inkscape="http://www.inkscape.org/namespaces/inkscape"
   width="210mm"
   height="297mm"
   viewBox="0 0 210 297"
   version="1.1"
   id="svg192"
   inkscape:version="0.92.4 (5da689c313, 2019-01-14)"
   sodipodi:docname="001.svg">
  <defs
     id="defs186" />
  <sodipodi:namedview
     id="base"
     pagecolor="#ffffff"
     bordercolor="#666666"
     borderopacity="1.0"
     inkscape:pageopacity="0.0"
     inkscape:pageshadow="2"
     inkscape:zoom="0.49497475"
     inkscape:cx="85.952746"
     inkscape:cy="858.28049"
     inkscape:document-units="mm"
     inkscape:current-layer="layer1"
     showgrid="false"
     inkscape:window-width="1920"
     inkscape:window-height="1018"
     inkscape:window-x="-8"
     inkscape:window-y="-8"
     inkscape:window-maximized="1" />
  <metadata
     id="metadata189">
    <rdf:RDF>
      <cc:Work
         rdf:about="">
        <dc:format>image/svg+xml</dc:format>
        <dc:type
           rdf:resource="http://purl.org/dc/dcmitype/StillImage" />
        <dc:title></dc:title>
      </cc:Work>
    </rdf:RDF>
  </metadata>
  <g
     inkscape:label="Layer 1"
     inkscape:groupmode="layer"
     id="layer1">
    <rect
       style="fill:#55ddff;stroke-width:0.26458332"
       id="rect196"
       width="216.48831"
       height="160.36172"
       x="-3.7417734"
       y="-1.2727927" />
    <rect
       style="fill:#0044aa;stroke-width:0.26458332"
       id="rect198"
       width="216.48831"
       height="219.16101"
       x="-1.6036172"
       y="78.908066" />
    <g
       id="g370"
       transform="matrix(0.56328962,0,0,0.78333354,62.780602,-7.6732894)">
      <g
         style="fill:#aa87de"
         id="g299">
        <path
           style="fill:#aa87de;stroke:#000000;stroke-width:0.26458332px;stroke-linecap:butt;stroke-linejoin:miter;stroke-opacity:1"
           d="m 136.30746,201.45114 c -2.02027,4.20814 -5.06372,7.7286 -9.3964,9.57051 -7.35287,4.54082 -16.25979,4.79734 -24.52004,6.30967 -5.58668,-0.17882 -11.041762,1.35385 -16.625067,0.97396 -4.268119,0.15386 -8.130845,2.00628 -12.224526,3.05061 -4.556806,2.23973 -8.167297,6.13348 -11.866169,9.50051 -3.138997,2.42054 -4.914886,6.23967 -8.536788,8.07202 -5.026471,1.81422 -9.242386,5.85812 -14.761754,6.35492 -2.814176,0 -5.628352,0 -8.442528,0 4.916021,1.36082 9.97679,1.88286 15.067251,1.60364 4.289384,0.62937 8.192176,-0.88412 12.105663,-2.415 4.724211,-1.04354 8.529439,-4.0105 12.290616,-6.82489 4.073294,-3.58477 8.269773,-7.50024 13.723104,-8.80082 5.090085,-1.72005 10.576645,-0.78548 15.81382,-1.62229 6.738648,0.13444 13.496988,0.0997 20.145758,-1.12015 4.73094,-1.06239 9.02092,-3.87674 13.31634,-6.08958 3.93918,-2.64809 6.46244,-6.63519 8.5412,-10.7596 0.83307,-1.2501 0.7316,-3.13178 1.91762,-4.06173"
           id="path273"
           inkscape:connector-curvature="0" />
        <path
           inkscape:connector-curvature="0"
           id="path277"
           d="m 141.57574,196.2097 c -3.481,3.11008 -7.64276,5.19236 -12.35056,5.22977 -8.53269,1.37004 -12.61591,4.00246 -20.82378,2.22772 -5.08993,-2.30989 -14.95505,-8.80393 -19.96467,-11.29819 -4.00013,-1.49649 -8.624752,2.34973 -12.805666,1.74243 -5.067475,0.31871 -9.549407,-1.0907 -14.25747,0.59829 -3.827726,1.02997 -6.933727,3.87467 -10.981542,4.17613 -5.337792,-0.25451 -10.783134,1.86098 -16.070285,0.20078 l -7.795586,-3.24116 c 4.016881,3.14385 8.489433,5.56875 13.297012,7.2652 3.719073,2.22788 7.90384,2.32868 12.105159,2.41753 4.762824,0.85009 9.415503,-0.42865 13.968934,-1.58343 5.137386,-1.7463 10.515476,-3.75067 16.050226,-2.85801 5.360388,0.36589 10.067728,3.33518 15.224838,4.57309 6.17066,2.71116 12.42445,5.27367 19.03204,6.69981 4.77628,0.83527 9.81798,-0.11646 14.63377,-0.51068 4.65395,-0.93288 8.51454,-3.64576 12.0174,-6.65606 1.24916,-0.83449 1.87786,-2.61093 3.33001,-3.0143"
           style="fill:#aa87de;stroke:#000000;stroke-width:0.26458332px;stroke-linecap:butt;stroke-linejoin:miter;stroke-opacity:1"
           sodipodi:nodetypes="cccccccccccccccccc" />
        <path
           sodipodi:nodetypes="cccccccccccccccccc"
           style="fill:#aa87de;stroke:#000000;stroke-width:0.26458332px;stroke-linecap:butt;stroke-linejoin:miter;stroke-opacity:1"
           d="m 150.7954,196.2097 c 3.481,3.11008 7.64276,5.19236 12.35056,5.22977 8.53269,1.37004 12.61591,4.00246 20.82378,2.22772 5.08993,-2.30989 14.95505,-8.80393 19.96467,-11.29819 4.00013,-1.49649 8.62475,2.34973 12.80567,1.74243 5.06747,0.31871 9.5494,-1.0907 14.25747,0.59829 3.82772,1.02997 6.93372,3.87467 10.98154,4.17613 5.33779,-0.25451 10.78313,1.86098 16.07028,0.20078 l 7.79559,-3.24116 c -4.01688,3.14385 -8.48943,5.56875 -13.29701,7.2652 -3.71907,2.22788 -7.90384,2.32868 -12.10516,2.41753 -4.76282,0.85009 -9.4155,-0.42865 -13.96893,-1.58343 -5.13739,-1.7463 -10.51548,-3.75067 -16.05023,-2.85801 -5.36039,0.36589 -10.06773,3.33518 -15.22484,4.57309 -6.17066,2.71116 -12.42445,5.27367 -19.03204,6.69981 -4.77628,0.83527 -9.81798,-0.11646 -14.63377,-0.51068 -4.65395,-0.93288 -8.51454,-3.64576 -12.0174,-6.65606 -1.24916,-0.83449 -1.87786,-2.61093 -3.33001,-3.0143"
           id="path279"
           inkscape:connector-curvature="0" />
        <path
           inkscape:connector-curvature="0"
           id="path281"
           d="m 150.7954,196.2097 c 2.02027,4.20814 5.06372,7.7286 9.3964,9.57051 7.35287,4.54082 16.25979,4.79734 24.52004,6.30967 5.58668,-0.17882 11.04176,1.35385 16.62507,0.97396 4.26812,0.15386 8.13084,2.00628 12.22452,3.05061 4.55681,2.23973 8.1673,6.13348 11.86618,9.50051 3.13899,2.42054 4.91488,6.23967 8.53678,8.07202 5.02647,1.81422 9.24239,5.85812 14.76176,6.35492 2.81417,0 5.62835,0 8.44253,0 -4.91603,1.36082 -9.97679,1.88286 -15.06726,1.60364 -4.28938,0.62937 -8.19217,-0.88412 -12.10566,-2.415 -4.72421,-1.04354 -8.52944,-4.0105 -12.29061,-6.82489 -4.0733,-3.58477 -8.26978,-7.50024 -13.72311,-8.80082 -5.09009,-1.72005 -10.57665,-0.78548 -15.81382,-1.62229 -6.73865,0.13444 -13.49699,0.0997 -20.14576,-1.12015 -4.73094,-1.06239 -9.02092,-3.87674 -13.31634,-6.08958 -3.93918,-2.64809 -6.46244,-6.63519 -8.5412,-10.7596 -0.83307,-1.2501 -0.7316,-3.13178 -1.91762,-4.06173"
           style="fill:#aa87de;stroke:#000000;stroke-width:0.26458332px;stroke-linecap:butt;stroke-linejoin:miter;stroke-opacity:1" />
        <path
           style="fill:#aa87de;stroke:#000000;stroke-width:0.26458332px;stroke-linecap:butt;stroke-linejoin:miter;stroke-opacity:1"
           d="m 152.68104,196.60361 c -0.97209,4.56563 -0.71403,9.2121 1.59025,13.31759 3.04593,8.0874 9.93991,13.73293 15.55465,19.97742 4.53168,3.27212 7.91341,7.81864 12.56529,10.92954 3.28464,2.72978 5.21047,6.55642 7.81291,9.88451 2.23862,4.55736 2.71745,9.8458 3.58811,14.7713 1.00578,3.83415 0.0779,7.94251 1.82541,11.60612 2.8704,4.5075 3.73675,10.28475 7.80233,14.05056 2.2277,1.71957 4.45541,3.43914 6.68312,5.15871 -4.72305,-1.92666 -9.04814,-4.60573 -12.90715,-7.93723 -3.78005,-2.12276 -5.9447,-5.7056 -8.1072,-9.30873 -3.10204,-3.71274 -4.30134,-8.38653 -5.55899,-12.91263 -1.034,-5.32665 -1.96344,-10.99035 -5.48559,-15.35208 -2.97831,-4.47183 -7.89254,-7.08452 -11.52696,-10.94705 -5.41647,-4.01115 -10.74516,-8.16825 -15.26296,-13.19654 -3.09585,-3.73177 -4.77213,-8.58096 -6.82026,-12.95731 -1.50018,-4.50322 -1.06132,-9.20122 -0.1867,-13.73631 0.1044,-1.49862 1.3345,-2.92616 0.96388,-4.38701"
           id="path283"
           inkscape:connector-curvature="0" />
        <path
           inkscape:connector-curvature="0"
           id="path285"
           d="m 142.52819,195.93706 c 0.97209,4.56563 0.71403,9.2121 -1.59025,13.31759 -3.04593,8.0874 -9.93991,13.73293 -15.55465,19.97742 -4.53168,3.27212 -7.91341,7.81864 -12.56529,10.92954 -3.28464,2.72978 -5.21047,6.55642 -7.81291,9.88451 -2.23862,4.55736 -2.71745,9.8458 -3.58811,14.7713 -1.00578,3.83415 -0.0779,7.94251 -1.82541,11.60612 -2.8704,4.5075 -3.73675,10.28475 -7.80233,14.05056 -2.2277,1.71957 -4.45541,3.43914 -6.68312,5.15871 4.72305,-1.92666 9.04814,-4.60573 12.90715,-7.93723 3.78005,-2.12276 5.9447,-5.7056 8.1072,-9.30873 3.10204,-3.71274 4.30134,-8.38653 5.55899,-12.91263 1.034,-5.32665 1.96344,-10.99035 5.48559,-15.35208 2.97831,-4.47183 7.89254,-7.08452 11.52696,-10.94705 5.41647,-4.01115 10.74516,-8.16825 15.26296,-13.19654 3.09585,-3.73177 4.77213,-8.58096 6.82026,-12.95731 1.50018,-4.50322 1.06132,-9.20122 0.1867,-13.73631 -0.1044,-1.49862 -1.3345,-2.92616 -0.96388,-4.38701"
           style="fill:#aa87de;stroke:#000000;stroke-width:0.26458332px;stroke-linecap:butt;stroke-linejoin:miter;stroke-opacity:1" />
        <path
           style="fill:#aa87de;stroke:#000000;stroke-width:0.26458332px;stroke-linecap:butt;stroke-linejoin:miter;stroke-opacity:1"
           d="m 157.71288,211.80137 c -4.58615,-0.87017 -9.22572,-0.50871 -13.27888,1.88642 -8.01756,3.22527 -13.50818,10.24326 -19.62608,15.99566 -3.1704,4.60343 -7.64048,8.08556 -10.64702,12.80556 -2.65596,3.34462 -6.43877,5.35518 -9.70808,8.03109 -4.506377,2.33955 -9.782842,2.93603 -14.687733,3.91616 -3.810801,1.09091 -7.938805,0.25475 -11.562592,2.08341 -4.442462,2.97006 -10.198987,3.96485 -13.873329,8.11328 -1.669535,2.26544 -3.339071,4.53089 -5.008606,6.79634 1.821006,-4.76478 4.403098,-9.14846 7.647837,-13.0807 2.038057,-3.82638 5.571804,-6.07028 9.125885,-8.31248 3.642741,-3.18395 8.288665,-4.48703 12.785637,-5.84516 5.302303,-1.15236 10.943901,-2.20769 15.226121,-5.8261 4.40439,-3.07715 6.907,-8.04835 10.68764,-11.76788 3.88954,-5.50444 7.92695,-10.92439 12.85338,-15.55304 3.66191,-3.17818 8.47257,-4.96203 12.80222,-7.10711 4.4687,-1.60009 9.17531,-1.26595 13.72875,-0.49254 1.50057,0.071 2.95515,1.26901 4.40738,0.86595"
           id="path287"
           inkscape:connector-curvature="0" />
        <path
           inkscape:connector-curvature="0"
           id="path289"
           d="m 136.94407,211.99394 c 4.58615,-0.87017 9.22572,-0.50871 13.27889,1.88642 8.01756,3.22527 13.50817,10.24326 19.62608,15.99566 3.17039,4.60343 7.64048,8.08556 10.64702,12.80556 2.65596,3.34462 6.43877,5.35518 9.70808,8.03109 4.50637,2.33955 9.78284,2.93603 14.68773,3.91616 3.8108,1.09091 7.9388,0.25475 11.56259,2.08341 4.44246,2.97006 10.19899,3.96485 13.87333,8.11328 1.66953,2.26544 3.33907,4.53089 5.00861,6.79634 -1.82101,-4.76478 -4.4031,-9.14846 -7.64784,-13.0807 -2.03806,-3.82638 -5.57181,-6.07028 -9.12589,-8.31248 -3.64274,-3.18395 -8.28866,-4.48703 -12.78563,-5.84516 -5.30231,-1.15236 -10.9439,-2.20769 -15.22612,-5.8261 -4.40439,-3.07715 -6.907,-8.04835 -10.68764,-11.76788 -3.88955,-5.50444 -7.92696,-10.92439 -12.85339,-15.55304 -3.66191,-3.17818 -8.47257,-4.96203 -12.80222,-7.10711 -4.4687,-1.60009 -9.17531,-1.26595 -13.72875,-0.49254 -1.50057,0.071 -2.95515,1.26901 -4.40737,0.86595"
           style="fill:#aa87de;stroke:#000000;stroke-width:0.26458332px;stroke-linecap:butt;stroke-linejoin:miter;stroke-opacity:1" />
      </g>
      <ellipse
         ry="14.684089"
         rx="19.256163"
         cy="201.44472"
         cx="147.62263"
         id="path259"
         style="fill:#aa87de;stroke-width:0.42810026" />
      <g
         id="g338">
        <g
           id="g328"
           transform="matrix(0.5146195,2.0351977,-1.8828212,0.55626759,337.99165,-107.72171)"
           style="fill:#2ad4ff">
          <ellipse
             style="fill:#2ad4ff;stroke-width:0.26458332"
             id="path210-8"
             cx="114.3378"
             cy="136.7381"
             rx="2.6058779"
             ry="2.4722431" />
        </g>
        <ellipse
           ry="2.0660992"
           rx="2.7001319"
           cy="-86.401009"
           cx="233.56316"
           id="path212-1"
           style="fill:#0b1728;stroke-width:0.53713745"
           transform="matrix(0.24514411,0.96948665,-0.95902054,0.28333654,0,0)" />
        <ellipse
           transform="matrix(0.80303423,0.5959329,-0.53613904,0.84412969,0,0)"
           ry="0.86050934"
           rx="2.1422648"
           cy="78.635811"
           cx="224.06717"
           id="path214-5"
           style="fill:#d7d7f4;stroke-width:0.53763485" />
      </g>
      <g
         transform="matrix(-1,0,0,1,293.59301,0)"
         id="g348">
        <g
           style="fill:#2ad4ff"
           transform="matrix(0.5146195,2.0351977,-1.8828212,0.55626759,337.99165,-107.72171)"
           id="g342">
          <ellipse
             ry="2.4722431"
             rx="2.6058779"
             cy="136.7381"
             cx="114.3378"
             id="ellipse340"
             style="fill:#2ad4ff;stroke-width:0.26458332" />
        </g>
        <ellipse
           transform="matrix(0.24514411,0.96948665,-0.95902054,0.28333654,0,0)"
           style="fill:#0b1728;stroke-width:0.53713745"
           id="ellipse344"
           cx="233.56316"
           cy="-86.401009"
           rx="2.7001319"
           ry="2.0660992" />
        <ellipse
           style="fill:#d7d7f4;stroke-width:0.53763485"
           id="ellipse346"
           cx="224.06717"
           cy="78.635811"
           rx="2.1422648"
           ry="0.86050934"
           transform="matrix(0.80303423,0.5959329,-0.53613904,0.84412969,0,0)" />
      </g>
    </g>
    <g
       id="g223"
       transform="translate(10.958051,-3.2072343)">
      <path
         inkscape:connector-curvature="0"
         id="path204"
         d="m 20.713388,135.03466 c 4.276313,-2.80633 4.276313,-5.87992 4.276313,-5.87992 l 2.939964,8.28535 c 0,0 -1.069078,2.40543 -7.750816,0.80181 -6.681738,-1.60362 0.133635,0 0.133635,0 z"
         style="fill:#d35f5f;stroke:#000000;stroke-width:0.26458332px;stroke-linecap:butt;stroke-linejoin:miter;stroke-opacity:1" />
      <path
         style="fill:#d35f5f;stroke:#000000;stroke-width:0.26458332px;stroke-linecap:butt;stroke-linejoin:miter;stroke-opacity:1"
         d="m 14.298919,153.84852 c 4.276313,2.80633 4.276313,5.87992 4.276313,5.87992 l 2.939964,-8.28535 c 0,0 -1.069078,-2.40543 -7.750816,-0.80181 -6.6817376,1.60362 0.133635,0 0.133635,0 z"
         id="path206"
         inkscape:connector-curvature="0" />
      <path
         inkscape:connector-curvature="0"
         id="path208"
         d="m 7.6858388,141.62417 c -6.6501194,3.88221 -9.7236575,10.18658 -9.7236575,10.18658 l 5.6425682,-18.28277 c 0,0 3.3663516,-4.46539 7.7687555,1.75193 4.402404,6.21733 -0.12012,-0.0586 -0.12012,-0.0586 z"
         style="fill:#d35f5f;stroke:#000000;stroke-width:0.39967999px;stroke-linecap:butt;stroke-linejoin:miter;stroke-opacity:1" />
      <path
         inkscape:connector-curvature="0"
         id="path202"
         d="M 17.764881,122.75298 C 1.1339286,134.47024 7.5595238,155.25893 9.0714284,160.55059 10.583333,165.84226 3.7797618,177.55952 3.7797618,177.55952 L 15.875,177.18154 9.4494047,162.0625 c 0,0 17.7648803,-21.16667 8.3154763,-39.30952 z"
         style="fill:#93aca7;stroke:#000000;stroke-width:0.26458332px;stroke-linecap:butt;stroke-linejoin:miter;stroke-opacity:1" />
      <ellipse
         ry="2.4722431"
         rx="2.6058779"
         cy="130.82516"
         cx="15.969354"
         id="path210"
         style="fill:#0000ff;stroke-width:0.26458332" />
      <ellipse
         ry="1.0523738"
         rx="1.2862346"
         cy="130.5746"
         cx="16.487188"
         id="path212"
         style="fill:#0b1728;stroke-width:0.26458332" />
      <ellipse
         transform="rotate(-40.241932)"
         ry="0.41760862"
         rx="1.0690781"
         cy="110.20085"
         cx="-73.307335"
         id="path214"
         style="fill:#d7d7f4;stroke-width:0.26458332" />
    </g>
    <g
       id="g239"
       transform="matrix(0.24125036,1.358318,-0.90120446,0.36361861,316.92724,205.28591)">
      <path
         style="fill:#d35f5f;stroke:#000000;stroke-width:0.26458332px;stroke-linecap:butt;stroke-linejoin:miter;stroke-opacity:1"
         d="m 20.713388,135.03466 c 4.276313,-2.80633 4.276313,-5.87992 4.276313,-5.87992 l 2.939964,8.28535 c 0,0 -1.069078,2.40543 -7.750816,0.80181 -6.681738,-1.60362 0.133635,0 0.133635,0 z"
         id="path225"
         inkscape:connector-curvature="0" />
      <path
         inkscape:connector-curvature="0"
         id="path227"
         d="m 14.298919,153.84852 c 4.276313,2.80633 4.276313,5.87992 4.276313,5.87992 l 2.939964,-8.28535 c 0,0 -1.069078,-2.40543 -7.750816,-0.80181 -6.6817376,1.60362 0.133635,0 0.133635,0 z"
         style="fill:#d35f5f;stroke:#000000;stroke-width:0.26458332px;stroke-linecap:butt;stroke-linejoin:miter;stroke-opacity:1" />
      <path
         style="fill:#d35f5f;stroke:#000000;stroke-width:0.39967999px;stroke-linecap:butt;stroke-linejoin:miter;stroke-opacity:1"
         d="m 7.6858388,141.62417 c -6.6501194,3.88221 -9.7236575,10.18658 -9.7236575,10.18658 l 5.6425682,-18.28277 c 0,0 3.3663516,-4.46539 7.7687555,1.75193 4.402404,6.21733 -0.12012,-0.0586 -0.12012,-0.0586 z"
         id="path229"
         inkscape:connector-curvature="0" />
      <path
         style="fill:#93aca7;stroke:#000000;stroke-width:0.26458332px;stroke-linecap:butt;stroke-linejoin:miter;stroke-opacity:1"
         d="M 17.764881,122.75298 C 1.1339286,134.47024 7.5595238,155.25893 9.0714284,160.55059 10.583333,165.84226 3.7797618,177.55952 3.7797618,177.55952 L 15.875,177.18154 9.4494047,162.0625 c 0,0 17.7648803,-21.16667 8.3154763,-39.30952 z"
         id="path231"
         inkscape:connector-curvature="0" />
      <ellipse
         style="fill:#0000ff;stroke-width:0.26458332"
         id="ellipse233"
         cx="15.969354"
         cy="130.82516"
         rx="2.6058779"
         ry="2.4722431" />
      <ellipse
         style="fill:#0b1728;stroke-width:0.26458332"
         id="ellipse235"
         cx="16.487188"
         cy="130.5746"
         rx="1.2862346"
         ry="1.0523738" />
      <ellipse
         style="fill:#d7d7f4;stroke-width:0.26458332"
         id="ellipse237"
         cx="-73.307335"
         cy="110.20085"
         rx="1.0690781"
         ry="0.41760862"
         transform="rotate(-40.241932)" />
    </g>
    <g
       id="g247"
       style="fill:#5d6c53">
      <g
         id="g251" />
    </g>
    <path
       style="fill:#5d6c53;stroke:#000000;stroke-width:0.26458332px;stroke-linecap:butt;stroke-linejoin:miter;stroke-opacity:1"
       d="m 49.444862,299.67269 c -10.95805,-69.22281 2.405425,-78.30997 9.087164,-101.29515 6.681738,-22.98518 2.405425,-51.04848 -7.483546,-75.10273 -9.888974,-24.054262 -9.888974,-24.054262 -9.888974,-24.054262 0,0 15.234364,15.501632 24.588798,35.279582 9.354434,19.77794 -9.888974,38.75408 -17.907058,64.94649 -8.018087,26.19241 2.672694,28.86511 8.018084,57.19568 5.34539,28.33056 4.009043,49.17759 4.009043,49.17759 z"
       id="path253"
       inkscape:connector-curvature="0" />
    <path
       inkscape:connector-curvature="0"
       id="path255"
       d="m 118.1882,357.88102 c 10.95805,-69.22281 -2.40542,-78.30997 -9.08716,-101.29515 -6.68174,-22.98518 -2.40542,-51.04848 7.48355,-75.10273 9.88897,-24.05426 9.88897,-24.05426 9.88897,-24.05426 0,0 -15.23436,15.50163 -24.5888,35.27958 -9.35443,19.77794 9.88898,38.75408 17.90706,64.94649 8.01809,26.19241 -2.67269,28.86511 -8.01808,57.19568 -5.34539,28.33056 -4.00905,49.17759 -4.00905,49.17759 z"
       style="fill:#008000;stroke:#000000;stroke-width:0.26458332px;stroke-linecap:butt;stroke-linejoin:miter;stroke-opacity:1" />
    <path
       style="fill:#00aa00;stroke:#000000;stroke-width:0.26458332px;stroke-linecap:butt;stroke-linejoin:miter;stroke-opacity:1"
       d="m 187.0282,306.85423 c -10.95805,-69.22281 2.40542,-78.30997 9.08716,-101.29515 6.68174,-22.98518 2.40542,-51.04848 -7.48355,-75.10273 -9.88897,-24.05426 -9.88897,-24.05426 -9.88897,-24.05426 0,0 15.23436,15.50163 24.5888,35.27958 9.35443,19.77794 -9.88898,38.75408 -17.90706,64.94649 -8.01809,26.19241 2.67269,28.86511 8.01808,57.19568 5.34539,28.33056 4.00905,49.17759 4.00905,49.17759 z"
       id="path257"
       inkscape:connector-curvature="0" />
    <ellipse
       style="fill:#ffdd55;stroke-width:0.26458332"
       id="path372"
       cx="185.20833"
       cy="22.211309"
       rx="20.410715"
       ry="19.654762" />
  </g>
</svg>
