<?xml version="1.0" encoding="UTF-8" standalone="no"?>
<!-- Created with Inkscape (http://www.inkscape.org/) -->

<svg
   xmlns:dc="http://purl.org/dc/elements/1.1/"
   xmlns:cc="http://creativecommons.org/ns#"
   xmlns:rdf="http://www.w3.org/1999/02/22-rdf-syntax-ns#"
   xmlns:svg="http://www.w3.org/2000/svg"
   xmlns="http://www.w3.org/2000/svg"
   xmlns:sodipodi="http://sodipodi.sourceforge.net/DTD/sodipodi-0.dtd"
   xmlns:inkscape="http://www.inkscape.org/namespaces/inkscape"
   width="210mm"
   height="297mm"
   viewBox="0 0 210 297"
   version="1.1"
   id="svg384"
   inkscape:version="0.92.4 (5da689c313, 2019-01-14)"
   sodipodi:docname="002.svg">
  <defs
     id="defs378" />
  <sodipodi:namedview
     id="base"
     pagecolor="#ffffff"
     bordercolor="#666666"
     borderopacity="1.0"
     inkscape:pageopacity="0.0"
     inkscape:pageshadow="2"
     inkscape:zoom="0.98994949"
     inkscape:cx="797.26524"
     inkscape:cy="689.19978"
     inkscape:document-units="mm"
     inkscape:current-layer="layer1"
     showgrid="false"
     inkscape:window-width="1920"
     inkscape:window-height="1018"
     inkscape:window-x="-8"
     inkscape:window-y="-8"
     inkscape:window-maximized="1" />
  <metadata
     id="metadata381">
    <rdf:RDF>
      <cc:Work
         rdf:about="">
        <dc:format>image/svg+xml</dc:format>
        <dc:type
           rdf:resource="http://purl.org/dc/dcmitype/StillImage" />
        <dc:title></dc:title>
      </cc:Work>
    </rdf:RDF>
  </metadata>
  <g
     inkscape:label="Layer 1"
     inkscape:groupmode="layer"
     id="layer1">
    <rect
       style="fill:#666666;stroke-width:0.26458332"
       id="rect386"
       width="215.41924"
       height="136.842"
       x="-2.1381562"
       y="-1.2727927" />
    <rect
       style="fill:#1a1a1a;stroke-width:0.26458332"
       id="rect469"
       width="3.3100696"
       height="16.175413"
       x="75.973213"
       y="38.842262" />
    <rect
       style="fill:#000000;stroke-width:0.26458332"
       id="rect388"
       width="215.95377"
       height="175.32881"
       x="-1.6036172"
       y="123.80934" />
    <ellipse
       style="fill:#1a1a1a;stroke-width:0.26458332"
       id="path506"
       cx="166.6875"
       cy="74.372025"
       rx="71.4375"
       ry="9.6383924" />
    <g
       id="g461"
       transform="translate(-1.9815934,44.523628)">
      <rect
         y="85.711304"
         x="12.095239"
         height="86.178574"
         width="109.99107"
         id="rect390"
         style="fill:#28220b;stroke-width:0.26458332" />
      <rect
         y="127.28869"
         x="89.202377"
         height="26.458332"
         width="21.166666"
         id="rect392"
         style="fill:#d4aa00;stroke-width:0.26458332" />
      <rect
         style="fill:#2b1100;stroke-width:0.26458332"
         id="rect394"
         width="21.166666"
         height="26.458332"
         x="57.452377"
         y="127.28869" />
      <rect
         y="127.66666"
         x="24.190472"
         height="26.458332"
         width="21.166666"
         id="rect396"
         style="fill:#2b1100;stroke-width:0.26458332" />
      <rect
         y="15.029761"
         x="12.095239"
         height="70.681534"
         width="109.99107"
         id="rect400"
         style="fill:#2b2200;stroke-width:0.26458332" />
      <rect
         y="79.285713"
         x="0.37797621"
         height="15.497024"
         width="134.18155"
         id="rect398"
         style="fill:#1a1a1a;stroke-width:0.26458332" />
      <rect
         y="15.785713"
         x="97.139877"
         height="62.744045"
         width="11.717261"
         id="rect402"
         style="fill:#483e37;stroke-width:0.26458332" />
      <rect
         style="fill:#483e37;stroke-width:0.26458332"
         id="rect404"
         width="11.717261"
         height="62.744045"
         x="69.547615"
         y="15.02976" />
      <rect
         y="15.785713"
         x="41.577377"
         height="62.744045"
         width="11.717261"
         id="rect408"
         style="fill:#483e37;stroke-width:0.26458332" />
      <rect
         style="fill:#483e37;stroke-width:0.26458332"
         id="rect410"
         width="11.717261"
         height="62.744045"
         x="20.032734"
         y="14.651785" />
      <rect
         y="59.252975"
         x="7.9375"
         height="6.8035712"
         width="119.81845"
         id="rect412"
         style="fill:#1a1a1a;stroke-width:0.26458332" />
      <rect
         y="66.056549"
         x="4.3467264"
         height="15.497022"
         width="3.5907736"
         id="rect426"
         style="fill:#1a1a1a;stroke-width:0.26458332" />
      <rect
         y="66.056549"
         x="127.75595"
         height="13.418153"
         width="2.6458349"
         id="rect428"
         style="fill:#1a1a1a;stroke-width:0.26458332" />
      <rect
         y="64.355652"
         x="17.953869"
         height="19.465773"
         width="6.9925594"
         id="rect430"
         style="fill:#1a1a1a;stroke-width:0.26458332" />
      <rect
         y="64.355652"
         x="38.175598"
         height="20.788691"
         width="6.0476193"
         id="rect432"
         style="fill:#1a1a1a;stroke-width:0.26458332" />
      <rect
         y="64.355652"
         x="59.342262"
         height="19.465773"
         width="5.6696429"
         id="rect434"
         style="fill:#1a1a1a;stroke-width:0.26458332" />
      <rect
         y="64.166664"
         x="82.776787"
         height="20.977678"
         width="6.614583"
         id="rect436"
         style="fill:#1a1a1a;stroke-width:0.26458332" />
      <rect
         y="64.733627"
         x="106.40029"
         height="21.166666"
         width="6.614583"
         id="rect438"
         style="fill:#1a1a1a;stroke-width:0.26458332" />
      <path
         inkscape:connector-curvature="0"
         id="path440"
         d="M 2.2678571,20.321428 H 133.04762 L 114.14881,8.6041663 H 18.520833 Z"
         style="fill:#000000;stroke:#000000;stroke-width:0.26458332px;stroke-linecap:butt;stroke-linejoin:miter;stroke-opacity:1" />
    </g>
    <rect
       style="fill:#1a1a1a;stroke-width:0.26458332"
       id="rect463"
       width="3.6880455"
       height="21.845055"
       x="26.080357"
       y="37.330357" />
    <ellipse
       style="fill:#333333;stroke-width:0.26458332"
       id="path504"
       cx="91.924667"
       cy="37.397987"
       rx="82.115326"
       ry="9.921875" />
    <rect
       style="fill:#1a1a1a;stroke-width:0.26458332"
       id="rect465"
       width="7.4678078"
       height="33.940292"
       x="32.127975"
       y="26.369047" />
    <rect
       style="fill:#1a1a1a;stroke-width:0.26458332"
       id="rect467"
       width="3.688046"
       height="22.223032"
       x="103.1875"
       y="38.086308" />
    <path
       style="fill:#b3b3b3;stroke:#000000;stroke-width:0.26458332px;stroke-linecap:butt;stroke-linejoin:miter;stroke-opacity:1"
       d="m 157.95629,224.03542 c -0.62237,2.33915 -0.78764,4.79543 -1.44066,7.07112 -0.26967,3.02243 -2.86739,4.89848 -3.33405,7.79089 -1.36899,2.79949 -2.71211,5.66448 -4.77064,8.03085 -1.6817,1.94523 -1.51415,4.73282 -2.96172,6.63912 -0.63264,1.66314 -3.52247,3.67291 -2.67644,4.94579 2.58159,0.45231 4.92441,-1.06442 7.42156,-1.08967 3.15244,-1.354 4.79554,1.34192 7.29831,2.42783 3.34794,1.14393 4.45206,4.83524 7.00907,6.91928 2.28069,1.00143 5.72863,-0.0336 7.33525,-1.99494 1.89103,-1.7356 3.30242,-4.22481 6.00992,-4.80052 2.39982,-1.23372 4.75661,0.38525 7.19841,0.14163 1.66111,0 3.32222,0 4.98333,0 0.43284,-1.94477 2.3091,-3.53225 2.26393,-5.43807 0.46877,-2.87785 2.38024,-5.87714 5.66864,-5.94125 2.29961,0.39494 4.88892,-1.45458 4.68921,-3.91647 0.008,-2.51432 -0.005,-5.19563 -1.59882,-7.31497 -1.97807,-2.41974 -4.936,-3.79321 -7.16132,-5.97476 -2.51117,-1.84688 -4.33154,-4.47577 -6.97366,-6.17316 -1.8613,-1.70553 -4.23472,-4.08584 -5.9128,-5.08451 -2.02555,-2.13331 -4.95038,-2.40828 -7.69427,-2.89071 -1.53923,-0.50612 -3.14041,-0.80481 -4.66247,-1.36557"
       id="path473"
       inkscape:connector-curvature="0" />
    <ellipse
       style="fill:#b3b3b3;stroke-width:0.26458332"
       id="path471"
       cx="166.64256"
       cy="221.76363"
       rx="9.4880686"
       ry="9.2207985" />
    <g
       id="g486">
      <circle
         r="2.6726952"
         cy="221.09544"
         cx="161.56442"
         id="path477"
         style="fill:#87cdde;stroke-width:0.26458332" />
      <ellipse
         ry="0.75169551"
         rx="0.88533032"
         cy="220.97852"
         cx="160.7292"
         id="path479"
         style="fill:#000000;stroke-width:0.26458332" />
      <ellipse
         transform="matrix(0.84228792,-0.53902789,0.57181737,0.82038094,0,0)"
         ry="0.50067908"
         rx="1.4458303"
         cy="272.94769"
         cx="7.2099442"
         id="path481"
         style="fill:#f9f9f9;stroke-width:0.3634294" />
    </g>
    <g
       id="g494"
       transform="translate(8.2918527,-1.3465402)">
      <circle
         style="fill:#87cdde;stroke-width:0.26458332"
         id="circle488"
         cx="161.56442"
         cy="221.09544"
         r="2.6726952" />
      <ellipse
         style="fill:#000000;stroke-width:0.26458332"
         id="ellipse490"
         cx="160.7292"
         cy="220.97852"
         rx="0.88533032"
         ry="0.75169551" />
      <ellipse
         style="fill:#f9f9f9;stroke-width:0.3634294"
         id="ellipse492"
         cx="7.2099442"
         cy="272.94769"
         rx="1.4458303"
         ry="0.50067908"
         transform="matrix(0.84228792,-0.53902789,0.57181737,0.82038094,0,0)" />
    </g>
    <circle
       style="fill:#e6e6e6;stroke-width:0.26458332"
       id="path498"
       cx="188.42114"
       cy="25.802082"
       r="17.575893" />
    <ellipse
       style="fill:#4d4d4d;stroke-width:0.26458332"
       id="path500"
       cx="151.47395"
       cy="28.164434"
       rx="60.003719"
       ry="9.7328863" />
    <ellipse
       style="fill:#4d4d4d;stroke-width:0.26458332"
       id="path502"
       cx="225.72624"
       cy="51.069504"
       rx="101.29762"
       ry="9.260417" />
  </g>
</svg>
