<?xml version="1.0" encoding="UTF-8" standalone="no"?>
<!-- Created with Inkscape (http://www.inkscape.org/) -->

<svg
   xmlns:dc="http://purl.org/dc/elements/1.1/"
   xmlns:cc="http://creativecommons.org/ns#"
   xmlns:rdf="http://www.w3.org/1999/02/22-rdf-syntax-ns#"
   xmlns:svg="http://www.w3.org/2000/svg"
   xmlns="http://www.w3.org/2000/svg"
   xmlns:sodipodi="http://sodipodi.sourceforge.net/DTD/sodipodi-0.dtd"
   xmlns:inkscape="http://www.inkscape.org/namespaces/inkscape"
   width="210mm"
   height="297mm"
   viewBox="0 0 210 297"
   version="1.1"
   id="svg8"
   inkscape:version="0.92.4 (5da689c313, 2019-01-14)"
   sodipodi:docname="004.svg">
  <defs
     id="defs2" />
  <sodipodi:namedview
     id="base"
     pagecolor="#ffffff"
     bordercolor="#666666"
     borderopacity="1.0"
     inkscape:pageopacity="0.0"
     inkscape:pageshadow="2"
     inkscape:zoom="0.7"
     inkscape:cx="-148.06038"
     inkscape:cy="543.17991"
     inkscape:document-units="mm"
     inkscape:current-layer="layer1"
     showgrid="false"
     inkscape:window-width="1920"
     inkscape:window-height="1018"
     inkscape:window-x="-8"
     inkscape:window-y="-8"
     inkscape:window-maximized="1" />
  <metadata
     id="metadata5">
    <rdf:RDF>
      <cc:Work
         rdf:about="">
        <dc:format>image/svg+xml</dc:format>
        <dc:type
           rdf:resource="http://purl.org/dc/dcmitype/StillImage" />
        <dc:title></dc:title>
      </cc:Work>
    </rdf:RDF>
  </metadata>
  <g
     inkscape:label="Layer 1"
     inkscape:groupmode="layer"
     id="layer1">
    <rect
       style="opacity:1;fill:#00ffff;stroke:#000000;stroke-width:0.26458332;stroke-opacity:1"
       id="rect3454"
       width="214.8847"
       height="165.17258"
       x="-0.53453904"
       y="-0.73825359" />
    <rect
       style="opacity:1;fill:#e6e6e6;stroke:#000000;stroke-width:0.26458332;stroke-opacity:1"
       id="rect3999"
       width="215.95377"
       height="133.63475"
       x="-1.6036172"
       y="164.43433" />
    <ellipse
       style="opacity:1;fill:#e6e6e6;stroke:#000000;stroke-width:0.26458332;stroke-opacity:1"
       id="path4001"
       cx="58.586308"
       cy="123.69791"
       rx="23.056549"
       ry="12.284225" />
    <ellipse
       style="opacity:1;fill:#e6e6e6;stroke:#000000;stroke-width:0.26458332;stroke-opacity:1"
       id="path4003"
       cx="35.151787"
       cy="189.27678"
       rx="34.017857"
       ry="60.098213" />
    <g
       id="g4078"
       transform="matrix(0.78108229,0,0,0.74090389,20.460403,25.085295)">
      <ellipse
         ry="4.6151805"
         rx="4.3345518"
         cy="125.07408"
         cx="131.70563"
         id="path4044"
         style="opacity:1;fill:#fff6d5;stroke:#000000;stroke-width:0;stroke-miterlimit:4;stroke-dasharray:none;stroke-opacity:1" />
      <g
         transform="translate(18.174328,-19.243406)"
         id="g4066">
        <g
           id="g4052"
           transform="translate(16.036172,2.6726953)"
           style="opacity:0.63200001">
          <ellipse
             ry="93.009796"
             rx="96.217026"
             cy="55.388344"
             cx="101.56242"
             id="path4046"
             style="opacity:1;fill:#fff6d5;stroke:#000000;stroke-width:0;stroke-miterlimit:4;stroke-dasharray:none;stroke-opacity:1" />
          <ellipse
             style="opacity:1;fill:#00ffff;stroke:#000000;stroke-width:0;stroke-miterlimit:4;stroke-dasharray:none;stroke-opacity:1"
             id="ellipse4048"
             cx="101.95927"
             cy="54.319263"
             rx="78.439552"
             ry="79.646324" />
        </g>
        <ellipse
           style="opacity:1;fill:#fff6d5;stroke:#000000;stroke-width:0;stroke-miterlimit:4;stroke-dasharray:none;stroke-opacity:1"
           id="path4038"
           cx="118.40041"
           cy="54.720173"
           rx="10.423512"
           ry="9.2207985" />
        <ellipse
           style="opacity:1;fill:#fff6d5;stroke:#000000;stroke-width:0;stroke-miterlimit:4;stroke-dasharray:none;stroke-opacity:1"
           id="path4040"
           cx="26.192413"
           cy="53.116558"
           rx="5.6126599"
           ry="5.2117558" />
        <ellipse
           style="opacity:1;fill:#fff6d5;stroke:#000000;stroke-width:0;stroke-miterlimit:4;stroke-dasharray:none;stroke-opacity:1"
           id="path4042"
           cx="207.00024"
           cy="57.259235"
           rx="5.7462945"
           ry="4.8108511" />
        <rect
           style="opacity:0.63200001;fill:#fff6d5;stroke:#000000;stroke-width:0;stroke-miterlimit:4;stroke-dasharray:none;stroke-opacity:1"
           id="rect4054"
           width="195.13356"
           height="13.363023"
           x="20.267771"
           y="46.046814"
           transform="matrix(0.99974332,0.02265589,-0.01910773,0.99981743,0,0)" />
        <rect
           transform="matrix(0.0498647,-0.99875598,0.99898733,0.04499235,0,0)"
           y="112.33381"
           x="-145.66031"
           height="13.362008"
           width="201.83289"
           id="rect4056"
           style="opacity:0.63200001;fill:#fff6d5;stroke:#000000;stroke-width:0;stroke-miterlimit:4;stroke-dasharray:none;stroke-opacity:1" />
      </g>
    </g>
    <path
       style="fill:none;stroke:#000000;stroke-width:1.165;stroke-linecap:butt;stroke-linejoin:miter;stroke-opacity:1;stroke-miterlimit:4;stroke-dasharray:none"
       d="m 70.024616,184.47953 c 4.407377,-9.98714 9.198467,-19.94571 15.590427,-28.81715 6.809714,-7.69044 13.631749,-15.49293 21.978097,-21.57272 13.18831,-11.41674 26.06041,-23.44879 41.21931,-32.26233 6.24896,-4.476636 12.27315,-9.321571 19.03281,-13.030294"
       id="path4030"
       inkscape:connector-curvature="0" />
    <ellipse
       style="opacity:1;fill:#e6e6e6;stroke:#000000;stroke-width:0.26458332;stroke-opacity:1"
       id="path4005"
       cx="71.815475"
       cy="162.62946"
       rx="14.741072"
       ry="6.614583" />
    <ellipse
       style="opacity:1;fill:#e6e6e6;stroke:#000000;stroke-width:0.26458332;stroke-opacity:1"
       id="path4007"
       cx="62.744045"
       cy="233.87798"
       rx="24.946428"
       ry="19.276785" />
    <ellipse
       style="opacity:1;fill:#e6e6e6;stroke:#000000;stroke-width:0.26458332;stroke-opacity:1"
       id="path4009"
       cx="86.367554"
       cy="252.20981"
       rx="18.331844"
       ry="6.614583" />
    <ellipse
       style="opacity:1;fill:#4d4d4d;stroke:#000000;stroke-width:0.26458332;stroke-opacity:1"
       id="path4011"
       cx="158.18303"
       cy="219.32588"
       rx="40.254463"
       ry="13.040178" />
    <ellipse
       style="opacity:1;fill:#165044;stroke:#000000;stroke-width:0.22014284;stroke-opacity:1"
       id="path4013"
       cx="157.42708"
       cy="223.48364"
       rx="31.583231"
       ry="9.2826366" />
    <path
       style="fill:#ececec;stroke:#000000;stroke-width:0.26458332px;stroke-linecap:butt;stroke-linejoin:miter;stroke-opacity:1"
       d="m 46.838983,115.25672 c -2.204971,-4.34313 -10.089422,-2.60588 -7.015824,2.60587 3.073599,5.21176 7.015824,-2.60587 7.015824,-2.60587 z"
       id="path4017"
       inkscape:connector-curvature="0" />
    <ellipse
       style="opacity:1;fill:#000000;stroke:#000000;stroke-width:0.26458332;stroke-opacity:1"
       id="path4019"
       cx="56.393875"
       cy="119.63326"
       rx="1.4699824"
       ry="1.1693041" />
    <ellipse
       ry="1.1693041"
       rx="1.4699824"
       cy="121.23688"
       cx="81.316757"
       id="ellipse4021"
       style="opacity:1;fill:#000000;stroke:#000000;stroke-width:0.26458332;stroke-opacity:1" />
    <path
       style="fill:none;stroke:#000000;stroke-width:0.26458332px;stroke-linecap:butt;stroke-linejoin:miter;stroke-opacity:1"
       d="m 80.047223,128.01884 c -3.737386,1.66735 -7.951105,1.79485 -11.971704,2.08654 -5.071899,0.0757 -10.196138,0.11348 -15.237141,-0.0258 -0.112087,-0.0862 -0.257554,-0.0829 -0.386751,-0.12329"
       id="path4023"
       inkscape:connector-curvature="0" />
    <path
       style="fill:#fff6d5;stroke:#000000;stroke-width:0.26458332px;stroke-linecap:butt;stroke-linejoin:miter;stroke-opacity:1"
       d="m 167.84526,88.797034 2.13816,132.031146"
       id="path4036"
       inkscape:connector-curvature="0" />
    <g
       id="g223"
       transform="rotate(63.370164,-5.2456844,321.20349)"
       style="opacity:0.473">
      <path
         inkscape:connector-curvature="0"
         id="path204"
         d="m 20.713388,135.03466 c 4.276313,-2.80633 4.276313,-5.87992 4.276313,-5.87992 l 2.939964,8.28535 c 0,0 -1.069078,2.40543 -7.750816,0.80181 -6.681738,-1.60362 0.133635,0 0.133635,0 z"
         style="fill:#d35f5f;stroke:#000000;stroke-width:0.26458332px;stroke-linecap:butt;stroke-linejoin:miter;stroke-opacity:1" />
      <path
         style="fill:#d35f5f;stroke:#000000;stroke-width:0.26458332px;stroke-linecap:butt;stroke-linejoin:miter;stroke-opacity:1"
         d="m 14.298919,153.84852 c 4.276313,2.80633 4.276313,5.87992 4.276313,5.87992 l 2.939964,-8.28535 c 0,0 -1.069078,-2.40543 -7.750816,-0.80181 -6.6817376,1.60362 0.133635,0 0.133635,0 z"
         id="path206"
         inkscape:connector-curvature="0" />
      <path
         inkscape:connector-curvature="0"
         id="path208"
         d="m 7.6858388,141.62417 c -6.6501194,3.88221 -9.7236575,10.18658 -9.7236575,10.18658 l 5.6425682,-18.28277 c 0,0 3.3663516,-4.46539 7.7687555,1.75193 4.402404,6.21733 -0.12012,-0.0586 -0.12012,-0.0586 z"
         style="fill:#d35f5f;stroke:#000000;stroke-width:0.39967999px;stroke-linecap:butt;stroke-linejoin:miter;stroke-opacity:1" />
      <path
         inkscape:connector-curvature="0"
         id="path202"
         d="M 17.764881,122.75298 C 1.1339286,134.47024 7.5595238,155.25893 9.0714284,160.55059 10.583333,165.84226 3.7797618,177.55952 3.7797618,177.55952 L 15.875,177.18154 9.4494047,162.0625 c 0,0 17.7648803,-21.16667 8.3154763,-39.30952 z"
         style="fill:#93aca7;stroke:#000000;stroke-width:0.26458332px;stroke-linecap:butt;stroke-linejoin:miter;stroke-opacity:1" />
      <ellipse
         ry="2.4722431"
         rx="2.6058779"
         cy="130.82516"
         cx="15.969354"
         id="path210"
         style="fill:#0000ff;stroke-width:0.26458332" />
      <ellipse
         ry="1.0523738"
         rx="1.2862346"
         cy="130.5746"
         cx="16.487188"
         id="path212"
         style="fill:#0b1728;stroke-width:0.26458332" />
      <ellipse
         transform="rotate(-40.241932)"
         ry="0.41760862"
         rx="1.0690781"
         cy="110.20085"
         cx="-73.307335"
         id="path214"
         style="fill:#d7d7f4;stroke-width:0.26458332" />
    </g>
  </g>
</svg>
